<svg width="226" height="226" viewBox="0 0 226 226" fill="none" xmlns="http://www.w3.org/2000/svg">
<mask id="mask0_47_20" style="mask-type:alpha" maskUnits="userSpaceOnUse" x="0" y="0" width="226" height="226">
<rect width="225.363" height="225.363" fill="#D9D9D9"/>
</mask>
<g mask="url(#mask0_47_20)">
<path d="M115.535 179.427C135.454 160.123 150.23 142.583 159.863 126.809C169.496 111.041 174.313 97.0387 174.313 84.8012C174.313 66.0139 168.637 50.6291 157.287 38.6466C145.943 26.671 132.025 20.6832 115.535 20.6832C99.0447 20.6832 85.1242 26.671 73.7736 38.6466C62.4296 50.6291 56.7575 66.0139 56.7575 84.8012C56.7575 97.0387 61.574 111.041 71.207 126.809C80.84 142.583 95.616 160.123 115.535 179.427ZM115.535 206.832C89.2484 183.219 69.6167 161.284 56.64 141.028C43.6567 120.78 37.165 102.037 37.165 84.8012C37.165 58.9472 45.0445 38.3501 60.8034 23.0101C76.5558 7.67002 94.7996 0 115.535 0C136.27 0 154.514 7.67002 170.267 23.0101C186.026 38.3501 193.905 58.9472 193.905 84.8012C193.905 102.037 187.417 120.78 174.44 141.028C161.457 161.284 141.822 183.219 115.535 206.832Z" fill="#E15F41"/>
</g>
</svg>
