<svg width="410" height="616" viewBox="0 0 410 616" fill="none" xmlns="http://www.w3.org/2000/svg">
<path fill-rule="evenodd" clip-rule="evenodd" d="M187.894 578.347C184.742 576.308 180.069 573.285 177.007 572.41C176.057 578.773 176.58 592.939 186.27 598.698C193.873 592.955 198.382 587.373 198.382 587.373C200.282 580.96 203.37 568.135 200.52 568.135C196.957 568.135 191.257 579.535 191.257 580.248C191.257 580.523 189.877 579.63 187.894 578.347Z" fill="#E15F41"/>
<path d="M81.0506 591.648C83.2395 601.506 86.0413 608.601 90.0824 610.173C95.1335 612.137 105.379 613.748 116.988 614.77C110.119 595.212 101.7 590.958 81.0506 591.648Z" fill="#E15F41"/>
<path d="M76 469.017C93.4869 474.347 101.666 465.112 115.5 443L110.925 512.535C96.8152 512.739 88.8071 512.507 74.4255 511.535L76 469.017Z" fill="#E1A632"/>
<path fill-rule="evenodd" clip-rule="evenodd" d="M373.919 578.347C370.767 576.308 366.094 573.285 363.032 572.41C362.082 578.773 362.604 592.939 372.294 598.698C379.898 592.955 384.407 587.373 384.407 587.373C386.307 580.96 389.394 568.135 386.544 568.135C382.982 568.135 377.282 579.535 377.282 580.248C377.282 580.523 375.901 579.63 373.919 578.347Z" fill="#E15F41"/>
<path d="M267.075 591.648C269.264 601.506 272.066 608.601 276.107 610.173C281.158 612.137 291.403 613.748 303.013 614.77C296.144 595.212 287.725 590.958 267.075 591.648Z" fill="#E15F41"/>
<path d="M270.147 465.738L296.435 460.158L296.95 512.535C282.84 512.739 274.832 512.507 260.45 511.535L270.147 465.738Z" fill="#E1A632"/>
<path d="M56.0447 439.162C47.3965 444.201 13.8801 480.384 16.0238 460.71C21.022 255.405 81.9001 154.72 106.425 98.535C133.925 35.5351 229.788 35.5351 261.425 96.0351C293.063 156.535 351.675 359.216 339.764 453.215L339.704 453.56C338.241 461.877 334.874 481.016 328.33 487.879C317.611 499.122 314.752 495.374 306.175 477.574C301.824 468.543 292.598 448.531 282.592 453.215C271.636 458.344 251.907 496.809 244.001 491.627C236.854 486.943 225.419 477.574 217.558 465.395C212.049 456.859 204.695 489.753 192.545 493.501C173.964 491.627 169.875 469.078 165.388 467.268C156.098 463.521 151.121 501.054 141.09 478.511L140.84 477.949C135.99 467.046 133.073 460.49 123.938 447.594C114.648 434.478 113.217 448.531 103.212 460.71C93.207 472.89 79.6292 471.953 66.7646 465.395C53.6784 458.723 62.4774 435.415 56.0447 439.162Z" fill="#E1A632"/>
<path d="M289.951 51.273C267.059 49.9028 263.441 54.165 250.425 82.0351C239.123 66.953 234.834 65.4128 217.425 59.0351L265.723 27.1018C306.951 51.3092 321.9 50.3474 342.575 37.9722C347.072 27.8602 350.537 22.1017 335.904 13.7958C325.635 14.3893 325.184 20.8902 326.894 25.5886C328.604 30.2871 340.35 26.0118 340.35 26.0118C340.35 26.0118 335.996 34.514 330.827 36.3951C325.659 38.2762 311.859 31.0609 311.004 28.7117C310.149 26.3625 320.266 2.99158 325.435 1.11171C330.603 -0.768157 361.11 21.648 360.898 25.4504C360.685 29.2529 342.456 68.344 332.159 61.9828C323.77 56.7997 289.951 51.273 289.951 51.273Z" fill="#CC170E"/>
<path d="M71.9479 53.273C94.8396 51.9028 102.334 56.926 115.35 84.7961C122.457 72.8646 128.828 67.8638 142.925 61.0351L96.1761 29.1018C54.9474 53.3092 39.9982 52.3474 19.3234 39.9722C14.8267 29.8602 11.3621 24.1017 25.9945 15.7958C36.2642 16.3893 36.7146 22.8902 35.0045 27.5886C33.2944 32.2871 21.5482 28.0118 21.5482 28.0118C21.5482 28.0118 25.903 36.514 31.0713 38.3951C36.2396 40.2762 50.0396 33.0609 50.8946 30.7117C51.7497 28.3625 41.6329 4.99158 36.4641 3.11171C31.2954 1.23184 0.788817 23.648 1.0011 27.4504C1.21339 31.2529 19.4428 70.344 29.7394 63.9828C38.129 58.7997 71.9479 53.273 71.9479 53.273Z" fill="#CC170E"/>
<path d="M179.425 254.535C201.425 267.035 256.925 309.535 304.895 288.035V426.035C283.981 430.082 242.459 440.766 207.171 442C188.332 440.016 178 432.155 155 419.319C133.992 407.594 136.791 408.887 128.464 400.772C106.313 341.171 128.588 225.65 179.425 254.535Z" fill="#936E25"/>
<path d="M287.68 206.603C258.715 194.865 243.322 199.674 217.128 207.056C216.381 207.267 215.692 206.551 215.896 205.803C237.004 128.329 251.998 115.051 288.987 205.237C289.326 206.062 288.506 206.938 287.68 206.603Z" fill="white"/>
<path d="M203.895 205.921C170.983 196.113 155.458 199.229 133.162 206.005C132.409 206.234 131.702 205.513 131.909 204.754C153.034 127.24 168.038 114.042 205.109 204.534C205.428 205.314 204.703 206.162 203.895 205.921Z" fill="white"/>
<path d="M200.925 202.035C193.925 200.535 189.925 198.535 178.425 197.535C187.15 168.382 188.925 172.535 200.925 202.035Z" fill="black"/>
<path d="M284.425 202.035C277.425 200.535 274.425 198.035 262.925 197.035C271.65 167.882 272.425 172.535 284.425 202.035Z" fill="black"/>
<path d="M127.925 121.535C147.094 110.002 159.418 109.318 184.925 121.035C163.387 114.255 150.95 113.95 127.925 121.535Z" fill="#936E25"/>
<path d="M209.925 120.509C229.094 108.977 241.418 108.292 266.925 120.009C245.387 113.23 232.95 112.924 209.925 120.509Z" fill="#936E25"/>
<path d="M393.794 405.187C183.793 576.688 51.7058 343.921 48.5 336.804C45.2942 329.687 44.0002 331.187 48.5001 321.687C51.5002 316.187 55.7168 322.687 59.7944 328.187C80.632 356.293 103.668 381.134 128.464 400.772C153.104 420.286 179.483 434.663 207.171 442C256.977 455.198 311.019 445.617 366.794 402.187C366.794 402.187 371.294 383.187 373.294 381.687C375.294 380.187 380.277 382.066 376.294 390.687C396.294 361.188 427.794 374.687 393.794 405.187Z" fill="#E1A632"/>
<path d="M165.235 280.713C157.253 278.435 162.05 256.916 164.426 250.035C179.925 252.035 186.925 260.035 190.18 261.493C206.572 270.747 206.021 267.45 217.263 275.018L236.506 284.272L257.887 292.102C263.589 294.95 276.417 294.712 282.119 294.238C286.11 294.807 298.986 289.729 304.925 287.119V301.356C303.975 303.255 301.504 307.336 299.224 308.475C296.373 309.899 293.522 309.899 289.959 309.187C287.108 308.617 283.544 298.984 282.119 294.238C281.169 297.797 278.413 305.77 274.992 309.187C270.716 313.458 261.45 309.899 257.887 309.187C255.957 308.801 256.096 303.609 256.755 298.602C255.495 303.408 253.165 308.146 249.334 307.763C242.207 307.051 239.357 307.763 237.218 304.916C235.508 302.638 234.346 294.475 233.978 290.679C231.203 296.596 227.084 302.401 222.964 299.933C215.837 295.662 211.561 291.39 210.848 288.543C210.278 286.265 210.136 285.221 210.136 284.984C203.721 289.255 197.307 287.831 193.031 284.984C186.123 280.384 187.804 268.374 190.18 261.493C187.567 266.238 182.055 276.157 180.915 277.865C179.489 280.001 175.213 283.56 165.235 280.713Z" fill="white"/>
<path d="M85.8074 605.898L86.2167 605.611L85.8074 605.898ZM162.045 610.173L162.143 610.663L162.045 610.173ZM198.382 587.373L198.771 587.687L198.834 587.61L198.862 587.515L198.382 587.373ZM108.607 570.985L109.101 570.908L108.607 570.985ZM110.745 534.648L110.274 534.48L110.745 534.648ZM90.0824 610.173L90.2636 609.707L90.0824 610.173ZM186.27 598.698L186.014 599.128L186.303 599.3L186.571 599.097L186.27 598.698ZM81.0506 591.648L81.0339 591.148L80.4319 591.168L80.5625 591.756L81.0506 591.648ZM116.988 614.77L116.944 615.268L117.717 615.336L117.46 614.604L116.988 614.77ZM187.894 578.347L188.166 577.927H188.166L187.894 578.347ZM76 469.017L76.1458 468.539L75.5244 468.349L75.5003 468.999L76 469.017ZM115.5 443L115.999 443.033L115.076 442.735L115.5 443ZM110.925 512.535L110.933 513.035L111.394 513.028L111.424 512.568L110.925 512.535ZM74.4255 511.535L73.9258 511.517L73.9079 512.001L74.3918 512.034L74.4255 511.535ZM87.6967 476.037C87.5941 475.781 87.3031 475.656 87.0467 475.758C86.7903 475.861 86.6656 476.152 86.7682 476.408L87.6967 476.037ZM90.7949 484.06L90.4414 484.414L90.7949 484.06ZM93.6449 477.648L94.1116 477.468L93.5864 476.103L93.166 477.504L93.6449 477.648ZM98.6324 488.335L98.986 487.982L98.6324 488.335ZM101.482 476.223L101.957 476.064L100.985 476.17L101.482 476.223ZM271.832 605.898L272.241 605.611L271.832 605.898ZM348.069 610.173L348.167 610.663L348.069 610.173ZM384.407 587.373L384.796 587.687L384.858 587.61L384.886 587.515L384.407 587.373ZM294.632 570.985L295.126 570.908L294.632 570.985ZM296.769 534.648L296.298 534.48L296.769 534.648ZM276.107 610.173L276.288 609.707L276.107 610.173ZM372.294 598.698L372.039 599.128L372.328 599.3L372.596 599.097L372.294 598.698ZM267.075 591.648L267.058 591.148L266.456 591.168L266.587 591.756L267.075 591.648ZM303.013 614.77L302.969 615.268L303.741 615.336L303.484 614.604L303.013 614.77ZM373.919 578.347L374.19 577.927L373.919 578.347ZM310.295 510.95L310.66 510.609L310.295 510.95ZM270.147 465.738L270.043 465.249L269.725 465.316L269.658 465.634L270.147 465.738ZM296.435 460.158L296.935 460.153L296.929 459.542L296.331 459.669L296.435 460.158ZM296.95 512.535L296.957 513.035L297.455 513.028L297.45 512.53L296.95 512.535ZM260.45 511.535L259.961 511.431L259.841 511.995L260.416 512.034L260.45 511.535ZM273.721 476.037C273.619 475.781 273.328 475.656 273.071 475.758C272.815 475.861 272.69 476.152 272.793 476.408L273.721 476.037ZM276.819 484.06L276.466 484.414L276.819 484.06ZM279.669 477.648L280.136 477.468L279.611 476.103L279.19 477.504L279.669 477.648ZM284.657 488.335L285.01 487.982L284.657 488.335ZM287.507 476.223L287.981 476.064L287.01 476.17L287.507 476.223ZM16.0238 460.71L16.5209 460.764L16.5231 460.743L16.5237 460.722L16.0238 460.71ZM56.0447 439.162L55.793 438.73H55.793L56.0447 439.162ZM66.7646 465.395L66.9917 464.949L66.7646 465.395ZM123.938 447.594L124.346 447.305L123.938 447.594ZM140.84 477.949L140.383 478.152L140.84 477.949ZM141.09 478.511L140.633 478.714L140.633 478.714L141.09 478.511ZM165.388 467.268L165.575 466.805L165.388 467.268ZM217.558 465.395L217.978 465.123L217.558 465.395ZM244.001 491.627L243.727 492.045L244.001 491.627ZM282.592 453.215L282.804 453.668L282.592 453.215ZM306.175 477.574L306.626 477.357L306.175 477.574ZM328.33 487.879L328.692 488.224L328.33 487.879ZM339.704 453.56L340.196 453.647L339.704 453.56ZM339.764 453.215L340.257 453.302L340.259 453.29L340.26 453.278L339.764 453.215ZM261.425 96.0351L261.869 95.8034L261.425 96.0351ZM192.545 493.501L192.495 493.998L192.596 494.008L192.693 493.978L192.545 493.501ZM106.425 98.535L106.884 98.735L106.425 98.535ZM250.425 82.0351L250.025 82.3349L250.526 83.0024L250.878 82.2466L250.425 82.0351ZM289.951 51.273L290.031 50.7795L290.006 50.7754L289.981 50.7738L289.951 51.273ZM332.159 61.9828L331.897 62.4081L332.159 61.9828ZM360.898 25.4504L360.398 25.4226L360.898 25.4504ZM340.35 26.0118L340.796 26.2398L341.376 25.1065L340.179 25.542L340.35 26.0118ZM335.904 13.7958L336.151 13.361L336.023 13.2882L335.875 13.2967L335.904 13.7958ZM342.575 37.9722L342.832 38.4012L342.968 38.3199L343.032 38.1753L342.575 37.9722ZM265.723 27.1018L265.976 26.6706L265.707 26.5128L265.447 26.6847L265.723 27.1018ZM217.425 59.0351L217.15 58.618L216.324 59.164L217.253 59.5046L217.425 59.0351ZM115.35 84.7961L114.897 85.0077L115.296 85.8631L115.779 85.052L115.35 84.7961ZM71.9479 53.273L71.918 52.7738L71.8925 52.7754L71.8672 52.7795L71.9479 53.273ZM29.7394 63.9828L30.0022 64.4081L29.7394 63.9828ZM1.0011 27.4504L1.50033 27.4226L1.0011 27.4504ZM21.5482 28.0118L21.7193 27.542L20.5228 27.1065L21.1032 28.2398L21.5482 28.0118ZM25.9945 15.7958L26.0233 15.2967L25.876 15.2882L25.7477 15.361L25.9945 15.7958ZM19.3234 39.9722L18.8665 40.1753L18.9308 40.3199L19.0666 40.4012L19.3234 39.9722ZM96.1761 29.1018L96.4581 28.6889L96.1963 28.5101L95.9229 28.6706L96.1761 29.1018ZM142.925 61.0351L143.143 61.4851L143.92 61.1089L143.207 60.6222L142.925 61.0351ZM304.895 288.035H305.395V287.263L304.69 287.579L304.895 288.035ZM179.425 254.535L179.672 254.1L179.425 254.535ZM155 419.319L155.244 418.882L155 419.319ZM304.895 426.035L304.99 426.526L305.395 426.448V426.035H304.895ZM217.128 207.056L216.992 206.575L217.128 207.056ZM287.68 206.603L287.492 207.067L287.68 206.603ZM215.896 205.803L216.378 205.934L215.896 205.803ZM288.987 205.237L289.45 205.047L288.987 205.237ZM133.162 206.005L133.016 205.527L133.162 206.005ZM203.895 205.921L204.038 205.442H204.038L203.895 205.921ZM131.909 204.754L132.392 204.885L131.909 204.754ZM205.109 204.534L204.646 204.724L205.109 204.534ZM200.925 202.035L200.821 202.524L201.745 202.722L201.389 201.847L200.925 202.035ZM178.425 197.535L177.946 197.392L177.77 197.98L178.382 198.033L178.425 197.535ZM284.425 202.035L284.321 202.524L285.245 202.722L284.889 201.847L284.425 202.035ZM262.925 197.035L262.446 196.892L262.27 197.48L262.882 197.533L262.925 197.035ZM127.925 121.535L127.668 121.107L128.082 122.01L127.925 121.535ZM184.925 121.035L184.775 121.512L185.134 120.581L184.925 121.035ZM209.925 120.509L209.668 120.081L210.082 120.984L209.925 120.509ZM266.925 120.009L266.775 120.486L267.134 119.555L266.925 120.009ZM393.794 405.187L394.111 405.575L394.12 405.567L394.128 405.56L393.794 405.187ZM59.7944 328.187L59.3928 328.485H59.3928L59.7944 328.187ZM366.794 402.187L367.101 402.582L367.24 402.474L367.281 402.303L366.794 402.187ZM376.294 390.687L375.84 390.478L376.708 390.968L376.294 390.687ZM48.5001 321.687L48.0611 321.448L48.0543 321.46L48.0482 321.473L48.5001 321.687ZM165.235 280.713L165.098 281.193L165.235 280.713ZM164.426 250.035L164.49 249.539L164.086 249.487L163.953 249.872L164.426 250.035ZM190.18 261.493L190.426 261.057L190.406 261.046L190.384 261.036L190.18 261.493ZM217.263 275.018L216.984 275.433L217.013 275.453L217.046 275.468L217.263 275.018ZM236.506 284.272L236.289 284.722L236.311 284.733L236.334 284.741L236.506 284.272ZM257.887 292.102L258.11 291.655L258.085 291.642L258.059 291.633L257.887 292.102ZM282.119 294.238L282.19 293.743L282.134 293.735L282.077 293.74L282.119 294.238ZM304.925 287.119H305.425V286.353L304.724 286.662L304.925 287.119ZM304.925 301.356L305.373 301.58L305.425 301.475V301.356H304.925ZM299.224 308.475L299 308.028L299.224 308.475ZM289.959 309.187L290.057 308.696L289.959 309.187ZM274.992 309.187L275.345 309.54L274.992 309.187ZM257.887 309.187L257.985 308.696L257.887 309.187ZM256.755 298.602L257.251 298.667L256.272 298.475L256.755 298.602ZM249.334 307.763L249.285 308.261L249.334 307.763ZM237.218 304.916L237.618 304.615L237.218 304.916ZM233.978 290.679L234.476 290.63L234.3 288.815L233.526 290.466L233.978 290.679ZM222.964 299.933L222.707 300.362L222.964 299.933ZM210.848 288.543L211.333 288.422L210.848 288.543ZM210.136 284.984H210.636V284.05L209.859 284.568L210.136 284.984ZM193.031 284.984L193.308 284.568L193.031 284.984ZM180.915 277.865L181.331 278.143L180.915 277.865ZM85.3981 606.185C87.8788 609.721 92.926 611.918 99.2024 613.222C105.507 614.532 113.179 614.966 121.066 614.872C136.841 614.683 153.568 612.378 162.143 610.663L161.947 609.682C153.422 611.387 136.758 613.684 121.054 613.872C113.2 613.966 105.61 613.532 99.4058 612.243C93.1731 610.948 88.464 608.814 86.2167 605.611L85.3981 606.185ZM162.143 610.663C172.94 608.504 182.097 602.751 188.543 597.559C191.769 594.961 194.322 592.496 196.071 590.681C196.945 589.773 197.618 589.027 198.074 588.506C198.302 588.246 198.475 588.043 198.592 587.903C198.651 587.834 198.695 587.78 198.725 587.744C198.74 587.726 198.751 587.712 198.759 587.702C198.763 587.697 198.766 587.694 198.768 587.691C198.769 587.69 198.77 587.689 198.77 587.688C198.771 587.688 198.771 587.687 198.771 587.687C198.771 587.687 198.771 587.687 198.382 587.373C197.993 587.059 197.993 587.058 197.993 587.058C197.993 587.059 197.993 587.059 197.993 587.059C197.993 587.059 197.992 587.06 197.991 587.061C197.99 587.063 197.987 587.066 197.984 587.07C197.977 587.078 197.967 587.091 197.953 587.108C197.925 587.142 197.883 587.193 197.826 587.26C197.714 587.394 197.545 587.593 197.322 587.848C196.875 588.357 196.213 589.092 195.35 589.987C193.625 591.779 191.102 594.213 187.916 596.78C181.537 601.919 172.525 607.567 161.947 609.682L162.143 610.663ZM198.862 587.515C199.815 584.298 201.068 579.466 201.726 575.43C202.054 573.418 202.24 571.569 202.155 570.208C202.112 569.534 202.001 568.926 201.77 568.472C201.527 567.993 201.117 567.635 200.52 567.635V568.635C200.636 568.635 200.753 568.678 200.879 568.925C201.017 569.198 201.117 569.642 201.156 570.271C201.234 571.515 201.064 573.273 200.739 575.269C200.091 579.248 198.85 584.035 197.903 587.231L198.862 587.515ZM200.52 567.635C199.944 567.635 199.372 567.863 198.833 568.203C198.289 568.546 197.743 569.025 197.209 569.582C196.141 570.696 195.074 572.174 194.131 573.656C193.186 575.141 192.354 576.648 191.757 577.829C191.459 578.42 191.218 578.933 191.05 579.326C190.966 579.521 190.898 579.692 190.85 579.83C190.826 579.899 190.805 579.965 190.79 580.026C190.776 580.077 190.757 580.16 190.757 580.248H191.757C191.757 580.291 191.75 580.308 191.758 580.274C191.764 580.25 191.776 580.212 191.795 580.158C191.832 580.051 191.89 579.904 191.969 579.72C192.126 579.352 192.358 578.858 192.65 578.28C193.234 577.124 194.049 575.646 194.975 574.193C195.902 572.736 196.928 571.319 197.931 570.274C198.432 569.751 198.915 569.333 199.366 569.049C199.82 568.763 200.205 568.635 200.52 568.635V567.635ZM190.757 580.248C190.757 580.192 190.769 580.106 190.823 580.016C190.881 579.921 190.962 579.862 191.038 579.83C191.107 579.802 191.165 579.798 191.193 579.798C191.223 579.797 191.243 579.801 191.247 579.802C191.249 579.802 191.199 579.789 191.07 579.725C190.832 579.608 190.47 579.395 189.997 579.1C189.05 578.509 187.755 577.653 186.271 576.709C183.347 574.848 179.722 572.666 177.145 571.929L176.87 572.891C179.281 573.58 182.78 575.672 185.734 577.552C187.19 578.478 188.522 579.359 189.468 579.948C189.94 580.243 190.341 580.481 190.629 580.623C190.763 580.689 190.917 580.756 191.057 580.784C191.115 580.795 191.264 580.82 191.423 580.753C191.517 580.714 191.612 580.644 191.678 580.535C191.742 580.43 191.757 580.325 191.757 580.248H190.757ZM177.145 571.929C174.613 571.206 169.594 570.312 164.511 569.687C159.438 569.064 154.215 568.699 151.295 569.064L151.419 570.056C154.2 569.709 159.308 570.056 164.389 570.68C169.458 571.302 174.415 572.189 176.87 572.891L177.145 571.929ZM151.295 569.064C149.783 569.253 147.442 570.179 144.753 571.374C142.064 572.57 138.872 574.107 135.744 575.517C132.586 576.94 129.426 578.265 126.665 579.101C125.284 579.519 124.016 579.811 122.907 579.934C121.792 580.058 120.871 580.008 120.166 579.773L119.849 580.722C120.747 581.021 121.83 581.06 123.017 580.928C124.209 580.796 125.541 580.486 126.954 580.058C129.781 579.202 132.99 577.855 136.155 576.429C139.351 574.988 142.438 573.498 145.159 572.288C147.88 571.079 150.082 570.224 151.419 570.056L151.295 569.064ZM120.166 579.773C116.963 578.706 114.373 577.654 112.489 576.278C110.629 574.918 109.467 573.248 109.101 570.908L108.113 571.062C108.526 573.7 109.857 575.592 111.899 577.085C113.918 578.561 116.639 579.652 119.849 580.722L120.166 579.773ZM109.101 570.908C107.322 559.519 106.974 552.981 107.501 548.06C108.028 543.146 109.426 539.828 111.216 534.816L110.274 534.48C108.502 539.442 107.049 542.893 106.507 547.954C105.966 553.008 106.33 559.652 108.113 571.062L109.101 570.908ZM62.8242 511.645C64.1841 512.128 65.4873 513.648 66.714 516.179C67.9279 518.683 69.0126 522.06 70.0018 526.065C71.9794 534.07 73.5522 544.484 75.0342 555.208C76.5145 565.92 77.9041 576.941 79.5142 586.119C80.3195 590.71 81.182 594.852 82.1422 598.274C83.0989 601.684 84.1651 604.428 85.3981 606.185L86.2167 605.611C85.0857 603.998 84.0556 601.393 83.105 598.004C82.1578 594.628 81.302 590.523 80.4992 585.947C78.8932 576.792 77.5078 565.803 76.0248 555.071C74.5434 544.352 72.9645 533.889 70.9726 525.825C69.977 521.795 68.8725 518.339 67.6139 515.743C66.3683 513.173 64.9158 511.326 63.1584 510.703L62.8242 511.645ZM111.216 534.816C111.897 532.909 113.202 530.585 114.766 528.124C116.327 525.669 118.125 523.111 119.778 520.735C121.424 518.368 122.934 516.17 123.896 514.463C124.375 513.613 124.737 512.852 124.906 512.233C124.989 511.924 125.035 511.615 125.001 511.331C124.965 511.034 124.837 510.746 124.567 510.547L123.974 511.353C123.979 511.357 123.982 511.36 123.987 511.368C123.992 511.378 124.002 511.403 124.008 511.451C124.021 511.555 124.008 511.722 123.941 511.97C123.806 512.465 123.494 513.139 123.025 513.972C122.091 515.63 120.611 517.786 118.957 520.164C117.309 522.532 115.497 525.111 113.922 527.588C112.351 530.059 110.995 532.461 110.274 534.48L111.216 534.816ZM186.571 599.097C190.397 596.208 193.443 593.359 195.534 591.232C196.58 590.169 197.387 589.285 197.934 588.666C198.207 588.356 198.416 588.113 198.556 587.946C198.626 587.863 198.68 587.799 198.716 587.755C198.734 587.733 198.747 587.716 198.757 587.705C198.761 587.699 198.765 587.695 198.767 587.692C198.769 587.69 198.77 587.689 198.77 587.688C198.771 587.688 198.771 587.688 198.771 587.687C198.771 587.687 198.771 587.687 198.771 587.687C198.771 587.687 198.771 587.687 198.382 587.373C197.993 587.059 197.993 587.058 197.993 587.058C197.993 587.058 197.993 587.058 197.993 587.059C197.993 587.059 197.993 587.059 197.993 587.059C197.993 587.06 197.992 587.06 197.991 587.062C197.989 587.064 197.986 587.068 197.982 587.073C197.974 587.083 197.961 587.098 197.944 587.119C197.91 587.16 197.859 587.221 197.792 587.302C197.656 587.463 197.452 587.7 197.184 588.004C196.648 588.611 195.853 589.482 194.821 590.531C192.757 592.631 189.747 595.446 185.969 598.299L186.571 599.097ZM176.513 572.336C176.03 575.571 175.922 580.769 177.163 585.898C178.403 591.026 181.01 596.154 186.014 599.128L186.525 598.269C181.84 595.484 179.341 590.649 178.135 585.663C176.929 580.679 177.035 575.613 177.502 572.484L176.513 572.336ZM80.5625 591.756C81.6598 596.698 82.9167 600.977 84.418 604.227C85.9091 607.456 87.6906 609.779 89.9012 610.639L90.2636 609.707C88.4332 608.995 86.7932 606.985 85.3258 603.808C83.8687 600.653 82.6302 596.455 81.5387 591.539L80.5625 591.756ZM89.9012 610.639C95.0273 612.632 105.34 614.246 116.944 615.268L117.032 614.271C105.417 613.249 95.2396 611.642 90.2636 609.707L89.9012 610.639ZM81.0673 592.147C91.3759 591.803 98.5135 592.702 103.924 596.041C109.323 599.373 113.095 605.194 116.516 614.935L117.46 614.604C114.012 604.787 110.14 598.702 104.45 595.19C98.7715 591.686 91.3748 590.802 81.0339 591.148L81.0673 592.147ZM176.87 572.891C178.338 573.31 180.227 574.258 182.168 575.375C184.1 576.488 186.045 577.746 187.623 578.767L188.166 577.927C186.592 576.909 184.625 575.636 182.667 574.509C180.717 573.386 178.739 572.385 177.145 571.929L176.87 572.891ZM187.623 578.767C188.61 579.405 189.461 579.956 190.066 580.312C190.363 580.487 190.625 580.63 190.823 580.71C190.908 580.745 191.045 580.795 191.187 580.798C191.259 580.799 191.409 580.789 191.549 580.68C191.712 580.553 191.757 580.376 191.757 580.248H190.757C190.757 580.154 190.793 580.002 190.934 579.891C191.052 579.799 191.171 579.797 191.201 579.798C191.26 579.799 191.274 579.814 191.199 579.784C191.076 579.734 190.869 579.625 190.573 579.451C189.991 579.108 189.161 578.571 188.166 577.927L187.623 578.767ZM62.5037 511.285C62.5706 511.579 62.8021 511.766 62.9732 511.877C63.1653 512 63.4119 512.109 63.6897 512.209C64.2491 512.408 65.0256 512.599 65.9709 512.782C67.8673 513.148 70.5182 513.496 73.6457 513.807C79.9045 514.429 88.1163 514.908 96.1171 515.093C104.114 515.278 111.922 515.169 117.364 514.609C120.072 514.331 122.25 513.936 123.574 513.385C124.216 513.117 124.78 512.764 125.024 512.26C125.157 511.988 125.186 511.691 125.105 511.392C125.028 511.107 124.857 510.846 124.636 510.609L123.905 511.291C124.057 511.455 124.119 511.576 124.14 511.654C124.158 511.719 124.152 511.768 124.125 511.823C124.051 511.975 123.796 512.209 123.189 512.462C122.014 512.951 119.966 513.336 117.262 513.614C111.883 514.167 104.125 514.278 96.1402 514.093C88.1596 513.909 79.9736 513.431 73.7446 512.812C70.6281 512.502 68.0125 512.158 66.1607 511.8C65.232 511.621 64.5139 511.441 64.0259 511.267C63.78 511.179 63.6147 511.1 63.5151 511.036C63.3946 510.958 63.4547 510.957 63.4788 511.063L62.5037 511.285ZM63.4788 511.063C63.3581 510.532 63.5498 509.964 64.1188 509.36C64.6906 508.754 65.5946 508.171 66.7322 507.665C69.0031 506.655 72.0688 506.011 74.8502 506.035L74.8588 505.035C71.9404 505.01 68.7326 505.681 66.3259 506.751C65.1248 507.285 64.089 507.934 63.3911 508.674C62.6905 509.418 62.2826 510.312 62.5037 511.285L63.4788 511.063ZM124.636 510.609C122.827 508.67 120.997 507.405 118.896 506.561C116.805 505.72 114.47 505.307 111.67 505.037L111.574 506.033C114.339 506.299 116.563 506.701 118.523 507.489C120.474 508.273 122.186 509.448 123.905 511.291L124.636 510.609ZM75.8542 469.495C80.2739 470.843 84.1383 471.28 87.6702 470.806C91.2068 470.331 94.3788 468.948 97.417 466.701C103.465 462.229 109.015 454.308 115.924 443.265L115.076 442.735C108.151 453.804 102.694 461.556 96.8225 465.897C93.9008 468.057 90.8847 469.365 87.5372 469.815C84.1851 470.264 80.4695 469.857 76.1458 468.539L75.8542 469.495ZM115.001 442.967L110.427 512.502L111.424 512.568L115.999 443.033L115.001 442.967ZM110.918 512.035C96.8224 512.239 88.828 512.007 74.4592 511.036L74.3918 512.034C88.7863 513.006 96.808 513.239 110.933 513.035L110.918 512.035ZM74.9251 511.554L76.4997 469.036L75.5003 468.999L73.9258 511.517L74.9251 511.554ZM87.2324 476.223C86.7682 476.408 86.7682 476.408 86.7682 476.408C86.7682 476.408 86.7683 476.409 86.7683 476.409C86.7684 476.409 86.7686 476.409 86.7687 476.41C86.7691 476.411 86.7696 476.412 86.7703 476.414C86.7717 476.417 86.7738 476.422 86.7765 476.429C86.782 476.443 86.7901 476.463 86.8007 476.489C86.8218 476.542 86.8529 476.619 86.8927 476.718C86.9723 476.914 87.0867 477.196 87.2262 477.537C87.5051 478.217 87.8847 479.133 88.2869 480.071C88.6886 481.008 89.1148 481.973 89.4866 482.751C89.6723 483.139 89.847 483.486 90.0002 483.762C90.1428 484.018 90.2957 484.268 90.4414 484.414L91.1485 483.707C91.116 483.674 91.024 483.545 90.8744 483.276C90.7353 483.026 90.5705 482.699 90.3888 482.319C90.0258 481.56 89.6059 480.61 89.2061 479.677C88.8067 478.745 88.4292 477.835 88.1515 477.157C88.0127 476.819 87.8989 476.538 87.8198 476.343C87.7803 476.245 87.7495 476.168 87.7285 476.116C87.7181 476.09 87.7101 476.07 87.7047 476.057C87.702 476.05 87.7 476.045 87.6987 476.042C87.698 476.04 87.6975 476.039 87.6971 476.038C87.697 476.038 87.6969 476.037 87.6968 476.037C87.6967 476.037 87.6967 476.037 87.6967 476.037C87.6967 476.037 87.6967 476.037 87.2324 476.223ZM90.4414 484.414C90.6015 484.574 90.8268 484.647 91.0602 484.592C91.248 484.547 91.3874 484.431 91.4755 484.343C91.6582 484.16 91.8288 483.883 91.9827 483.593C92.2999 482.994 92.6433 482.143 92.9563 481.294C93.2713 480.439 93.5631 479.563 93.7757 478.903C93.8822 478.572 93.969 478.295 94.0294 478.1C94.0595 478.003 94.0831 477.926 94.0991 477.873C94.1071 477.847 94.1133 477.826 94.1174 477.813C94.1195 477.806 94.1211 477.8 94.1222 477.797C94.1227 477.795 94.1231 477.794 94.1234 477.793C94.1235 477.792 94.1236 477.792 94.1237 477.792C94.1237 477.792 94.1238 477.791 94.1238 477.791C94.1238 477.791 94.1238 477.791 93.6449 477.648C93.166 477.504 93.166 477.504 93.166 477.504C93.166 477.504 93.166 477.504 93.166 477.504C93.1659 477.504 93.1658 477.505 93.1657 477.505C93.1655 477.506 93.1651 477.507 93.1646 477.509C93.1636 477.512 93.1621 477.517 93.1601 477.523C93.1562 477.537 93.1502 477.556 93.1424 477.582C93.1268 477.633 93.1037 477.709 93.074 477.805C93.0147 477.996 92.929 478.27 92.8239 478.596C92.6135 479.25 92.3264 480.111 92.0179 480.948C91.7075 481.791 91.3829 482.588 91.0989 483.125C90.9523 483.402 90.839 483.565 90.7684 483.636C90.7299 483.674 90.7502 483.638 90.8285 483.619C90.9523 483.59 91.0774 483.635 91.1485 483.707L90.4414 484.414ZM93.6449 477.648C93.1783 477.827 93.1783 477.827 93.1783 477.827C93.1783 477.827 93.1784 477.827 93.1784 477.828C93.1786 477.828 93.1787 477.828 93.179 477.829C93.1794 477.83 93.1801 477.832 93.181 477.834C93.1827 477.839 93.1853 477.845 93.1888 477.854C93.1956 477.872 93.2058 477.898 93.2191 477.933C93.2457 478.001 93.2849 478.102 93.3352 478.231C93.4358 478.488 93.5809 478.856 93.7596 479.303C94.1168 480.196 94.6083 481.402 95.1447 482.654C95.6807 483.905 96.264 485.206 96.8047 486.288C97.075 486.828 97.3374 487.319 97.5802 487.724C97.8178 488.12 98.0551 488.465 98.2789 488.689L98.986 487.982C98.8535 487.849 98.6678 487.593 98.4377 487.209C98.213 486.835 97.9633 486.369 97.6992 485.84C97.1712 484.784 96.5967 483.503 96.0639 482.26C95.5316 481.018 95.0434 479.82 94.6881 478.931C94.5105 478.487 94.3662 478.121 94.2664 477.866C94.2165 477.739 94.1777 477.639 94.1515 477.571C94.1383 477.537 94.1283 477.511 94.1216 477.494C94.1183 477.485 94.1157 477.479 94.1141 477.475C94.1132 477.472 94.1126 477.471 94.1122 477.47C94.112 477.469 94.1118 477.469 94.1117 477.468C94.1117 477.468 94.1116 477.468 94.1116 477.468C94.1116 477.468 94.1116 477.468 93.6449 477.648ZM98.2789 488.689C98.4493 488.859 98.7068 488.993 99.0138 488.921C99.2738 488.859 99.452 488.673 99.564 488.524C99.795 488.216 99.9879 487.731 100.156 487.193C100.501 486.089 100.817 484.501 101.085 482.895C101.354 481.283 101.577 479.628 101.734 478.378C101.812 477.752 101.873 477.227 101.915 476.858C101.936 476.673 101.952 476.528 101.963 476.429C101.969 476.379 101.973 476.341 101.975 476.315C101.977 476.302 101.978 476.292 101.979 476.285C101.979 476.282 101.979 476.279 101.979 476.278C101.979 476.277 101.98 476.276 101.98 476.276C101.98 476.275 101.98 476.275 101.98 476.275C101.98 476.275 101.98 476.275 101.482 476.223C100.985 476.17 100.985 476.17 100.985 476.17C100.985 476.17 100.985 476.171 100.985 476.171C100.985 476.171 100.985 476.172 100.985 476.172C100.985 476.174 100.985 476.176 100.984 476.18C100.984 476.186 100.982 476.195 100.981 476.208C100.978 476.233 100.974 476.271 100.969 476.32C100.958 476.418 100.942 476.562 100.922 476.745C100.88 477.111 100.819 477.632 100.741 478.254C100.586 479.497 100.364 481.137 100.099 482.731C99.8319 484.331 99.5247 485.861 99.2017 486.895C99.0359 487.425 98.8837 487.764 98.764 487.924C98.7007 488.008 98.7022 487.967 98.7847 487.947C98.9143 487.917 98.9937 487.989 98.986 487.982L98.2789 488.689ZM101.482 476.223C101.008 476.381 101.008 476.381 101.008 476.381C101.008 476.381 101.008 476.381 101.008 476.381C101.008 476.382 101.008 476.382 101.009 476.383C101.009 476.384 101.01 476.385 101.01 476.387C101.012 476.392 101.014 476.398 101.017 476.406C101.022 476.423 101.03 476.447 101.041 476.478C101.062 476.541 101.093 476.633 101.133 476.75C101.213 476.982 101.328 477.313 101.468 477.704C101.748 478.487 102.129 479.519 102.534 480.509C102.935 481.49 103.371 482.458 103.761 483.096C103.945 483.397 104.163 483.702 104.41 483.867C104.54 483.953 104.757 484.053 105.014 483.986C105.271 483.919 105.416 483.724 105.492 483.571L104.598 483.124C104.585 483.15 104.624 483.054 104.761 483.019C104.898 482.983 104.98 483.045 104.965 483.035C104.919 483.004 104.798 482.875 104.614 482.575C104.27 482.011 103.859 481.108 103.459 480.13C103.062 479.16 102.687 478.144 102.41 477.368C102.271 476.981 102.158 476.654 102.079 476.425C102.04 476.31 102.009 476.22 101.988 476.158C101.978 476.127 101.97 476.104 101.965 476.088C101.962 476.08 101.96 476.074 101.959 476.07C101.958 476.068 101.958 476.067 101.957 476.066C101.957 476.065 101.957 476.065 101.957 476.065C101.957 476.065 101.957 476.065 101.957 476.065C101.957 476.064 101.957 476.064 101.482 476.223ZM105.492 483.571C105.867 482.821 106.771 480.285 107.566 477.989C107.967 476.83 108.346 475.715 108.625 474.891C108.764 474.479 108.878 474.139 108.958 473.902C108.997 473.783 109.028 473.691 109.049 473.627C109.06 473.596 109.068 473.572 109.074 473.555C109.076 473.547 109.078 473.541 109.08 473.537C109.08 473.535 109.081 473.533 109.081 473.532C109.081 473.532 109.082 473.531 109.082 473.531C109.082 473.531 109.082 473.531 109.082 473.531C109.082 473.531 109.082 473.531 108.607 473.373C108.133 473.214 108.133 473.215 108.133 473.215C108.133 473.215 108.133 473.215 108.133 473.215C108.133 473.215 108.133 473.215 108.133 473.216C108.132 473.217 108.132 473.219 108.131 473.221C108.13 473.225 108.128 473.231 108.125 473.239C108.12 473.255 108.112 473.279 108.101 473.31C108.08 473.373 108.049 473.466 108.01 473.584C107.93 473.82 107.816 474.159 107.677 474.571C107.399 475.394 107.021 476.506 106.621 477.662C105.812 479.998 104.935 482.449 104.598 483.124L105.492 483.571ZM271.423 606.185C273.903 609.721 278.95 611.918 285.227 613.222C291.532 614.532 299.203 614.966 307.09 614.872C322.866 614.683 339.592 612.378 348.167 610.663L347.971 609.682C339.446 611.387 322.782 613.684 307.078 613.872C299.225 613.966 291.634 613.532 285.43 612.243C279.198 610.948 274.488 608.814 272.241 605.611L271.423 606.185ZM348.167 610.663C358.964 608.504 368.122 602.751 374.567 597.559C377.793 594.961 380.347 592.496 382.095 590.681C382.969 589.773 383.643 589.027 384.098 588.506C384.326 588.246 384.5 588.043 384.617 587.903C384.675 587.834 384.719 587.78 384.749 587.744C384.764 587.726 384.776 587.712 384.783 587.702C384.787 587.697 384.79 587.694 384.792 587.691C384.793 587.69 384.794 587.689 384.795 587.688C384.795 587.688 384.795 587.687 384.795 587.687C384.796 587.687 384.796 587.687 384.407 587.373C384.018 587.059 384.018 587.058 384.018 587.058C384.018 587.059 384.018 587.059 384.018 587.059C384.017 587.059 384.017 587.06 384.016 587.061C384.014 587.063 384.012 587.066 384.008 587.07C384.002 587.078 383.991 587.091 383.977 587.108C383.949 587.142 383.907 587.193 383.851 587.26C383.738 587.394 383.569 587.593 383.346 587.848C382.9 588.357 382.237 589.092 381.375 589.987C379.65 591.779 377.127 594.213 373.94 596.78C367.561 601.919 358.55 607.567 347.971 609.682L348.167 610.663ZM384.886 587.515C385.839 584.298 387.092 579.466 387.75 575.43C388.078 573.418 388.264 571.569 388.179 570.208C388.137 569.534 388.025 568.926 387.794 568.472C387.551 567.993 387.141 567.635 386.544 567.635V568.635C386.66 568.635 386.777 568.678 386.903 568.925C387.041 569.198 387.142 569.642 387.181 570.271C387.259 571.515 387.089 573.273 386.763 575.269C386.115 579.248 384.874 584.035 383.927 587.231L384.886 587.515ZM386.544 567.635C385.969 567.635 385.396 567.863 384.857 568.203C384.314 568.546 383.767 569.025 383.233 569.582C382.165 570.696 381.098 572.174 380.155 573.656C379.21 575.141 378.378 576.648 377.782 577.829C377.484 578.42 377.242 578.933 377.074 579.326C376.99 579.521 376.922 579.692 376.874 579.83C376.851 579.899 376.83 579.965 376.814 580.026C376.801 580.077 376.782 580.16 376.782 580.248H377.782C377.782 580.291 377.774 580.308 377.783 580.274C377.789 580.25 377.8 580.212 377.819 580.158C377.856 580.051 377.914 579.904 377.993 579.72C378.151 579.352 378.383 578.858 378.674 578.28C379.258 577.124 380.074 575.646 380.999 574.193C381.926 572.736 382.952 571.319 383.955 570.274C384.456 569.751 384.94 569.333 385.39 569.049C385.844 568.763 386.229 568.635 386.544 568.635V567.635ZM376.782 580.248C376.782 580.192 376.793 580.106 376.848 580.016C376.905 579.921 376.987 579.862 377.063 579.83C377.132 579.802 377.19 579.798 377.218 579.798C377.248 579.797 377.267 579.801 377.272 579.802C377.274 579.802 377.223 579.789 377.095 579.725C376.857 579.608 376.495 579.395 376.021 579.1C375.074 578.509 373.779 577.653 372.296 576.709C369.372 574.848 365.746 572.666 363.169 571.929L362.895 572.891C365.305 573.58 368.805 575.672 371.759 577.552C373.214 578.478 374.547 579.359 375.492 579.948C375.965 580.243 376.365 580.481 376.653 580.623C376.788 580.689 376.941 580.756 377.081 580.784C377.14 580.795 377.289 580.82 377.448 580.753C377.541 580.714 377.636 580.644 377.702 580.535C377.766 580.43 377.782 580.325 377.782 580.248H376.782ZM363.169 571.929C360.637 571.206 355.619 570.312 350.535 569.687C345.462 569.064 340.239 568.699 337.32 569.064L337.444 570.056C340.225 569.709 345.333 570.056 350.413 570.68C355.483 571.302 360.439 572.189 362.895 572.891L363.169 571.929ZM337.32 569.064C335.808 569.253 333.467 570.179 330.777 571.374C328.088 572.57 324.896 574.107 321.769 575.517C318.61 576.94 315.451 578.265 312.689 579.101C311.309 579.519 310.041 579.811 308.931 579.934C307.816 580.058 306.895 580.008 306.19 579.773L305.874 580.722C306.772 581.021 307.855 581.06 309.041 580.928C310.233 580.796 311.565 580.486 312.979 580.058C315.806 579.202 319.014 577.855 322.179 576.429C325.375 574.988 328.462 573.498 331.184 572.288C333.905 571.079 336.106 570.224 337.444 570.056L337.32 569.064ZM306.19 579.773C302.987 578.706 300.397 577.654 298.514 576.278C296.654 574.918 295.491 573.248 295.126 570.908L294.138 571.062C294.55 573.7 295.882 575.592 297.924 577.085C299.943 578.561 302.664 579.652 305.874 580.722L306.19 579.773ZM295.126 570.908C293.346 559.519 292.999 552.981 293.526 548.06C294.052 543.146 295.45 539.828 297.24 534.816L296.298 534.48C294.526 539.442 293.074 542.893 292.532 547.954C291.99 553.008 292.355 559.652 294.138 571.062L295.126 570.908ZM248.849 511.645C250.209 512.128 251.512 513.648 252.738 516.179C253.952 518.683 255.037 522.06 256.026 526.065C258.004 534.07 259.577 544.484 261.059 555.208C262.539 565.92 263.928 576.941 265.539 586.119C266.344 590.71 267.206 594.852 268.167 598.274C269.123 601.684 270.19 604.428 271.423 606.185L272.241 605.611C271.11 603.998 270.08 601.393 269.129 598.004C268.182 594.628 267.326 590.523 266.524 585.947C264.918 576.792 263.532 565.803 262.049 555.071C260.568 544.352 258.989 533.889 256.997 525.825C256.001 521.795 254.897 518.339 253.638 515.743C252.393 513.173 250.94 511.326 249.183 510.703L248.849 511.645ZM297.24 534.816C297.952 532.823 298.479 530.638 298.98 528.472C299.483 526.296 299.96 524.142 300.576 522.165C301.813 518.192 303.554 515.127 306.954 514.108L306.667 513.15C302.752 514.323 300.875 517.842 299.621 521.867C298.992 523.89 298.505 526.089 298.005 528.247C297.504 530.416 296.988 532.548 296.298 534.48L297.24 534.816ZM372.596 599.097C376.421 596.208 379.468 593.359 381.559 591.232C382.604 590.169 383.411 589.285 383.958 588.666C384.232 588.356 384.44 588.113 384.581 587.946C384.651 587.863 384.704 587.799 384.74 587.755C384.758 587.733 384.772 587.716 384.781 587.705C384.786 587.699 384.789 587.695 384.792 587.692C384.793 587.69 384.794 587.689 384.795 587.688C384.795 587.688 384.795 587.688 384.795 587.687C384.796 587.687 384.796 587.687 384.796 587.687C384.796 587.687 384.796 587.687 384.407 587.373C384.018 587.059 384.018 587.058 384.018 587.058C384.018 587.058 384.018 587.058 384.018 587.059C384.018 587.059 384.018 587.059 384.017 587.059C384.017 587.06 384.016 587.06 384.015 587.062C384.013 587.064 384.01 587.068 384.006 587.073C383.998 587.083 383.986 587.098 383.969 587.119C383.935 587.16 383.884 587.221 383.816 587.302C383.68 587.463 383.477 587.7 383.209 588.004C382.673 588.611 381.877 589.482 380.845 590.531C378.781 592.631 375.771 595.446 371.993 598.299L372.596 599.097ZM362.537 572.336C362.054 575.571 361.946 580.769 363.187 585.898C364.427 591.026 367.034 596.154 372.039 599.128L372.55 598.269C367.864 595.484 365.365 590.649 364.159 585.663C362.954 580.679 363.059 575.613 363.526 572.484L362.537 572.336ZM266.587 591.756C267.684 596.698 268.941 600.977 270.442 604.227C271.933 607.456 273.715 609.779 275.926 610.639L276.288 609.707C274.458 608.995 272.818 606.985 271.35 603.808C269.893 600.653 268.655 596.455 267.563 591.539L266.587 591.756ZM275.926 610.639C281.052 612.632 291.365 614.246 302.969 615.268L303.056 614.271C291.442 613.249 281.264 611.642 276.288 609.707L275.926 610.639ZM267.092 592.147C277.4 591.803 284.538 592.702 289.949 596.041C295.348 599.373 299.12 605.194 302.541 614.935L303.484 614.604C300.037 604.787 296.165 598.702 290.474 595.19C284.796 591.686 277.399 590.802 267.058 591.148L267.092 592.147ZM362.895 572.891C364.363 573.31 366.251 574.258 368.192 575.375C370.124 576.488 372.07 577.746 373.647 578.767L374.19 577.927C372.616 576.909 370.649 575.636 368.691 574.509C366.742 573.386 364.763 572.385 363.169 571.929L362.895 572.891ZM373.647 578.767C374.634 579.406 375.486 579.956 376.09 580.312C376.387 580.487 376.65 580.63 376.847 580.71C376.933 580.745 377.069 580.795 377.211 580.798C377.284 580.799 377.434 580.789 377.573 580.68C377.736 580.553 377.782 580.376 377.782 580.248H376.782C376.782 580.154 376.817 580.002 376.959 579.891C377.077 579.799 377.195 579.797 377.226 579.798C377.285 579.799 377.298 579.814 377.223 579.784C377.1 579.734 376.893 579.625 376.597 579.451C376.016 579.108 375.186 578.571 374.19 577.927L373.647 578.767ZM248.528 511.285C248.595 511.579 248.826 511.766 248.998 511.877C249.19 512 249.436 512.109 249.714 512.209C250.274 512.408 251.05 512.599 251.995 512.782C253.892 513.148 256.543 513.496 259.67 513.807C265.929 514.429 274.141 514.908 282.142 515.093C290.138 515.278 297.946 515.169 303.389 514.609C306.097 514.331 308.275 513.936 309.598 513.385C310.241 513.117 310.804 512.764 311.049 512.26C311.181 511.988 311.21 511.691 311.129 511.392C311.052 511.107 310.882 510.846 310.66 510.609L309.929 511.291C310.082 511.455 310.143 511.576 310.164 511.654C310.182 511.719 310.176 511.768 310.149 511.823C310.076 511.975 309.821 512.209 309.214 512.462C308.038 512.951 305.99 513.336 303.287 513.614C297.907 514.167 290.149 514.278 282.165 514.093C274.184 513.909 265.998 513.431 259.769 512.812C256.653 512.502 254.037 512.158 252.185 511.8C251.256 511.621 250.538 511.441 250.05 511.267C249.804 511.179 249.639 511.1 249.54 511.036C249.419 510.958 249.479 510.957 249.503 511.063L248.528 511.285ZM249.503 511.063C249.389 510.56 249.6 509.998 250.254 509.381C250.904 508.767 251.916 508.18 253.163 507.671C255.652 506.656 258.933 506.011 261.716 506.035L261.725 505.035C258.808 505.01 255.395 505.681 252.785 506.745C251.483 507.277 250.345 507.92 249.568 508.654C248.794 509.384 248.301 510.285 248.528 511.285L249.503 511.063ZM310.66 510.609C307.005 506.69 302.529 505.576 296.929 505.037L296.833 506.033C302.362 506.564 306.529 507.645 309.929 511.291L310.66 510.609ZM270.251 466.227L296.539 460.647L296.331 459.669L270.043 465.249L270.251 466.227ZM295.935 460.163L296.45 512.54L297.45 512.53L296.935 460.153L295.935 460.163ZM296.943 512.035C282.847 512.239 274.852 512.007 260.484 511.036L260.416 512.034C274.811 513.006 282.832 513.239 296.957 513.035L296.943 512.035ZM260.939 511.639L270.636 465.842L269.658 465.634L259.961 511.431L260.939 511.639ZM273.257 476.223C272.793 476.408 272.793 476.408 272.793 476.408C272.793 476.408 272.793 476.409 272.793 476.409C272.793 476.409 272.793 476.409 272.793 476.41C272.794 476.411 272.794 476.412 272.795 476.414C272.796 476.417 272.798 476.422 272.801 476.429C272.806 476.443 272.815 476.463 272.825 476.489C272.846 476.542 272.877 476.619 272.917 476.718C272.997 476.914 273.111 477.196 273.251 477.537C273.53 478.217 273.909 479.133 274.311 480.071C274.713 481.008 275.139 481.973 275.511 482.751C275.697 483.139 275.871 483.486 276.025 483.762C276.167 484.018 276.32 484.268 276.466 484.414L277.173 483.707C277.14 483.674 277.048 483.545 276.899 483.276C276.76 483.026 276.595 482.699 276.413 482.319C276.05 481.56 275.63 480.61 275.23 479.677C274.831 478.745 274.454 477.835 274.176 477.157C274.037 476.819 273.923 476.538 273.844 476.343C273.805 476.245 273.774 476.168 273.753 476.116C273.742 476.09 273.734 476.07 273.729 476.057C273.726 476.05 273.724 476.045 273.723 476.042C273.722 476.04 273.722 476.039 273.722 476.038C273.721 476.038 273.721 476.037 273.721 476.037C273.721 476.037 273.721 476.037 273.721 476.037C273.721 476.037 273.721 476.037 273.257 476.223ZM276.466 484.414C276.626 484.574 276.851 484.647 277.085 484.592C277.272 484.547 277.412 484.431 277.5 484.343C277.683 484.16 277.853 483.883 278.007 483.593C278.324 482.994 278.668 482.143 278.981 481.294C279.296 480.439 279.587 479.563 279.8 478.903C279.907 478.572 279.993 478.295 280.054 478.1C280.084 478.003 280.107 477.926 280.124 477.873C280.132 477.847 280.138 477.826 280.142 477.813C280.144 477.806 280.145 477.8 280.147 477.797C280.147 477.795 280.148 477.794 280.148 477.793C280.148 477.792 280.148 477.792 280.148 477.792C280.148 477.792 280.148 477.791 280.148 477.791C280.148 477.791 280.148 477.791 279.669 477.648C279.19 477.504 279.19 477.504 279.19 477.504C279.19 477.504 279.19 477.504 279.19 477.504C279.19 477.504 279.19 477.505 279.19 477.505C279.19 477.506 279.19 477.507 279.189 477.509C279.188 477.512 279.187 477.517 279.185 477.523C279.181 477.537 279.175 477.556 279.167 477.582C279.151 477.633 279.128 477.709 279.098 477.805C279.039 477.996 278.953 478.27 278.848 478.596C278.638 479.25 278.351 480.111 278.042 480.948C277.732 481.791 277.407 482.588 277.123 483.125C276.977 483.402 276.863 483.565 276.793 483.636C276.754 483.674 276.775 483.638 276.853 483.619C276.977 483.59 277.102 483.635 277.173 483.707L276.466 484.414ZM279.669 477.648C279.203 477.827 279.203 477.827 279.203 477.827C279.203 477.827 279.203 477.827 279.203 477.828C279.203 477.828 279.203 477.828 279.203 477.829C279.204 477.83 279.204 477.832 279.205 477.834C279.207 477.839 279.21 477.845 279.213 477.854C279.22 477.872 279.23 477.898 279.244 477.933C279.27 478.001 279.309 478.102 279.36 478.231C279.46 478.488 279.605 478.856 279.784 479.303C280.141 480.196 280.633 481.402 281.169 482.654C281.705 483.905 282.288 485.206 282.829 486.288C283.099 486.828 283.362 487.319 283.605 487.724C283.842 488.12 284.079 488.465 284.303 488.689L285.01 487.982C284.878 487.849 284.692 487.593 284.462 487.209C284.237 486.835 283.988 486.369 283.724 485.84C283.196 484.784 282.621 483.503 282.088 482.26C281.556 481.018 281.068 479.82 280.712 478.931C280.535 478.487 280.391 478.121 280.291 477.866C280.241 477.739 280.202 477.639 280.176 477.571C280.163 477.537 280.153 477.511 280.146 477.494C280.143 477.485 280.14 477.479 280.138 477.475C280.138 477.472 280.137 477.471 280.137 477.47C280.136 477.469 280.136 477.469 280.136 477.468C280.136 477.468 280.136 477.468 280.136 477.468C280.136 477.468 280.136 477.468 279.669 477.648ZM284.303 488.689C284.474 488.859 284.731 488.993 285.038 488.921C285.298 488.859 285.476 488.673 285.588 488.524C285.819 488.216 286.012 487.731 286.181 487.193C286.526 486.089 286.842 484.501 287.109 482.895C287.378 481.283 287.602 479.628 287.758 478.378C287.836 477.752 287.898 477.227 287.94 476.858C287.961 476.673 287.977 476.528 287.988 476.429C287.993 476.379 287.997 476.341 288 476.315C288.001 476.302 288.002 476.292 288.003 476.285C288.003 476.282 288.004 476.279 288.004 476.278C288.004 476.277 288.004 476.276 288.004 476.276C288.004 476.275 288.004 476.275 288.004 476.275C288.004 476.275 288.004 476.275 287.507 476.223C287.01 476.17 287.01 476.17 287.01 476.17C287.01 476.17 287.01 476.171 287.01 476.171C287.009 476.171 287.009 476.172 287.009 476.172C287.009 476.174 287.009 476.176 287.009 476.18C287.008 476.186 287.007 476.195 287.006 476.208C287.003 476.233 286.999 476.271 286.993 476.32C286.983 476.418 286.967 476.562 286.946 476.745C286.904 477.111 286.843 477.632 286.766 478.254C286.61 479.497 286.389 481.137 286.123 482.731C285.856 484.331 285.549 485.861 285.226 486.895C285.06 487.425 284.908 487.764 284.788 487.924C284.725 488.008 284.727 487.967 284.809 487.947C284.939 487.917 285.018 487.989 285.01 487.982L284.303 488.689ZM287.507 476.223C287.033 476.381 287.033 476.381 287.033 476.381C287.033 476.381 287.033 476.381 287.033 476.381C287.033 476.382 287.033 476.382 287.033 476.383C287.033 476.384 287.034 476.385 287.035 476.387C287.036 476.392 287.038 476.398 287.041 476.406C287.047 476.423 287.055 476.447 287.065 476.478C287.087 476.541 287.118 476.633 287.158 476.75C287.238 476.982 287.352 477.313 287.492 477.704C287.772 478.487 288.153 479.519 288.558 480.509C288.96 481.49 289.395 482.458 289.785 483.096C289.969 483.397 290.188 483.702 290.434 483.867C290.565 483.953 290.782 484.053 291.038 483.986C291.296 483.919 291.44 483.724 291.517 483.571L290.622 483.124C290.609 483.15 290.648 483.054 290.786 483.019C290.922 482.983 291.005 483.045 290.989 483.035C290.943 483.004 290.822 482.875 290.639 482.575C290.294 482.011 289.884 481.108 289.484 480.13C289.087 479.16 288.711 478.144 288.434 477.368C288.296 476.981 288.182 476.654 288.104 476.425C288.064 476.31 288.034 476.22 288.013 476.158C288.002 476.127 287.994 476.104 287.989 476.088C287.986 476.08 287.984 476.074 287.983 476.07C287.982 476.068 287.982 476.067 287.982 476.066C287.981 476.065 287.981 476.065 287.981 476.065C287.981 476.065 287.981 476.065 287.981 476.065C287.981 476.064 287.981 476.064 287.507 476.223ZM291.517 483.571C291.892 482.821 292.796 480.285 293.59 477.989C293.992 476.83 294.371 475.715 294.649 474.891C294.788 474.479 294.903 474.139 294.982 473.902C295.022 473.783 295.053 473.691 295.074 473.627C295.084 473.596 295.092 473.572 295.098 473.555C295.101 473.547 295.103 473.541 295.104 473.537C295.105 473.535 295.105 473.533 295.106 473.532C295.106 473.532 295.106 473.531 295.106 473.531C295.106 473.531 295.106 473.531 295.106 473.531C295.106 473.531 295.106 473.531 294.632 473.373C294.158 473.214 294.157 473.215 294.157 473.215C294.157 473.215 294.157 473.215 294.157 473.215C294.157 473.215 294.157 473.215 294.157 473.216C294.157 473.217 294.156 473.219 294.155 473.221C294.154 473.225 294.152 473.231 294.149 473.239C294.144 473.255 294.136 473.279 294.125 473.31C294.104 473.373 294.074 473.466 294.034 473.584C293.955 473.82 293.841 474.159 293.702 474.571C293.424 475.394 293.046 476.506 292.645 477.662C291.837 479.998 290.96 482.449 290.622 483.124L291.517 483.571ZM15.5268 460.656C15.2561 463.14 15.5224 464.908 16.3874 465.958C17.2951 467.059 18.7084 467.208 20.2717 466.839C21.8392 466.468 23.7028 465.548 25.7279 464.292C27.761 463.03 29.9907 461.407 32.296 459.597C36.9055 455.978 41.8513 451.586 46.1712 447.797C50.5158 443.987 54.1871 440.823 56.2964 439.594L55.793 438.73C53.5782 440.02 49.8169 443.269 45.5118 447.045C41.1821 450.843 36.2612 455.212 31.6785 458.81C29.3877 460.609 27.19 462.207 25.2007 463.442C23.2034 464.681 21.4497 465.532 20.0414 465.865C18.6288 466.2 17.7078 465.987 17.1591 465.322C16.5678 464.604 16.2555 463.199 16.5209 460.764L15.5268 460.656ZM56.2964 439.594C57.0565 439.151 57.3733 439.236 57.5211 439.344C57.6211 439.417 57.7334 439.557 57.8398 439.812C57.9455 440.066 58.0318 440.401 58.0996 440.822C58.2355 441.664 58.2845 442.765 58.3131 444.067C58.3414 445.356 58.3497 446.838 58.41 448.391C58.6493 454.564 59.7112 462.36 66.5375 465.84L66.9917 464.949C60.7318 461.758 59.6501 454.564 59.4092 448.352C59.3494 446.809 59.3416 445.357 59.3128 444.045C59.2843 442.747 59.2351 441.582 59.0869 440.662C59.0126 440.202 58.9103 439.782 58.7629 439.428C58.616 439.075 58.4105 438.755 58.1098 438.536C57.4565 438.06 56.6411 438.236 55.793 438.73L56.2964 439.594ZM66.5375 465.84C73.0182 469.144 79.7223 471.055 86.098 470.578C92.4926 470.099 98.5126 467.219 103.599 461.028L102.826 460.393C97.9066 466.381 92.1351 469.122 86.0233 469.58C79.8927 470.04 73.3757 468.203 66.9917 464.949L66.5375 465.84ZM103.599 461.028C106.125 457.953 108.106 454.764 109.794 451.934C111.495 449.085 112.876 446.644 114.231 444.982C115.591 443.314 116.781 442.612 118.084 442.887C118.766 443.03 119.547 443.451 120.457 444.265C121.366 445.078 122.38 446.26 123.53 447.883L124.346 447.305C123.173 445.649 122.11 444.401 121.124 443.519C120.139 442.639 119.205 442.101 118.29 441.908C116.4 441.509 114.864 442.623 113.456 444.35C112.041 446.085 110.608 448.621 108.936 451.422C107.252 454.243 105.302 457.378 102.826 460.393L103.599 461.028ZM123.53 447.883C132.637 460.74 135.539 467.263 140.383 478.152L141.297 477.745C136.441 466.83 133.508 460.24 124.346 447.305L123.53 447.883ZM140.383 478.152L140.633 478.714L141.547 478.307L141.297 477.745L140.383 478.152ZM140.633 478.714C141.896 481.553 143.1 483.495 144.276 484.696C145.46 485.907 146.664 486.407 147.883 486.232C149.066 486.063 150.134 485.272 151.105 484.21C152.085 483.139 153.026 481.727 153.946 480.195C155.809 477.091 157.572 473.527 159.486 470.909C160.438 469.608 161.386 468.602 162.345 468.029C163.28 467.471 164.21 467.332 165.201 467.732L165.575 466.805C164.244 466.268 162.986 466.482 161.832 467.171C160.701 467.846 159.658 468.981 158.679 470.319C156.734 472.98 154.884 476.688 153.088 479.681C152.178 481.198 151.278 482.54 150.368 483.535C149.45 484.537 148.58 485.122 147.741 485.243C146.938 485.358 146.034 485.063 144.99 483.997C143.937 482.921 142.791 481.104 141.547 478.307L140.633 478.714ZM217.138 465.666C225.048 477.922 236.543 487.336 243.727 492.045L244.275 491.209C237.165 486.549 225.789 477.226 217.978 465.123L217.138 465.666ZM243.727 492.045C244.904 492.817 246.269 492.739 247.677 492.134C249.075 491.534 250.588 490.389 252.169 488.896C255.336 485.906 258.909 481.391 262.551 476.59C266.205 471.774 269.932 466.664 273.437 462.428C275.188 460.312 276.874 458.426 278.458 456.912C280.046 455.394 281.507 454.275 282.804 453.668L282.38 452.762C280.938 453.437 279.385 454.643 277.767 456.189C276.143 457.741 274.429 459.66 272.666 461.791C269.144 466.048 265.391 471.192 261.754 475.986C258.107 480.794 254.58 485.244 251.482 488.169C249.931 489.634 248.52 490.684 247.282 491.215C246.056 491.742 245.074 491.732 244.275 491.209L243.727 492.045ZM282.804 453.668C285.124 452.582 287.402 452.911 289.635 454.207C291.888 455.516 294.067 457.797 296.102 460.548C300.169 466.049 303.543 473.261 305.725 477.791L306.626 477.357C304.457 472.855 301.041 465.546 296.906 459.954C294.84 457.159 292.564 454.751 290.137 453.343C287.69 451.922 285.063 451.506 282.38 452.762L282.804 453.668ZM305.725 477.791C307.868 482.239 309.665 485.833 311.322 488.536C312.97 491.227 314.522 493.109 316.204 494.054C317.94 495.029 319.749 494.973 321.775 493.963C323.767 492.97 326.006 491.042 328.692 488.224L327.968 487.534C325.294 490.338 323.156 492.157 321.329 493.068C319.537 493.961 318.085 493.963 316.694 493.182C315.249 492.37 313.809 490.68 312.174 488.013C310.548 485.359 308.771 481.809 306.626 477.357L305.725 477.791ZM328.692 488.224C330.386 486.447 331.852 483.903 333.121 480.991C334.392 478.072 335.479 474.752 336.404 471.398C338.254 464.689 339.465 457.804 340.196 453.647L339.211 453.474C338.48 457.634 337.276 464.475 335.44 471.132C334.523 474.46 333.45 477.731 332.204 480.591C330.955 483.457 329.546 485.88 327.968 487.534L328.692 488.224ZM340.196 453.647L340.257 453.302L339.272 453.129L339.211 453.474L340.196 453.647ZM340.26 453.278C346.229 406.179 334.531 331.929 317.411 261.944C300.289 191.949 277.715 126.107 261.869 95.8034L260.982 96.2668C276.773 126.463 299.324 192.211 316.44 262.182C333.558 332.162 345.211 406.253 339.268 453.152L340.26 453.278ZM165.201 467.732C165.625 467.903 166.11 468.354 166.677 469.132C167.234 469.897 167.821 470.909 168.472 472.106C169.766 474.483 171.295 477.561 173.26 480.63C177.198 486.777 182.979 493.038 192.495 493.998L192.596 493.003C183.531 492.089 177.977 486.14 174.103 480.091C172.162 477.062 170.667 474.047 169.351 471.628C168.697 470.427 168.084 469.366 167.486 468.544C166.897 467.736 166.273 467.086 165.575 466.805L165.201 467.732ZM192.693 493.978C195.896 492.99 198.716 490.112 201.211 486.618C203.718 483.109 205.964 478.882 207.983 475.076C210.019 471.239 211.805 467.872 213.415 465.983C214.23 465.025 214.909 464.56 215.459 464.494C215.934 464.438 216.495 464.67 217.138 465.666L217.978 465.123C217.243 463.986 216.369 463.379 215.34 463.501C214.386 463.616 213.492 464.35 212.653 465.334C210.955 467.328 209.11 470.819 207.1 474.607C205.074 478.426 202.859 482.592 200.397 486.037C197.925 489.498 195.269 492.137 192.398 493.023L192.693 493.978ZM261.869 95.8034C245.948 65.3585 213.881 50.1586 182.369 50.4726C150.855 50.7866 119.811 66.6199 105.967 98.335L106.884 98.735C120.54 67.4502 151.177 51.7835 182.379 51.4725C213.583 51.1616 245.266 66.2116 260.982 96.2668L261.869 95.8034ZM105.967 98.335C81.4492 154.503 20.5249 255.279 15.524 460.698L16.5237 460.722C21.5191 255.532 82.351 154.937 106.884 98.735L105.967 98.335ZM250.878 82.2466C254.133 75.2779 256.791 69.806 259.304 65.5316C261.818 61.2576 264.17 58.2123 266.8 56.0771C272.031 51.83 278.48 51.0873 289.921 51.7721L289.981 50.7738C278.529 50.0885 271.724 50.7918 266.17 55.3007C263.407 57.5436 260.983 60.7039 258.442 65.0247C255.901 69.3451 253.226 74.8572 249.972 81.8235L250.878 82.2466ZM289.951 51.273C289.87 51.7664 289.87 51.7664 289.871 51.7665C289.871 51.7665 289.871 51.7666 289.872 51.7666C289.873 51.7668 289.874 51.7671 289.876 51.7674C289.88 51.768 289.886 51.769 289.894 51.7704C289.91 51.773 289.935 51.777 289.967 51.7823C290.031 51.7928 290.126 51.8086 290.25 51.8294C290.499 51.8711 290.866 51.9329 291.336 52.0134C292.276 52.1744 293.628 52.4102 295.277 52.7095C298.575 53.308 303.059 54.1598 307.805 55.1732C312.551 56.1868 317.552 57.3609 321.887 58.6034C326.239 59.8507 329.864 61.1526 331.897 62.4081L332.422 61.5574C330.26 60.2214 326.512 58.8887 322.163 57.6421C317.797 56.3906 312.77 55.2112 308.013 54.1952C303.255 53.1791 298.76 52.3252 295.455 51.7255C293.803 51.4256 292.447 51.1892 291.505 51.0277C291.034 50.947 290.665 50.885 290.415 50.8431C290.29 50.8222 290.194 50.8063 290.13 50.7957C290.097 50.7903 290.073 50.7863 290.056 50.7836C290.048 50.7822 290.042 50.7812 290.038 50.7805C290.036 50.7802 290.034 50.7799 290.033 50.7798C290.033 50.7797 290.032 50.7796 290.032 50.7796C290.032 50.7795 290.031 50.7795 289.951 51.273ZM331.897 62.4081C333.328 63.2928 334.895 63.3753 336.492 62.8722C338.072 62.3746 339.691 61.3035 341.297 59.8654C344.511 56.9879 347.792 52.5308 350.735 47.7918C353.683 43.0451 356.313 37.9827 358.219 33.8675C359.173 31.8099 359.947 29.9845 360.492 28.5502C360.764 27.8334 360.98 27.2095 361.132 26.7005C361.281 26.2035 361.38 25.7794 361.397 25.4783L360.398 25.4226C360.389 25.5968 360.321 25.9237 360.174 26.4139C360.031 26.8922 359.824 27.4919 359.557 28.1955C359.023 29.6018 358.258 31.4046 357.312 33.4471C355.419 37.5322 352.808 42.5579 349.885 47.2642C346.958 51.9781 343.737 56.3387 340.63 59.1204C339.076 60.512 337.58 61.481 336.191 61.9184C334.82 62.3504 333.564 62.263 332.422 61.5574L331.897 62.4081ZM361.397 25.4783C361.419 25.0904 361.249 24.6739 361.025 24.2816C360.791 23.8721 360.45 23.4112 360.028 22.9127C359.183 21.9143 357.969 20.7166 356.507 19.4065C353.578 16.7837 349.607 13.6721 345.473 10.7423C341.34 7.81288 337.029 5.05515 333.42 3.14492C331.617 2.19061 329.974 1.44013 328.608 0.987235C327.926 0.760809 327.299 0.604367 326.748 0.537152C326.203 0.470725 325.691 0.486274 325.264 0.641823L325.606 1.5816C325.824 1.50216 326.157 1.47254 326.626 1.5298C327.09 1.58628 327.648 1.72239 328.294 1.93642C329.585 2.36444 331.172 3.08652 332.952 4.02877C336.51 5.91168 340.782 8.64316 344.895 11.5581C349.007 14.4727 352.946 17.5606 355.839 20.1515C357.287 21.4482 358.463 22.611 359.265 23.5589C359.667 24.0336 359.965 24.4424 360.157 24.778C360.359 25.1309 360.403 25.3352 360.398 25.4226L361.397 25.4783ZM325.264 0.641823C324.505 0.917929 323.715 1.5595 322.93 2.39963C322.135 3.25033 321.302 4.35089 320.463 5.60951C318.784 8.1278 317.05 11.3212 315.51 14.5188C313.969 17.7175 312.616 20.9344 311.7 23.5047C311.243 24.7886 310.891 25.9208 310.68 26.8135C310.575 27.2591 310.502 27.656 310.471 27.9883C310.441 28.302 310.441 28.6255 310.534 28.8827L311.474 28.5407C311.461 28.5043 311.439 28.3699 311.466 28.0823C311.492 27.8131 311.554 27.4652 311.653 27.0433C311.852 26.2009 312.191 25.1072 312.642 23.8403C313.544 21.3091 314.883 18.1253 316.411 14.9527C317.939 11.7788 319.651 8.63021 321.295 6.16433C322.118 4.93087 322.917 3.8788 323.661 3.08241C324.415 2.27545 325.073 1.77546 325.606 1.5816L325.264 0.641823ZM310.534 28.8827C310.687 29.3029 311.082 29.7434 311.557 30.1667C312.051 30.6073 312.702 31.0897 313.462 31.5863C314.982 32.5807 316.974 33.6565 319.096 34.5969C321.217 35.5369 323.486 36.3489 325.562 36.8068C327.618 37.2601 329.567 37.3859 330.999 36.8649L330.656 35.9252C329.504 36.3448 327.79 36.2741 325.778 35.8302C323.786 35.3909 321.582 34.605 319.501 33.6826C317.42 32.7607 315.478 31.7098 314.009 30.7494C313.274 30.2687 312.667 29.8166 312.222 29.4203C311.758 29.0067 311.535 28.7079 311.474 28.5407L310.534 28.8827ZM330.999 36.8649C333.734 35.8694 336.19 33.1623 337.93 30.7941C338.81 29.5971 339.525 28.4609 340.02 27.6243C340.267 27.2057 340.46 26.8613 340.592 26.6208C340.658 26.5005 340.708 26.4061 340.742 26.3414C340.759 26.3091 340.773 26.2841 340.781 26.267C340.786 26.2585 340.789 26.2519 340.792 26.2473C340.793 26.245 340.794 26.2433 340.794 26.242C340.795 26.2414 340.795 26.2409 340.795 26.2405C340.795 26.2403 340.795 26.2401 340.795 26.24C340.795 26.2399 340.796 26.2398 340.35 26.0118C339.905 25.7839 339.905 25.7838 339.906 25.7838C339.905 25.7839 339.905 25.7839 339.905 25.7839C339.905 25.7841 339.905 25.7844 339.905 25.7848C339.905 25.7856 339.904 25.7869 339.903 25.7887C339.901 25.7923 339.898 25.798 339.894 25.8055C339.886 25.8207 339.874 25.8438 339.858 25.8741C339.826 25.9349 339.778 26.025 339.715 26.1409C339.588 26.3727 339.4 26.7072 339.159 27.1151C338.676 27.9314 337.979 29.0383 337.124 30.202C335.395 32.5551 333.09 35.0397 330.656 35.9252L330.999 36.8649ZM340.35 26.0118C340.179 25.542 340.18 25.542 340.18 25.542C340.179 25.542 340.179 25.542 340.179 25.542C340.179 25.5421 340.179 25.5423 340.178 25.5425C340.177 25.5429 340.175 25.5436 340.172 25.5445C340.167 25.5464 340.159 25.5492 340.149 25.553C340.128 25.5606 340.096 25.5719 340.053 25.5866C339.969 25.616 339.845 25.6588 339.685 25.7118C339.365 25.8179 338.906 25.9646 338.349 26.1262C337.233 26.4501 335.734 26.8316 334.188 27.0679C332.634 27.3055 331.072 27.3898 329.813 27.146C328.558 26.9028 327.707 26.3587 327.364 25.4176L326.424 25.7596C326.937 27.1678 328.195 27.8512 329.623 28.1278C331.048 28.4038 332.743 28.3003 334.339 28.0564C335.943 27.8112 337.488 27.4175 338.628 27.0866C339.199 26.9209 339.67 26.7703 340 26.6609C340.165 26.6062 340.294 26.5617 340.383 26.5308C340.427 26.5153 340.461 26.5032 340.485 26.4949C340.496 26.4907 340.505 26.4875 340.512 26.4853C340.515 26.4842 340.517 26.4833 340.519 26.4827C340.519 26.4824 340.52 26.4822 340.521 26.482C340.521 26.4819 340.521 26.4818 340.521 26.4818C340.521 26.4817 340.522 26.4817 340.35 26.0118ZM327.364 25.4176C326.531 23.1289 326.26 20.4911 327.351 18.3825C328.423 16.3103 330.898 14.5859 335.933 14.295L335.875 13.2967C330.64 13.5992 327.756 15.4219 326.463 17.9232C325.188 20.388 325.547 23.3499 326.424 25.7596L327.364 25.4176ZM343.032 38.1753C344.149 35.6633 345.222 33.3785 345.96 31.2611C346.699 29.1382 347.122 27.1299 346.91 25.1535C346.482 21.1579 343.498 17.5313 336.151 13.361L335.657 14.2307C342.943 18.3662 345.542 21.7718 345.916 25.26C346.105 27.0254 345.733 28.8718 345.016 30.9322C344.296 32.9981 343.25 35.2251 342.118 37.769L343.032 38.1753ZM342.319 37.5432C332.028 43.7025 323.234 46.9806 311.91 45.7583C300.547 44.5318 286.58 38.7684 265.976 26.6706L265.47 27.533C286.094 39.6426 300.216 45.5019 311.803 46.7526C323.43 48.0075 332.447 44.6171 342.832 38.4012L342.319 37.5432ZM265.447 26.6847L217.15 58.618L217.701 59.4521L265.998 27.5189L265.447 26.6847ZM217.253 59.5046C225.976 62.7003 231.338 64.6599 235.94 67.6886C240.528 70.7078 244.384 74.8075 250.025 82.3349L250.826 81.7352C245.164 74.1806 241.225 69.9692 236.49 66.8533C231.77 63.747 226.283 61.7477 217.597 58.5656L217.253 59.5046ZM115.803 84.5845C109.297 70.6531 104.123 62.3159 97.644 57.6633C91.1352 52.9897 83.3888 52.0873 71.918 52.7738L71.9778 53.7721C83.3986 53.0885 90.8453 54.0126 97.0607 58.4756C103.305 62.9596 108.387 71.0691 114.897 85.0077L115.803 84.5845ZM71.9479 53.273C71.8672 52.7795 71.8671 52.7795 71.8668 52.7796C71.8665 52.7796 71.8661 52.7797 71.8656 52.7798C71.8645 52.7799 71.863 52.7802 71.8609 52.7805C71.8567 52.7812 71.8505 52.7822 71.8423 52.7836C71.8258 52.7863 71.8014 52.7903 71.7691 52.7957C71.7046 52.8063 71.6088 52.8222 71.4836 52.8431C71.2332 52.885 70.8652 52.947 70.3939 53.0277C69.4514 53.1892 68.0959 53.4256 66.4433 53.7255C63.1384 54.3252 58.6436 55.1791 53.8853 56.1952C49.1283 57.2112 44.102 58.3906 39.7361 59.6421C35.3871 60.8887 31.6392 62.2214 29.4767 63.5574L30.0022 64.4081C32.0345 63.1526 35.6601 61.8507 40.0117 60.6034C44.3464 59.3609 49.3478 58.1868 54.0942 57.1732C58.8394 56.1598 63.3236 55.308 66.6219 54.7095C68.2709 54.4102 69.6231 54.1744 70.5628 54.0134C71.0326 53.9329 71.3994 53.8711 71.6485 53.8294C71.773 53.8086 71.8682 53.7928 71.9321 53.7823C71.9641 53.777 71.9883 53.773 72.0044 53.7704C72.0125 53.769 72.0186 53.768 72.0226 53.7674C72.0246 53.7671 72.0261 53.7668 72.0271 53.7666C72.0276 53.7666 72.0279 53.7665 72.0282 53.7665C72.0284 53.7664 72.0285 53.7664 71.9479 53.273ZM29.4767 63.5574C28.3344 64.263 27.0787 64.3504 25.7073 63.9184C24.3185 63.481 22.8227 62.512 21.2686 61.1204C18.1618 58.3387 14.9411 53.9781 12.0134 49.2642C9.09044 44.5579 6.47951 39.5322 4.58673 35.4471C3.64036 33.4046 2.87565 31.6018 2.34206 30.1955C2.07514 29.4919 1.86782 28.8922 1.72473 28.4139C1.57805 27.9237 1.51005 27.5968 1.50033 27.4226L0.50188 27.4783C0.518688 27.7794 0.617986 28.2035 0.766689 28.7005C0.91898 29.2095 1.13514 29.8334 1.40709 30.5502C1.95129 31.9845 2.72602 33.8099 3.67939 35.8675C5.58611 39.9827 8.21589 45.0451 11.1639 49.7918C14.1072 54.5308 17.3877 58.9879 20.6015 61.8654C22.2076 63.3035 23.827 64.3746 25.4068 64.8722C27.004 65.3753 28.5703 65.2928 30.0022 64.4081L29.4767 63.5574ZM1.50033 27.4226C1.49545 27.3352 1.53987 27.1309 1.74166 26.778C1.93355 26.4424 2.23161 26.0336 2.63355 25.5589C3.43612 24.611 4.61136 23.4482 6.05935 22.1515C8.9524 19.5606 12.8915 16.4727 17.0038 13.5581C21.1168 10.6432 25.3888 7.91168 28.9465 6.02877C30.7269 5.08652 32.3141 4.36444 33.605 3.93642C34.2505 3.72239 34.809 3.58628 35.2722 3.5298C35.742 3.47254 36.0748 3.50216 36.2932 3.5816L36.635 2.64182C36.2073 2.48627 35.6961 2.47073 35.1512 2.53715C34.5999 2.60437 33.9731 2.76081 33.2902 2.98723C31.9243 3.44013 30.2819 4.19061 28.4787 5.14492C24.8694 7.05515 20.5589 9.81288 16.4256 12.7423C12.2917 15.6721 8.32096 18.7837 5.39222 21.4065C3.92931 22.7166 2.71568 23.9143 1.87036 24.9127C1.44836 25.4112 1.10772 25.8721 0.873541 26.2816C0.649252 26.6739 0.480224 27.0904 0.50188 27.4783L1.50033 27.4226ZM36.2932 3.5816C36.8262 3.77546 37.4838 4.27545 38.2379 5.08241C38.9822 5.8788 39.7811 6.93087 40.6037 8.16433C42.2482 10.6302 43.9593 13.7788 45.4878 16.9527C47.0157 20.1253 48.3544 23.3091 49.2565 25.8403C49.7079 27.1072 50.0465 28.2009 50.2454 29.0433C50.3451 29.4652 50.4071 29.8131 50.4325 30.0823C50.4596 30.3699 50.438 30.5043 50.4248 30.5407L51.3645 30.8827C51.4581 30.6255 51.4577 30.302 51.428 29.9883C51.3967 29.656 51.3239 29.2591 51.2187 28.8135C51.0078 27.9208 50.656 26.7886 50.1984 25.5047C49.2825 22.9344 47.9293 19.7175 46.3888 16.5188C44.8489 13.3212 43.1151 10.1278 41.4357 7.60951C40.5963 6.35089 39.7636 5.25033 38.9686 4.39963C38.1834 3.5595 37.3942 2.91793 36.635 2.64182L36.2932 3.5816ZM50.4248 30.5407C50.3639 30.7079 50.1404 31.0067 49.6766 31.4203C49.2322 31.8166 48.6248 32.2687 47.8897 32.7494C46.4208 33.7098 44.4785 34.7607 42.3979 35.6826C40.3164 36.605 38.1128 37.3909 36.1211 37.8302C34.1087 38.2741 32.3951 38.3448 31.2423 37.9252L30.9003 38.8649C32.3316 39.3859 34.2811 39.2601 36.3365 38.8068C38.4126 38.3489 40.6816 37.5369 42.803 36.5969C44.9252 35.6565 46.9163 34.5807 48.4369 33.5863C49.1965 33.0896 49.8479 32.6073 50.3421 32.1667C50.8168 31.7434 51.2116 31.3029 51.3645 30.8827L50.4248 30.5407ZM31.2423 37.9252C28.8092 37.0397 26.5037 34.5551 24.7745 32.202C23.9195 31.0383 23.2227 29.9314 22.7397 29.1151C22.4984 28.7072 22.3109 28.3727 22.1841 28.1409C22.1207 28.025 22.0726 27.9349 22.0405 27.8741C22.0244 27.8438 22.0124 27.8207 22.0045 27.8055C22.0005 27.798 21.9976 27.7923 21.9957 27.7887C21.9948 27.7869 21.9941 27.7856 21.9937 27.7848C21.9935 27.7844 21.9934 27.7841 21.9933 27.7839C21.9932 27.7839 21.9932 27.7839 21.9932 27.7838C21.9932 27.7838 21.9933 27.7839 21.5482 28.0118C21.1032 28.2398 21.1033 28.2399 21.1034 28.24C21.1034 28.2401 21.1035 28.2403 21.1036 28.2405C21.1038 28.2409 21.104 28.2414 21.1044 28.242C21.105 28.2433 21.1059 28.245 21.1071 28.2473C21.1095 28.2519 21.1129 28.2585 21.1173 28.267C21.1262 28.2841 21.1393 28.3091 21.1564 28.3414C21.1906 28.4061 21.241 28.5005 21.3068 28.6208C21.4383 28.8613 21.6314 29.2057 21.8791 29.6243C22.3741 30.4609 23.0891 31.5971 23.9687 32.7941C25.709 35.1623 28.165 37.8694 30.9003 38.8649L31.2423 37.9252ZM21.5482 28.0118C21.3772 28.4817 21.3774 28.4817 21.3775 28.4818C21.3777 28.4818 21.3779 28.4819 21.3781 28.482C21.3786 28.4822 21.3793 28.4824 21.3801 28.4827C21.3818 28.4833 21.3842 28.4842 21.3872 28.4853C21.3934 28.4875 21.4024 28.4907 21.414 28.4949C21.4373 28.5032 21.4715 28.5153 21.5158 28.5308C21.6045 28.5617 21.7339 28.6062 21.8988 28.6609C22.2284 28.7703 22.7 28.9209 23.2709 29.0866C24.411 29.4175 25.9553 29.8112 27.5595 30.0564C29.1555 30.3003 30.8506 30.4038 32.2756 30.1278C33.7035 29.8512 34.9618 29.1678 35.4743 27.7596L34.5346 27.4176C34.1921 28.3587 33.3409 28.9028 32.0854 29.146C30.827 29.3898 29.2649 29.3055 27.7106 29.0679C26.1645 28.8316 24.6655 28.4501 23.5497 28.1262C22.9927 27.9646 22.5333 27.8179 22.2138 27.7118C22.0541 27.6588 21.9295 27.616 21.8453 27.5866C21.8032 27.5719 21.7712 27.5606 21.75 27.553C21.7393 27.5492 21.7314 27.5464 21.7263 27.5445C21.7237 27.5436 21.7218 27.5429 21.7207 27.5425C21.7201 27.5423 21.7197 27.5421 21.7194 27.542C21.7193 27.542 21.7193 27.542 21.7192 27.542C21.7192 27.542 21.7193 27.542 21.5482 28.0118ZM35.4743 27.7596C36.3514 25.3499 36.7107 22.388 35.436 19.9232C34.1425 17.4219 31.2583 15.5992 26.0233 15.2967L25.9657 16.295C31.0004 16.5859 33.4762 18.3103 34.5478 20.3825C35.6382 22.4911 35.3677 25.1289 34.5346 27.4176L35.4743 27.7596ZM19.7802 39.769C18.649 37.2251 17.6028 34.9981 16.8832 32.9322C16.1656 30.8718 15.7936 29.0254 15.9827 27.26C16.3563 23.7718 18.9558 20.3662 26.2413 16.2307L25.7477 15.361C18.4008 19.5313 15.4164 23.1579 14.9884 27.1535C14.7767 29.1299 15.1994 31.1382 15.9388 33.2611C16.6763 35.3785 17.7494 37.6633 18.8665 40.1753L19.7802 39.769ZM19.0666 40.4012C29.4513 46.6171 38.469 50.0075 50.0957 48.7526C61.6828 47.5019 75.8048 41.6426 96.4292 29.533L95.9229 28.6706C75.3187 40.7684 61.3517 46.5318 49.9884 47.7583C38.6647 48.9806 29.8704 45.7025 19.5802 39.5432L19.0666 40.4012ZM95.894 29.5147L142.643 61.4479L143.207 60.6222L96.4581 28.6889L95.894 29.5147ZM142.707 60.5851C135.646 64.0056 130.484 66.9847 126.193 70.6206C121.896 74.2612 118.493 78.5419 114.92 84.5402L115.779 85.052C119.313 79.1188 122.65 74.9333 126.839 71.3835C131.035 67.829 136.107 64.8933 143.143 61.4851L142.707 60.5851ZM304.69 287.579C280.893 298.245 255.188 293.054 232.615 283.574C210.028 274.088 190.735 260.386 179.672 254.1L179.178 254.97C190.116 261.184 209.573 274.982 232.228 284.496C254.898 294.016 280.927 299.325 305.099 288.491L304.69 287.579ZM305.395 426.035V288.035H304.395V426.035H305.395ZM217.264 207.537C230.378 203.841 240.718 200.812 251.396 200.159C262.052 199.506 273.066 201.221 287.492 207.067L287.867 206.14C273.328 200.248 262.164 198.497 251.334 199.16C240.526 199.822 230.072 202.888 216.992 206.575L217.264 207.537ZM216.378 205.934C221.654 186.569 226.54 171.247 231.474 160.557C233.941 155.212 236.408 151.05 238.924 148.124C241.442 145.198 243.973 143.549 246.564 143.141C249.144 142.736 251.888 143.546 254.874 145.758C257.865 147.974 261.062 151.572 264.516 156.664C271.423 166.846 279.28 182.886 288.525 205.427L289.45 205.047C280.2 182.495 272.312 166.375 265.344 156.103C261.861 150.968 258.589 147.266 255.469 144.954C252.343 142.638 249.333 141.694 246.408 142.154C243.494 142.612 240.768 144.448 238.166 147.472C235.564 150.498 233.051 154.753 230.566 160.138C225.595 170.909 220.691 186.3 215.413 205.671L216.378 205.934ZM133.307 206.484C144.448 203.098 153.852 200.641 164.566 200.244C175.278 199.846 187.331 201.507 203.752 206.4L204.038 205.442C187.547 200.528 175.382 198.842 164.529 199.244C153.679 199.647 144.172 202.136 133.016 205.527L133.307 206.484ZM132.392 204.885C137.672 185.51 142.562 170.186 147.499 159.503C149.968 154.161 152.438 150.004 154.957 147.087C157.477 144.169 160.01 142.531 162.604 142.136C165.189 141.743 167.937 142.568 170.928 144.799C173.925 147.034 177.128 150.655 180.589 155.772C187.508 166.004 195.381 182.107 204.646 204.724L205.571 204.345C196.301 181.716 188.397 165.533 181.417 155.212C177.928 150.052 174.651 146.328 171.526 143.998C168.396 141.663 165.383 140.702 162.454 141.147C159.536 141.591 156.805 143.417 154.2 146.434C151.595 149.451 149.079 153.701 146.592 159.083C141.616 169.847 136.709 185.241 131.427 204.622L132.392 204.885ZM203.752 206.4C204.993 206.77 206.038 205.483 205.571 204.345L204.646 204.724C204.819 205.145 204.412 205.553 204.038 205.442L203.752 206.4ZM133.016 205.527C132.663 205.634 132.282 205.289 132.392 204.885L131.427 204.622C131.123 205.737 132.154 206.834 133.307 206.484L133.016 205.527ZM287.492 207.067C288.767 207.583 289.94 206.243 289.45 205.047L288.525 205.427C288.711 205.881 288.245 206.293 287.867 206.14L287.492 207.067ZM216.992 206.575C216.641 206.674 216.27 206.329 216.378 205.934L215.413 205.671C215.113 206.774 216.121 207.859 217.264 207.537L216.992 206.575ZM201.03 201.546C194.114 200.064 190.005 198.04 178.469 197.037L178.382 198.033C189.845 199.03 193.737 201.006 200.821 202.524L201.03 201.546ZM178.904 197.678C181.087 190.386 182.824 185.217 184.384 182.01C185.167 180.401 185.881 179.337 186.548 178.742C187.189 178.17 187.735 178.067 188.279 178.261C188.889 178.479 189.598 179.101 190.428 180.253C191.246 181.39 192.134 182.974 193.125 185.006C195.106 189.07 197.46 194.842 200.462 202.223L201.389 201.847C198.391 194.478 196.023 188.669 194.024 184.568C193.024 182.518 192.107 180.874 191.239 179.669C190.382 178.478 189.523 177.643 188.615 177.319C187.643 176.973 186.723 177.245 185.882 177.996C185.066 178.725 184.283 179.932 183.485 181.572C181.884 184.864 180.126 190.108 177.946 197.392L178.904 197.678ZM284.53 201.546C281.057 200.802 278.615 199.82 275.509 198.869C272.416 197.922 268.756 197.04 262.969 196.537L262.882 197.533C268.595 198.03 272.185 198.898 275.217 199.826C278.236 200.75 280.794 201.768 284.321 202.524L284.53 201.546ZM263.404 197.178C265.588 189.883 267.262 184.744 268.732 181.58C269.47 179.991 270.131 178.957 270.738 178.394C271.037 178.118 271.3 177.975 271.533 177.92C271.757 177.867 271.989 177.887 272.249 177.999C272.801 178.239 273.455 178.888 274.231 180.076C274.996 181.245 275.831 182.86 276.776 184.918C278.667 189.033 280.958 194.838 283.962 202.224L284.889 201.847C281.893 194.482 279.587 188.643 277.685 184.5C276.734 182.429 275.874 180.761 275.068 179.529C274.275 178.315 273.486 177.445 272.646 177.082C272.209 176.892 271.758 176.839 271.303 176.947C270.855 177.053 270.443 177.305 270.059 177.661C269.301 178.362 268.574 179.545 267.825 181.159C266.32 184.399 264.626 189.61 262.446 196.892L263.404 197.178ZM128.183 121.963C137.732 116.219 145.517 113.212 154.057 113.066C162.61 112.92 171.985 115.641 184.717 121.489L185.134 120.581C172.358 114.712 162.818 111.917 154.04 112.067C145.25 112.217 137.288 115.319 127.668 121.107L128.183 121.963ZM128.082 122.01C139.568 118.226 148.377 116.422 156.984 116.398C165.591 116.374 174.029 118.129 184.775 121.512L185.076 120.558C174.283 117.161 165.734 115.374 156.981 115.398C148.229 115.423 139.307 117.259 127.769 121.06L128.082 122.01ZM210.183 120.938C219.732 115.193 227.517 112.187 236.057 112.041C244.61 111.895 253.985 114.615 266.717 120.464L267.134 119.555C254.358 113.686 244.818 110.891 236.04 111.041C227.25 111.191 219.288 114.293 209.668 120.081L210.183 120.938ZM210.082 120.984C221.568 117.2 230.377 115.396 238.984 115.372C247.591 115.348 256.029 117.104 266.775 120.486L267.076 119.532C256.283 116.135 247.734 114.348 238.981 114.372C230.229 114.397 221.307 116.233 209.769 120.034L210.082 120.984ZM48.0441 337.01C48.8688 338.841 57.7523 354.759 73.8828 374.921C90.0197 395.091 113.434 419.539 143.332 438.4C173.234 457.264 209.634 470.545 251.724 468.355C293.817 466.164 341.546 448.502 394.111 405.575L393.478 404.8C341.042 447.623 293.51 465.178 251.673 467.356C209.834 469.534 173.636 456.335 143.866 437.555C114.091 418.772 90.7573 394.413 74.6636 374.297C58.5637 354.173 49.7341 338.327 48.9559 336.599L48.0441 337.01ZM366.794 402.187C367.281 402.303 367.281 402.302 367.281 402.302C367.281 402.302 367.281 402.302 367.281 402.302C367.281 402.301 367.281 402.3 367.282 402.299C367.282 402.297 367.283 402.294 367.284 402.289C367.286 402.28 367.289 402.267 367.294 402.249C367.302 402.213 367.315 402.16 367.332 402.09C367.365 401.951 367.414 401.747 367.477 401.486C367.604 400.965 367.787 400.218 368.014 399.317C368.466 397.515 369.09 395.097 369.776 392.634C370.462 390.169 371.209 387.666 371.906 385.69C372.256 384.701 372.589 383.854 372.893 383.213C373.045 382.893 373.185 382.633 373.312 382.436C373.444 382.231 373.54 382.128 373.594 382.087L372.994 381.287C372.798 381.434 372.625 381.656 372.471 381.894C372.313 382.14 372.151 382.442 371.989 382.785C371.664 383.47 371.317 384.354 370.963 385.357C370.255 387.365 369.501 389.893 368.813 392.366C368.124 394.84 367.497 397.266 367.044 399.073C366.817 399.977 366.633 400.726 366.506 401.25C366.442 401.512 366.393 401.717 366.359 401.857C366.342 401.927 366.329 401.981 366.321 402.017C366.317 402.035 366.313 402.049 366.311 402.058C366.31 402.063 366.309 402.066 366.309 402.068C366.308 402.07 366.308 402.071 366.308 402.071C366.308 402.071 366.308 402.072 366.308 402.072C366.308 402.072 366.308 402.072 366.794 402.187ZM373.594 382.087C374.374 381.503 375.803 381.554 376.635 382.688C377.467 383.822 377.808 386.218 375.84 390.478L376.748 390.897C378.763 386.536 378.605 383.682 377.441 382.096C376.277 380.51 374.215 380.372 372.994 381.287L373.594 382.087ZM376.708 390.968C381.665 383.656 387.317 379.036 392.456 376.673C397.615 374.302 402.18 374.234 405.046 375.872C406.469 376.685 407.495 377.927 407.994 379.564C408.495 381.208 408.475 383.285 407.737 385.764C406.259 390.731 401.929 397.218 393.46 404.815L394.128 405.56C402.659 397.906 407.142 391.269 408.695 386.049C409.474 383.434 409.523 381.151 408.95 379.272C408.375 377.386 407.182 375.94 405.542 375.004C402.284 373.141 397.349 373.323 392.039 375.765C386.709 378.215 380.923 382.969 375.88 390.407L376.708 390.968ZM60.1961 327.89C59.184 326.524 58.1459 325.073 57.125 323.77C56.1046 322.467 55.0753 321.276 54.0644 320.429C53.0674 319.594 51.9984 319.015 50.9129 319.111C49.7919 319.211 48.8479 320.006 48.0611 321.448L48.939 321.927C49.6523 320.619 50.3604 320.164 51.0013 320.107C51.6776 320.047 52.4802 320.406 53.422 321.196C54.35 321.973 55.327 323.096 56.3377 324.386C57.348 325.676 58.3661 327.1 59.3928 328.485L60.1961 327.89ZM48.0482 321.473C46.9245 323.846 46.1507 325.555 45.6794 326.89C45.2066 328.229 45.022 329.233 45.1127 330.187C45.2028 331.136 45.5617 331.983 46.0671 332.999C46.5791 334.028 47.2476 335.241 48.0441 337.01L48.9559 336.599C48.1495 334.809 47.4541 333.541 46.9624 332.553C46.4642 331.552 46.1797 330.845 46.1082 330.092C46.0371 329.344 46.1723 328.497 46.6223 327.223C47.0739 325.944 47.8257 324.279 48.952 321.901L48.0482 321.473ZM165.372 280.232C163.626 279.733 162.508 278.172 161.891 275.8C161.276 273.433 161.197 270.379 161.445 267.138C161.939 260.663 163.722 253.605 164.898 250.198L163.953 249.872C162.753 253.346 160.95 260.488 160.448 267.062C160.197 270.345 160.267 273.528 160.923 276.052C161.578 278.57 162.853 280.553 165.098 281.193L165.372 280.232ZM164.362 250.531C172.032 251.521 177.593 253.993 181.639 256.397C183.665 257.601 185.314 258.788 186.668 259.773C188 260.742 189.102 261.557 189.976 261.949L190.384 261.036C189.631 260.699 188.637 259.968 187.257 258.964C185.899 257.977 184.218 256.766 182.15 255.537C178.008 253.077 172.319 250.549 164.49 249.539L164.362 250.531ZM189.934 261.928C198.158 266.571 202.142 268.07 205.473 269.354C208.763 270.623 211.401 271.674 216.984 275.433L217.542 274.603C211.883 270.794 209.175 269.71 205.832 268.421C202.531 267.148 198.594 265.669 190.426 261.057L189.934 261.928ZM217.046 275.468L236.289 284.722L236.722 283.821L217.479 274.567L217.046 275.468ZM236.334 284.741L257.715 292.572L258.059 291.633L236.678 283.802L236.334 284.741ZM257.664 292.55C260.616 294.024 265.342 294.678 269.977 294.915C274.636 295.154 279.291 294.975 282.16 294.736L282.077 293.74C279.245 293.975 274.635 294.152 270.028 293.916C265.398 293.679 260.859 293.028 258.11 291.655L257.664 292.55ZM282.048 294.733C283.148 294.89 284.783 294.657 286.645 294.22C288.529 293.778 290.715 293.109 292.953 292.344C297.43 290.814 302.148 288.886 305.127 287.577L304.724 286.662C301.764 287.963 297.074 289.879 292.63 291.398C290.408 292.157 288.256 292.815 286.417 293.246C284.557 293.683 283.085 293.871 282.19 293.743L282.048 294.733ZM304.425 287.119V301.356H305.425V287.119H304.425ZM304.478 301.133C304.014 302.061 303.172 303.531 302.17 304.906C301.153 306.299 300.025 307.516 299 308.028L299.447 308.922C300.703 308.295 301.951 306.902 302.977 305.495C304.018 304.069 304.887 302.55 305.373 301.58L304.478 301.133ZM299 308.028C296.291 309.381 293.568 309.398 290.057 308.696L289.861 309.677C293.476 310.399 296.455 310.416 299.447 308.922L299 308.028ZM290.057 308.696C289.819 308.649 289.529 308.496 289.191 308.2C288.857 307.906 288.503 307.497 288.138 306.987C287.407 305.966 286.665 304.592 285.958 303.068C284.545 300.023 283.306 296.452 282.598 294.094L281.64 294.382C282.357 296.769 283.612 300.388 285.051 303.489C285.769 305.037 286.542 306.475 287.325 307.569C287.717 308.116 288.12 308.59 288.532 308.951C288.94 309.309 289.386 309.582 289.861 309.677L290.057 308.696ZM281.636 294.109C281.166 295.868 280.247 298.727 279.023 301.568C277.792 304.422 276.278 307.195 274.639 308.833L275.345 309.54C277.126 307.761 278.701 304.839 279.941 301.964C281.187 299.074 282.121 296.167 282.602 294.367L281.636 294.109ZM274.639 308.833C272.681 310.788 269.516 311.002 266.239 310.56C264.62 310.341 263.016 309.969 261.585 309.603C260.172 309.242 258.893 308.878 257.985 308.696L257.789 309.677C258.663 309.852 259.878 310.199 261.338 310.572C262.78 310.941 264.428 311.325 266.105 311.551C269.42 311.998 273.027 311.856 275.345 309.54L274.639 308.833ZM257.985 308.696C257.745 308.649 257.489 308.441 257.267 307.888C257.048 307.342 256.91 306.562 256.849 305.596C256.728 303.673 256.922 301.161 257.251 298.667L256.259 298.537C255.928 301.05 255.724 303.638 255.851 305.659C255.914 306.665 256.062 307.569 256.339 308.26C256.614 308.946 257.064 309.532 257.789 309.677L257.985 308.696ZM256.272 298.475C255.648 300.855 254.769 303.174 253.6 304.841C252.431 306.506 251.043 307.431 249.384 307.266L249.285 308.261C251.457 308.477 253.149 307.225 254.418 305.415C255.687 303.607 256.603 301.155 257.239 298.729L256.272 298.475ZM249.384 307.266C247.591 307.086 246.068 306.997 244.765 306.919C243.456 306.841 242.387 306.775 241.476 306.645C240.569 306.516 239.849 306.326 239.238 306.016C238.633 305.709 238.112 305.272 237.618 304.615L236.819 305.216C237.394 305.983 238.031 306.525 238.785 306.908C239.532 307.287 240.372 307.498 241.335 307.635C242.295 307.772 243.408 307.84 244.705 307.917C246.009 307.995 247.514 308.084 249.285 308.261L249.384 307.266ZM237.618 304.615C237.245 304.119 236.872 303.252 236.52 302.116C236.172 300.994 235.859 299.661 235.585 298.27C235.039 295.49 234.659 292.517 234.476 290.63L233.481 290.727C233.666 292.637 234.05 295.643 234.604 298.463C234.881 299.872 235.202 301.244 235.565 302.412C235.923 303.566 236.336 304.574 236.819 305.216L237.618 304.615ZM233.526 290.466C232.146 293.409 230.452 296.276 228.623 298.096C227.709 299.005 226.792 299.622 225.895 299.88C225.018 300.132 224.131 300.049 223.221 299.504L222.707 300.362C223.857 301.051 225.03 301.168 226.171 300.841C227.291 300.519 228.35 299.778 229.328 298.805C231.282 296.86 233.036 293.866 234.431 290.891L233.526 290.466ZM223.221 299.504C219.681 297.382 216.862 295.268 214.846 293.342C212.815 291.402 211.654 289.704 211.333 288.422L210.363 288.664C210.755 290.23 212.089 292.091 214.156 294.065C216.238 296.055 219.121 298.212 222.707 300.362L223.221 299.504ZM211.333 288.422C211.05 287.29 210.874 286.47 210.77 285.907C210.662 285.329 210.636 285.05 210.636 284.984H209.636C209.636 285.154 209.68 285.517 209.787 286.089C209.896 286.677 210.076 287.518 210.363 288.664L211.333 288.422ZM209.859 284.568C203.651 288.701 197.458 287.331 193.308 284.568L192.754 285.4C197.156 288.331 203.792 289.808 210.413 285.4L209.859 284.568ZM193.308 284.568C190.053 282.4 188.768 278.451 188.624 274.077C188.48 269.717 189.479 265.056 190.653 261.656L189.707 261.329C188.506 264.81 187.476 269.595 187.624 274.11C187.773 278.612 189.101 282.968 192.754 285.4L193.308 284.568ZM189.742 261.251C187.12 266.012 181.624 275.902 180.499 277.588L181.331 278.143C182.486 276.411 188.013 266.464 190.618 261.734L189.742 261.251ZM180.499 277.588C179.843 278.57 178.506 279.918 176.129 280.681C173.751 281.445 170.291 281.635 165.372 280.232L165.098 281.193C170.157 282.637 173.825 282.472 176.435 281.634C179.047 280.795 180.561 279.296 181.331 278.143L180.499 277.588ZM59.3928 328.485C80.2504 356.618 103.316 381.493 128.153 401.164L128.774 400.38C104.02 380.775 81.0135 355.968 60.1961 327.89L59.3928 328.485ZM179.672 254.1C173.248 250.45 167.237 249.061 161.684 249.583C156.131 250.105 151.082 252.535 146.573 256.439C137.572 264.233 130.68 277.94 126.092 294.336C116.915 327.137 116.876 371.028 127.995 400.946L128.932 400.597C117.901 370.914 117.923 327.244 127.055 294.606C131.623 278.282 138.446 264.799 147.228 257.195C151.61 253.4 156.469 251.078 161.778 250.579C167.087 250.079 172.894 251.399 179.178 254.97L179.672 254.1ZM128.115 401.13C132.245 405.155 133.677 406.911 136.683 409.096C139.68 411.275 144.265 413.9 154.756 419.755L155.244 418.882C144.727 413.013 140.208 410.422 137.271 408.287C134.342 406.159 133.01 404.504 128.813 400.414L128.115 401.13ZM128.153 401.164C152.835 420.711 179.275 435.125 207.043 442.483L207.299 441.517C179.692 434.201 153.373 419.862 128.774 400.38L128.153 401.164ZM207.043 442.483C257.019 455.726 311.218 446.095 367.101 402.582L366.487 401.793C310.819 445.139 256.936 454.67 207.299 441.517L207.043 442.483ZM154.756 419.755C177.696 432.558 188.148 440.499 207.119 442.497L207.223 441.503C188.515 439.532 178.304 431.752 155.244 418.882L154.756 419.755ZM207.189 442.5C242.529 441.263 284.124 430.563 304.99 426.526L304.8 425.545C283.837 429.6 242.39 440.268 207.154 441.5L207.189 442.5Z" fill="black"/>
</svg>
