<svg width="413" height="616" viewBox="0 0 413 616" fill="none" xmlns="http://www.w3.org/2000/svg">
<path d="M162.119 610.638C145.019 614.058 95.3379 619.84 85.8819 606.363C76.4259 592.885 77.3025 517.169 64.8329 512.748C86.8161 514.74 97.5849 516.015 121 514.5C113.687 516.692 113.623 527.262 110.819 535.113C107.257 545.088 105.119 548.65 108.682 571.45C109.46 576.428 113.669 578.575 120.082 580.713C126.494 582.85 145.732 570.738 151.432 570.025C157.132 569.313 172.094 571.45 177.082 572.875C182.069 574.3 191.332 581.425 191.332 580.713C191.332 580 197.032 568.6 200.594 568.6C203.444 568.6 200.357 581.425 198.457 587.838C198.457 587.838 183.494 606.363 162.119 610.638Z" fill="white"/>
<path fill-rule="evenodd" clip-rule="evenodd" d="M187.969 578.812C184.817 576.773 180.144 573.75 177.082 572.875C176.132 579.238 176.654 593.404 186.344 599.163C193.948 593.42 198.457 587.838 198.457 587.838C200.357 581.425 203.444 568.6 200.594 568.6C197.032 568.6 191.332 580 191.332 580.713C191.332 580.988 189.951 580.095 187.969 578.812Z" fill="#E15F41"/>
<path d="M81.125 592.113C83.3139 601.971 86.1158 609.066 90.1569 610.638C95.2079 612.602 105.453 614.213 117.063 615.234C110.194 595.676 101.775 591.423 81.125 592.113Z" fill="#E15F41"/>
<path d="M124.345 511.415C130.322 517.824 63.7494 514.647 63.0657 511.639C62.3821 508.631 67.8001 505.951 73.4999 506L113 506C118.565 506.535 120.817 507.632 124.345 511.415Z" fill="#C2C2C2"/>
<path d="M78.7569 452.463L117.944 443.2L111 513C96.8897 513.204 88.8816 512.972 74.5 512L78.7569 452.463Z" fill="#E1A632"/>
<path d="M348.144 610.638C331.044 614.058 281.362 619.84 271.906 606.363C262.45 592.885 263.327 517.169 250.857 512.748C272.84 514.74 283.609 516.015 307.024 514.5C299.711 516.692 299.648 527.262 296.844 535.113C293.281 545.088 291.144 548.65 294.706 571.45C295.484 576.428 299.694 578.575 306.106 580.713C312.519 582.85 331.756 570.738 337.456 570.025C343.156 569.313 358.119 571.45 363.106 572.875C368.094 574.3 377.356 581.425 377.356 580.713C377.356 580 383.056 568.6 386.619 568.6C389.469 568.6 386.381 581.425 384.481 587.838C384.481 587.838 369.519 606.363 348.144 610.638Z" fill="white"/>
<path fill-rule="evenodd" clip-rule="evenodd" d="M373.993 578.812C370.841 576.773 366.168 573.75 363.106 572.875C362.156 579.238 362.679 593.404 372.369 599.163C379.972 593.42 384.481 587.838 384.481 587.838C386.381 581.425 389.469 568.6 386.619 568.6C383.056 568.6 377.356 580 377.356 580.713C377.356 580.988 375.976 580.095 373.993 578.812Z" fill="#E15F41"/>
<path d="M267.149 592.113C269.338 601.971 272.14 609.066 276.181 610.638C281.232 612.602 291.478 614.213 303.087 615.234C296.218 595.676 287.799 591.423 267.149 592.113Z" fill="#E15F41"/>
<path d="M310.369 511.415C316.347 517.824 249.774 514.647 249.09 511.639C248.406 508.631 253.825 505.951 259.524 506L299.024 506C304.589 506.535 306.841 507.632 310.369 511.415Z" fill="#C2C2C2"/>
<path d="M264.781 452.463L303.969 443.2L297.024 513C282.914 513.204 274.906 512.972 260.524 512L264.781 452.463Z" fill="#E1A632"/>
<path d="M56.1192 439.627C47.4709 444.665 13.9545 480.849 16.0983 461.175C21.0965 255.87 81.9746 155.185 106.5 99C134 36 229.863 36 261.5 96.5001C293.137 157 351.75 359.681 339.839 453.68L339.778 454.025C338.315 462.342 334.949 481.48 328.404 488.344C317.685 499.587 314.827 495.839 306.25 478.039C301.898 469.008 292.672 448.996 282.666 453.68C271.71 458.809 251.982 497.274 244.075 492.092C236.929 487.408 225.493 478.039 217.632 465.859C212.123 457.324 204.769 490.218 192.62 493.966C174.039 492.092 169.95 469.543 165.463 467.733C156.172 463.986 151.195 501.519 141.164 478.976L140.914 478.414C136.064 467.511 133.147 460.955 124.013 448.059C114.722 434.943 113.292 448.996 103.287 461.175C93.2815 473.355 79.7037 472.418 66.8391 465.859C53.7529 459.188 62.5519 435.88 56.1192 439.627Z" fill="#E1A632"/>
<path d="M290.025 51.7379C267.134 50.3678 263.516 54.6299 250.5 82.5C230.94 75.7606 226.327 74.5472 217.5 59.5L265.797 27.5668C307.026 51.7741 321.975 50.8124 342.65 38.4371C347.147 28.3251 350.611 22.5667 335.979 14.2608C325.709 14.8543 325.259 21.3551 326.969 26.0536C328.679 30.7521 340.425 26.4768 340.425 26.4768C340.425 26.4768 336.07 34.9789 330.902 36.86C325.734 38.7412 311.934 31.5259 311.079 29.1767C310.224 26.8275 320.34 3.45654 325.509 1.57668C330.678 -0.303192 361.184 22.1129 360.972 25.9154C360.76 29.7179 342.53 68.8089 332.234 62.4477C323.844 57.2647 290.025 51.7379 290.025 51.7379Z" fill="#CC170E"/>
<path d="M72.0224 53.7379C94.914 52.3678 102.409 57.391 115.424 85.2611C130.247 78.4857 136.514 73.4155 143 61.5L96.2505 29.5668C55.0219 53.7741 40.0727 52.8124 19.3978 40.4371C14.9011 30.3251 11.4366 24.5667 26.069 16.2608C36.3386 16.8543 36.7891 23.3551 35.079 28.0536C33.3689 32.7521 21.6227 28.4768 21.6227 28.4768C21.6227 28.4768 25.9774 36.9789 31.1457 38.86C36.314 40.7412 50.114 33.5259 50.9691 31.1767C51.8241 28.8275 41.7073 5.45654 36.5386 3.57668C31.3698 1.69681 0.86328 24.1129 1.07557 27.9154C1.28785 31.7179 19.5173 70.8089 29.8139 64.4477C38.2035 59.2647 72.0224 53.7379 72.0224 53.7379Z" fill="#CC170E"/>
<path d="M179.5 255C201.5 267.5 257 310 304.969 288.5V426.5C269.452 433.372 183.534 457.505 148 426.5C103.582 387.745 119.376 220.838 179.5 255Z" fill="#936E25"/>
<path d="M287.754 207.068C258.789 195.33 243.397 200.139 217.202 207.521C216.456 207.731 215.766 207.016 215.97 206.268C237.079 128.794 252.072 115.516 289.062 205.702C289.4 206.527 288.581 207.403 287.754 207.068Z" fill="white"/>
<path d="M203.969 206.386C171.058 196.578 155.532 199.694 133.236 206.47C132.483 206.699 131.777 205.978 131.984 205.219C153.108 127.705 168.113 114.507 205.183 204.999C205.503 205.779 204.777 206.627 203.969 206.386Z" fill="white"/>
<path d="M201 202.5C194 201 190 199 178.5 198C187.225 168.847 189 173 201 202.5Z" fill="black"/>
<path d="M284.5 202.5C277.5 201 274.5 198.5 263 197.5C271.725 168.347 272.5 173 284.5 202.5Z" fill="black"/>
<path d="M128 122C147.169 110.467 159.492 109.783 185 121.5C163.462 114.72 151.024 114.415 128 122Z" fill="#936E25"/>
<path d="M210 120.974C229.169 109.442 241.492 108.757 267 120.474C245.462 113.695 233.024 113.389 210 120.974Z" fill="#936E25"/>
<path d="M397 405C186.998 576.501 54.9114 343.734 51.7056 336.617C48.4998 329.5 47.2058 331 51.7057 321.5C54.7058 316 58.9224 322.5 63 328C141.794 434.278 252.017 493.868 370 402C370 402 374.5 383 376.5 381.5C378.5 380 383.483 381.879 379.5 390.5C399.5 361.001 431 374.5 397 405Z" fill="#E1A632"/>
<path d="M165.31 281.178C157.327 278.9 162.124 257.381 164.5 250.5C180 252.5 187 260.5 190.254 261.958C206.647 271.212 206.095 267.915 217.337 275.483L236.58 284.737L257.961 292.567C263.663 295.415 276.492 295.177 282.193 294.703C286.185 295.272 299.061 290.194 305 287.584V301.821C304.05 303.72 301.579 307.801 299.298 308.94C296.447 310.364 293.597 310.364 290.033 309.652C287.182 309.082 283.619 299.448 282.193 294.703C281.243 298.262 278.487 306.235 275.066 309.652C270.79 313.923 261.525 310.364 257.961 309.652C256.031 309.266 256.17 304.074 256.83 299.067C255.569 303.873 253.24 308.611 249.409 308.228C242.282 307.516 239.431 308.228 237.293 305.381C235.582 303.103 234.42 294.94 234.053 291.144C231.277 297.061 227.158 302.866 223.039 300.398C215.912 296.126 211.636 291.855 210.923 289.008C210.353 286.73 210.21 285.686 210.21 285.449C203.796 289.72 197.381 288.296 193.105 285.449C186.198 280.849 187.879 268.839 190.254 261.958C187.641 266.703 182.13 276.622 180.989 278.33C179.564 280.466 175.288 284.025 165.31 281.178Z" fill="white"/>
<path d="M85.8819 606.363L86.2912 606.075L86.2912 606.075L85.8819 606.363ZM162.119 610.638L162.217 611.128L162.217 611.128L162.119 610.638ZM198.457 587.838L198.846 588.152L198.908 588.075L198.936 587.98L198.457 587.838ZM108.682 571.45L109.176 571.373L109.176 571.373L108.682 571.45ZM110.819 535.113L110.349 534.945L110.349 534.945L110.819 535.113ZM64.8329 512.748L64.878 512.25L64.6658 513.219L64.8329 512.748ZM121 514.5L121.143 514.979L120.968 514.001L121 514.5ZM90.1569 610.638L90.3381 610.172L90.3381 610.172L90.1569 610.638ZM186.344 599.163L186.089 599.593L186.378 599.765L186.646 599.562L186.344 599.163ZM81.125 592.113L81.1083 591.613L80.5064 591.633L80.6369 592.221L81.125 592.113ZM117.063 615.234L117.019 615.733L117.791 615.801L117.534 615.069L117.063 615.234ZM187.969 578.812L188.241 578.392L188.241 578.392L187.969 578.812ZM63.0657 511.639L63.5533 511.528L63.5533 511.528L63.0657 511.639ZM124.345 511.415L124.711 511.074L124.711 511.074L124.345 511.415ZM73.4999 506L73.4956 506.5L73.4999 506.5L73.4999 506ZM113 506L113.048 505.502L113.024 505.5L113 505.5L113 506ZM78.7569 452.463L78.6419 451.976L78.2844 452.061L78.2582 452.427L78.7569 452.463ZM117.944 443.2L118.442 443.25L118.511 442.552L117.829 442.714L117.944 443.2ZM111 513L111.007 513.5L111.453 513.494L111.497 513.05L111 513ZM74.5 512L74.0012 511.964L73.9654 512.465L74.4662 512.499L74.5 512ZM87.7711 476.502C87.6686 476.245 87.3776 476.121 87.1212 476.223C86.8648 476.326 86.7401 476.617 86.8426 476.873L87.7711 476.502ZM90.8694 484.525L90.5158 484.879L90.5158 484.879L90.8694 484.525ZM93.7194 478.113L94.1861 477.933L93.6609 476.568L93.2405 477.969L93.7194 478.113ZM98.7069 488.8L99.0604 488.446L99.0604 488.446L98.7069 488.8ZM101.557 476.688L102.031 476.529L101.06 476.635L101.557 476.688ZM271.906 606.363L272.316 606.075L272.316 606.075L271.906 606.363ZM348.144 610.638L348.242 611.128L348.242 611.128L348.144 610.638ZM384.481 587.838L384.87 588.152L384.933 588.075L384.961 587.98L384.481 587.838ZM294.706 571.45L295.2 571.373L295.2 571.373L294.706 571.45ZM296.844 535.113L296.373 534.945L296.373 534.945L296.844 535.113ZM250.857 512.748L250.902 512.25L250.69 513.219L250.857 512.748ZM307.024 514.5L307.168 514.979L306.992 514.001L307.024 514.5ZM276.181 610.638L276.363 610.172L276.363 610.172L276.181 610.638ZM372.369 599.163L372.113 599.593L372.402 599.765L372.67 599.562L372.369 599.163ZM267.149 592.113L267.133 591.613L266.531 591.633L266.661 592.221L267.149 592.113ZM303.087 615.234L303.043 615.733L303.816 615.801L303.559 615.069L303.087 615.234ZM373.993 578.812L374.265 578.392L374.265 578.392L373.993 578.812ZM249.09 511.639L249.578 511.528L249.578 511.528L249.09 511.639ZM310.369 511.415L310.735 511.074L310.735 511.074L310.369 511.415ZM259.524 506L259.52 506.5L259.524 506.5L259.524 506ZM299.024 506L299.072 505.502L299.048 505.5L299.024 505.5L299.024 506ZM264.781 452.463L264.666 451.976L264.309 452.061L264.283 452.427L264.781 452.463ZM303.969 443.2L304.466 443.25L304.536 442.552L303.854 442.714L303.969 443.2ZM297.024 513L297.032 513.5L297.478 513.494L297.522 513.05L297.024 513ZM260.524 512L260.026 511.964L259.99 512.465L260.491 512.499L260.524 512ZM273.796 476.502C273.693 476.245 273.402 476.121 273.146 476.223C272.889 476.326 272.765 476.617 272.867 476.873L273.796 476.502ZM276.894 484.525L276.54 484.879L276.54 484.879L276.894 484.525ZM279.744 478.113L280.21 477.933L279.685 476.568L279.265 477.969L279.744 478.113ZM284.731 488.8L285.085 488.446L285.085 488.446L284.731 488.8ZM287.581 476.688L288.056 476.529L287.084 476.635L287.581 476.688ZM16.0983 461.175L16.5953 461.229L16.5976 461.208L16.5981 461.187L16.0983 461.175ZM56.1192 439.627L55.8675 439.195L55.8675 439.195L56.1192 439.627ZM66.8391 465.859L67.0662 465.414L66.8391 465.859ZM124.013 448.059L124.421 447.77L124.421 447.77L124.013 448.059ZM140.914 478.414L140.457 478.617L140.457 478.617L140.914 478.414ZM141.164 478.976L140.708 479.179L140.708 479.179L141.164 478.976ZM165.463 467.733L165.65 467.27L165.65 467.27L165.463 467.733ZM217.632 465.859L218.052 465.588L218.052 465.588L217.632 465.859ZM244.075 492.092L243.801 492.51L243.801 492.51L244.075 492.092ZM282.666 453.68L282.878 454.133L282.878 454.133L282.666 453.68ZM306.25 478.039L306.7 477.822L306.7 477.822L306.25 478.039ZM328.404 488.344L328.766 488.689L328.766 488.689L328.404 488.344ZM339.778 454.025L340.271 454.112L340.271 454.112L339.778 454.025ZM339.839 453.68L340.331 453.767L340.333 453.755L340.335 453.743L339.839 453.68ZM261.5 96.5001L261.943 96.2684L261.943 96.2684L261.5 96.5001ZM192.62 493.966L192.57 494.463L192.67 494.473L192.767 494.443L192.62 493.966ZM106.5 99L106.958 99.2L106.5 99ZM250.5 82.5L250.337 82.9728L250.763 83.1194L250.953 82.7116L250.5 82.5ZM290.025 51.7379L290.106 51.2445L290.081 51.2403L290.055 51.2388L290.025 51.7379ZM332.234 62.4477L331.971 62.8731L331.971 62.8731L332.234 62.4477ZM360.972 25.9154L360.473 25.8875L360.473 25.8875L360.972 25.9154ZM340.425 26.4768L340.87 26.7047L341.45 25.5715L340.254 26.0069L340.425 26.4768ZM335.979 14.2608L336.226 13.826L336.097 13.7531L335.95 13.7616L335.979 14.2608ZM342.65 38.4371L342.907 38.8662L343.042 38.7849L343.107 38.6403L342.65 38.4371ZM265.797 27.5668L266.05 27.1356L265.781 26.9777L265.521 27.1497L265.797 27.5668ZM217.5 59.5L217.224 59.083L216.829 59.3443L217.069 59.753L217.5 59.5ZM115.424 85.2611L114.971 85.4726L115.181 85.922L115.632 85.7158L115.424 85.2611ZM72.0224 53.7379L71.9925 53.2388L71.967 53.2403L71.9417 53.2445L72.0224 53.7379ZM29.8139 64.4477L30.0767 64.8731L30.0767 64.8731L29.8139 64.4477ZM1.07557 27.9154L1.57479 27.8875L1.57479 27.8875L1.07557 27.9154ZM21.6227 28.4768L21.7937 28.0069L20.5972 27.5715L21.1777 28.7047L21.6227 28.4768ZM26.069 16.2608L26.0978 15.7616L25.9505 15.7531L25.8221 15.826L26.069 16.2608ZM19.3978 40.4371L18.941 40.6403L19.0053 40.7849L19.1411 40.8662L19.3978 40.4371ZM96.2505 29.5668L96.5325 29.1539L96.2708 28.9751L95.9974 29.1356L96.2505 29.5668ZM143 61.5L143.439 61.7391L143.655 61.3421L143.282 61.0872L143 61.5ZM304.969 288.5H305.469V287.728L304.765 288.044L304.969 288.5ZM179.5 255L179.747 254.565L179.747 254.565L179.5 255ZM148 426.5L148.329 426.124L148.329 426.124L148 426.5ZM304.969 426.5L305.064 426.991L305.469 426.913V426.5H304.969ZM217.202 207.521L217.067 207.04L217.067 207.04L217.202 207.521ZM287.754 207.068L287.566 207.532L287.566 207.532L287.754 207.068ZM215.97 206.268L216.452 206.399L216.452 206.399L215.97 206.268ZM289.062 205.702L289.524 205.512L289.524 205.512L289.062 205.702ZM133.236 206.47L133.091 205.992L133.091 205.992L133.236 206.47ZM203.969 206.386L204.112 205.907L204.112 205.907L203.969 206.386ZM131.984 205.219L132.466 205.35L132.466 205.35L131.984 205.219ZM205.183 204.999L204.72 205.189L204.72 205.189L205.183 204.999ZM201 202.5L200.895 202.989L201.819 203.187L201.463 202.312L201 202.5ZM178.5 198L178.021 197.857L177.845 198.445L178.457 198.498L178.5 198ZM284.5 202.5L284.395 202.989L285.319 203.187L284.963 202.312L284.5 202.5ZM263 197.5L262.521 197.357L262.345 197.945L262.957 197.998L263 197.5ZM128 122L127.742 121.572L128.156 122.475L128 122ZM185 121.5L184.85 121.977L185.209 121.046L185 121.5ZM210 120.974L209.742 120.546L210.156 121.449L210 120.974ZM267 120.474L266.85 120.951L267.209 120.02L267 120.474ZM397 405L397.316 405.387L397.325 405.38L397.334 405.372L397 405ZM63 328L62.5984 328.298L62.5984 328.298L63 328ZM370 402L370.307 402.395L370.446 402.286L370.486 402.115L370 402ZM379.5 390.5L379.046 390.29L379.914 390.781L379.5 390.5ZM51.7057 321.5L51.2667 321.261L51.2599 321.273L51.2538 321.286L51.7057 321.5ZM165.31 281.178L165.172 281.658L165.172 281.658L165.31 281.178ZM164.5 250.5L164.564 250.004L164.16 249.952L164.027 250.337L164.5 250.5ZM190.254 261.958L190.5 261.522L190.48 261.511L190.459 261.501L190.254 261.958ZM217.337 275.483L217.058 275.898L217.088 275.918L217.12 275.933L217.337 275.483ZM236.58 284.737L236.364 285.187L236.385 285.198L236.408 285.206L236.58 284.737ZM257.961 292.567L258.185 292.12L258.16 292.107L258.133 292.098L257.961 292.567ZM282.193 294.703L282.264 294.208L282.208 294.2L282.152 294.205L282.193 294.703ZM305 287.584H305.5V286.818L304.799 287.127L305 287.584ZM305 301.821L305.447 302.045L305.5 301.939V301.821H305ZM299.298 308.94L299.075 308.493L299.075 308.493L299.298 308.94ZM290.033 309.652L290.131 309.161L290.131 309.161L290.033 309.652ZM275.066 309.652L275.42 310.005L275.42 310.005L275.066 309.652ZM257.961 309.652L258.059 309.161L258.059 309.161L257.961 309.652ZM256.83 299.067L257.325 299.132L256.346 298.94L256.83 299.067ZM249.409 308.228L249.359 308.726L249.359 308.726L249.409 308.228ZM237.293 305.381L237.693 305.08L237.693 305.08L237.293 305.381ZM234.053 291.144L234.551 291.095L234.375 289.279L233.6 290.931L234.053 291.144ZM223.039 300.398L222.782 300.826L222.782 300.826L223.039 300.398ZM210.923 289.008L211.408 288.887L211.408 288.887L210.923 289.008ZM210.21 285.449H210.71V284.515L209.933 285.033L210.21 285.449ZM193.105 285.449L193.382 285.033L193.382 285.033L193.105 285.449ZM180.989 278.33L181.405 278.608L181.405 278.608L180.989 278.33ZM85.4726 606.65C87.9533 610.186 93.0004 612.383 99.2768 613.687C105.582 614.997 113.254 615.431 121.14 615.337C136.916 615.148 153.642 612.843 162.217 611.128L162.021 610.147C153.497 611.852 136.832 614.149 121.128 614.337C113.275 614.431 105.684 613.997 99.4803 612.708C93.2475 611.413 88.5385 609.279 86.2912 606.075L85.4726 606.65ZM162.217 611.128C173.014 608.969 182.172 603.216 188.617 598.024C191.843 595.425 194.397 592.961 196.145 591.146C197.019 590.238 197.693 589.492 198.148 588.971C198.376 588.711 198.55 588.508 198.667 588.368C198.725 588.299 198.769 588.245 198.799 588.209C198.814 588.191 198.826 588.177 198.833 588.167C198.837 588.162 198.84 588.159 198.842 588.156C198.843 588.155 198.844 588.154 198.845 588.153C198.845 588.153 198.845 588.152 198.846 588.152C198.846 588.152 198.846 588.152 198.457 587.838C198.068 587.523 198.068 587.523 198.068 587.523C198.068 587.524 198.068 587.524 198.068 587.524C198.067 587.524 198.067 587.525 198.066 587.526C198.064 587.528 198.062 587.531 198.058 587.535C198.052 587.543 198.041 587.556 198.027 587.573C197.999 587.607 197.957 587.658 197.901 587.725C197.788 587.859 197.619 588.058 197.396 588.313C196.95 588.822 196.287 589.557 195.425 590.452C193.7 592.244 191.177 594.678 187.99 597.245C181.611 602.384 172.6 608.032 162.021 610.147L162.217 611.128ZM198.936 587.98C199.889 584.763 201.143 579.931 201.8 575.895C202.128 573.883 202.314 572.034 202.229 570.673C202.187 569.999 202.075 569.391 201.844 568.937C201.601 568.458 201.191 568.1 200.594 568.1V569.1C200.71 569.1 200.827 569.143 200.953 569.39C201.091 569.662 201.192 570.107 201.231 570.736C201.309 571.98 201.139 573.738 200.813 575.734C200.165 579.713 198.924 584.5 197.977 587.696L198.936 587.98ZM200.594 568.1C200.019 568.1 199.446 568.328 198.907 568.668C198.364 569.011 197.817 569.49 197.283 570.047C196.215 571.161 195.148 572.639 194.205 574.121C193.26 575.606 192.428 577.112 191.832 578.294C191.534 578.885 191.292 579.398 191.124 579.791C191.04 579.986 190.972 580.157 190.924 580.295C190.901 580.364 190.88 580.43 190.864 580.491C190.851 580.542 190.832 580.625 190.832 580.713H191.832C191.832 580.756 191.824 580.773 191.833 580.739C191.839 580.715 191.85 580.677 191.869 580.623C191.906 580.516 191.964 580.369 192.043 580.185C192.201 579.817 192.433 579.323 192.725 578.745C193.308 577.589 194.124 576.111 195.049 574.658C195.976 573.2 197.002 571.784 198.005 570.739C198.507 570.216 198.99 569.798 199.44 569.514C199.894 569.228 200.279 569.1 200.594 569.1V568.1ZM190.832 580.713C190.832 580.657 190.843 580.571 190.898 580.481C190.955 580.386 191.037 580.327 191.113 580.295C191.182 580.267 191.24 580.263 191.268 580.263C191.298 580.262 191.317 580.266 191.322 580.267C191.324 580.267 191.273 580.254 191.145 580.19C190.907 580.073 190.545 579.86 190.071 579.565C189.124 578.974 187.829 578.118 186.346 577.174C183.422 575.313 179.796 573.131 177.219 572.394L176.945 573.356C179.355 574.045 182.855 576.137 185.809 578.017C187.264 578.943 188.597 579.824 189.542 580.413C190.015 580.708 190.415 580.946 190.703 581.088C190.838 581.154 190.992 581.221 191.131 581.249C191.19 581.26 191.339 581.285 191.498 581.218C191.591 581.179 191.686 581.109 191.752 581C191.816 580.895 191.832 580.79 191.832 580.713H190.832ZM177.219 572.394C174.687 571.671 169.669 570.777 164.585 570.152C159.512 569.529 154.289 569.164 151.37 569.529L151.494 570.521C154.275 570.174 159.383 570.521 164.463 571.145C169.533 571.767 174.489 572.654 176.945 573.356L177.219 572.394ZM151.37 569.529C149.858 569.718 147.517 570.644 144.827 571.839C142.138 573.034 138.946 574.572 135.819 575.982C132.66 577.405 129.501 578.73 126.739 579.566C125.359 579.984 124.091 580.276 122.981 580.399C121.866 580.523 120.945 580.473 120.24 580.238L119.924 581.187C120.822 581.486 121.905 581.525 123.092 581.393C124.283 581.261 125.615 580.951 127.029 580.523C129.856 579.667 133.064 578.32 136.23 576.893C139.426 575.453 142.512 573.963 145.234 572.753C147.955 571.544 150.156 570.689 151.494 570.521L151.37 569.529ZM120.24 580.238C117.037 579.171 114.447 578.119 112.564 576.743C110.704 575.383 109.541 573.713 109.176 571.373L108.188 571.527C108.6 574.165 109.932 576.057 111.974 577.55C113.993 579.026 116.714 580.117 119.924 581.187L120.24 580.238ZM109.176 571.373C107.396 559.984 107.049 553.446 107.576 548.525C108.102 543.611 109.5 540.293 111.29 535.281L110.349 534.945C108.576 539.907 107.124 543.358 106.582 548.419C106.04 553.473 106.405 560.117 108.188 571.527L109.176 571.373ZM64.6658 513.219C66.0241 513.7 67.2999 515.202 68.4774 517.7C69.6428 520.172 70.6588 523.505 71.5653 527.457C73.3776 535.358 74.7299 545.632 75.991 556.218C77.2506 566.792 78.419 577.674 79.8635 586.75C80.5859 591.289 81.3792 595.389 82.2911 598.782C83.1997 602.163 84.2382 604.89 85.4726 606.65L86.2912 606.075C85.1616 604.465 84.159 601.879 83.2569 598.522C82.358 595.178 81.5711 591.117 80.8511 586.593C79.4107 577.543 78.2459 566.693 76.984 556.1C75.7236 545.52 74.366 535.194 72.54 527.233C71.6274 523.255 70.5923 519.841 69.3819 517.274C68.1836 514.732 66.7591 512.9 65 512.276L64.6658 513.219ZM111.29 535.281C112.001 533.29 112.537 531.133 113.051 529.006C113.567 526.869 114.061 524.766 114.694 522.84C115.963 518.976 117.735 516 121.143 514.979L120.856 514.021C116.951 515.191 115.035 518.597 113.744 522.528C113.096 524.501 112.591 526.649 112.078 528.771C111.563 530.902 111.039 533.01 110.349 534.945L111.29 535.281ZM64.7877 513.246C86.7707 515.238 97.5743 516.517 121.032 514.999L120.968 514.001C97.5955 515.514 86.8614 514.242 64.878 512.25L64.7877 513.246ZM186.646 599.562C190.471 596.673 193.518 593.824 195.609 591.697C196.654 590.634 197.462 589.75 198.008 589.131C198.282 588.821 198.49 588.578 198.631 588.411C198.701 588.328 198.754 588.264 198.79 588.22C198.808 588.198 198.822 588.181 198.831 588.17C198.836 588.164 198.839 588.16 198.842 588.157C198.843 588.155 198.844 588.154 198.845 588.153C198.845 588.153 198.845 588.153 198.845 588.152C198.846 588.152 198.846 588.152 198.846 588.152C198.846 588.152 198.846 588.152 198.457 587.838C198.068 587.523 198.068 587.523 198.068 587.523C198.068 587.523 198.068 587.523 198.068 587.523C198.068 587.524 198.068 587.524 198.067 587.524C198.067 587.525 198.066 587.525 198.065 587.527C198.063 587.529 198.06 587.533 198.056 587.538C198.048 587.548 198.036 587.563 198.019 587.584C197.985 587.625 197.934 587.686 197.866 587.766C197.73 587.928 197.527 588.165 197.259 588.469C196.723 589.076 195.927 589.946 194.895 590.996C192.831 593.096 189.821 595.911 186.043 598.764L186.646 599.562ZM176.587 572.801C176.104 576.036 175.996 581.234 177.237 586.363C178.478 591.491 181.084 596.619 186.089 599.593L186.6 598.734C181.915 595.949 179.415 591.114 178.209 586.128C177.004 581.144 177.109 576.078 177.576 572.949L176.587 572.801ZM80.6369 592.221C81.7343 597.163 82.9911 601.442 84.4925 604.692C85.9835 607.92 87.765 610.244 89.9757 611.104L90.3381 610.172C88.5077 609.46 86.8677 607.45 85.4003 604.273C83.9432 601.118 82.7047 596.92 81.6132 592.004L80.6369 592.221ZM89.9757 611.104C95.1018 613.097 105.415 614.711 117.019 615.733L117.106 614.736C105.492 613.714 95.3141 612.107 90.3381 610.172L89.9757 611.104ZM81.1417 592.612C91.4503 592.268 98.588 593.167 103.999 596.506C109.398 599.838 113.17 605.659 116.591 615.4L117.534 615.069C114.087 605.252 110.215 599.167 104.524 595.655C98.8459 592.151 91.4493 591.267 81.1083 591.613L81.1417 592.612ZM176.945 573.356C178.413 573.775 180.301 574.723 182.242 575.84C184.174 576.953 186.12 578.211 187.697 579.232L188.241 578.392C186.666 577.374 184.699 576.101 182.741 574.974C180.792 573.851 178.813 572.85 177.219 572.394L176.945 573.356ZM187.697 579.232C188.684 579.87 189.536 580.421 190.14 580.777C190.437 580.952 190.7 581.095 190.897 581.175C190.983 581.21 191.119 581.26 191.261 581.263C191.334 581.264 191.484 581.254 191.623 581.145C191.786 581.018 191.832 580.841 191.832 580.713H190.832C190.832 580.619 190.867 580.467 191.009 580.356C191.127 580.264 191.245 580.262 191.276 580.263C191.335 580.263 191.348 580.279 191.273 580.249C191.15 580.199 190.943 580.09 190.648 579.916C190.066 579.573 189.236 579.036 188.241 578.392L187.697 579.232ZM62.5782 511.75C62.645 512.044 62.8766 512.231 63.0477 512.342C63.2398 512.465 63.4864 512.574 63.7642 512.674C64.3236 512.873 65.1 513.064 66.0454 513.247C67.9418 513.613 70.5926 513.961 73.7201 514.272C79.9789 514.894 88.1907 515.373 96.1916 515.558C104.188 515.743 111.996 515.634 117.439 515.074C120.147 514.796 122.325 514.401 123.648 513.85C124.291 513.582 124.854 513.229 125.099 512.725C125.231 512.453 125.26 512.156 125.18 511.857C125.102 511.571 124.932 511.311 124.711 511.074L123.979 511.756C124.132 511.92 124.193 512.041 124.214 512.119C124.232 512.184 124.226 512.233 124.2 512.288C124.126 512.44 123.871 512.674 123.264 512.926C122.088 513.416 120.04 513.801 117.337 514.079C111.957 514.632 104.199 514.743 96.2147 514.558C88.2341 514.374 80.0481 513.896 73.819 513.277C70.7026 512.967 68.087 512.623 66.2352 512.265C65.3064 512.085 64.5883 511.906 64.1004 511.732C63.8545 511.644 63.6892 511.565 63.5896 511.501C63.4691 511.423 63.5292 511.422 63.5533 511.528L62.5782 511.75ZM63.5533 511.528C63.4219 510.95 63.5724 510.365 64.0073 509.781C64.4487 509.187 65.171 508.615 66.1214 508.116C68.0201 507.12 70.7163 506.476 73.4956 506.5L73.5042 505.5C70.5838 505.475 67.721 506.147 65.6567 507.231C64.6255 507.772 63.7653 508.43 63.2049 509.184C62.6382 509.946 62.3677 510.824 62.5782 511.75L63.5533 511.528ZM124.711 511.074C122.928 509.163 121.433 507.892 119.652 507.039C117.874 506.187 115.851 505.772 113.048 505.502L112.952 506.498C115.713 506.763 117.599 507.164 119.22 507.941C120.838 508.716 122.233 509.884 123.979 511.756L124.711 511.074ZM73.4999 506.5L113 506.5L113 505.5L73.4999 505.5L73.4999 506.5ZM78.8719 452.949L118.059 443.687L117.829 442.714L78.6419 451.976L78.8719 452.949ZM117.447 443.151L110.502 512.951L111.497 513.05L118.442 443.25L117.447 443.151ZM110.993 512.5C96.8969 512.704 88.9025 512.472 74.5337 511.501L74.4662 512.499C88.8607 513.471 96.8825 513.704 111.007 513.5L110.993 512.5ZM74.9987 512.036L79.2556 452.498L78.2582 452.427L74.0012 511.964L74.9987 512.036ZM87.3069 476.688C86.8426 476.873 86.8427 476.873 86.8427 476.873C86.8427 476.873 86.8427 476.874 86.8428 476.874C86.8429 476.874 86.843 476.874 86.8432 476.875C86.8436 476.876 86.8441 476.877 86.8448 476.879C86.8462 476.882 86.8483 476.887 86.851 476.894C86.8565 476.908 86.8646 476.928 86.8751 476.954C86.8963 477.007 86.9274 477.084 86.9672 477.182C87.0468 477.379 87.1612 477.661 87.3007 478.002C87.5796 478.682 87.9592 479.598 88.3614 480.536C88.7631 481.473 89.1893 482.438 89.5611 483.216C89.7467 483.604 89.9215 483.951 90.0747 484.227C90.2172 484.483 90.3702 484.733 90.5158 484.879L91.2229 484.172C91.1904 484.139 91.0985 484.01 90.9488 483.741C90.8098 483.491 90.645 483.164 90.4632 482.784C90.1002 482.025 89.6803 481.075 89.2805 480.142C88.8811 479.21 88.5037 478.3 88.226 477.622C88.0872 477.284 87.9734 477.003 87.8943 476.808C87.8548 476.71 87.8239 476.633 87.803 476.581C87.7925 476.555 87.7845 476.535 87.7792 476.522C87.7765 476.515 87.7745 476.51 87.7731 476.507C87.7724 476.505 87.7719 476.504 87.7716 476.503C87.7714 476.503 87.7713 476.502 87.7712 476.502C87.7712 476.502 87.7712 476.502 87.7711 476.502C87.7711 476.502 87.7711 476.502 87.3069 476.688ZM90.5158 484.879C90.676 485.039 90.9013 485.112 91.1346 485.057C91.3225 485.012 91.4619 484.896 91.55 484.808C91.7327 484.625 91.9033 484.348 92.0572 484.058C92.3743 483.459 92.7178 482.608 93.0307 481.759C93.3458 480.904 93.6375 480.028 93.8502 479.368C93.9566 479.037 94.0435 478.76 94.1038 478.565C94.134 478.468 94.1575 478.391 94.1735 478.338C94.1816 478.312 94.1877 478.291 94.1919 478.278C94.194 478.271 94.1955 478.265 94.1966 478.262C94.1972 478.26 94.1976 478.259 94.1978 478.258C94.198 478.257 94.1981 478.257 94.1982 478.257C94.1982 478.257 94.1982 478.256 94.1983 478.256C94.1983 478.256 94.1983 478.256 93.7194 478.113C93.2405 477.969 93.2405 477.969 93.2405 477.969C93.2405 477.969 93.2404 477.969 93.2404 477.969C93.2404 477.969 93.2403 477.97 93.2402 477.97C93.2399 477.971 93.2396 477.972 93.2391 477.974C93.2381 477.977 93.2366 477.982 93.2346 477.988C93.2306 478.002 93.2247 478.021 93.2169 478.047C93.2013 478.098 93.1782 478.174 93.1485 478.27C93.0891 478.461 93.0034 478.735 92.8983 479.061C92.688 479.715 92.4008 480.576 92.0924 481.413C91.7819 482.256 91.4574 483.053 91.1734 483.59C91.0267 483.867 90.9134 484.03 90.8429 484.101C90.8043 484.139 90.8247 484.103 90.903 484.084C91.0268 484.055 91.1519 484.1 91.2229 484.172L90.5158 484.879ZM93.7194 478.113C93.2527 478.292 93.2527 478.292 93.2528 478.292C93.2528 478.292 93.2529 478.292 93.2529 478.293C93.253 478.293 93.2532 478.293 93.2534 478.294C93.2539 478.295 93.2545 478.297 93.2554 478.299C93.2572 478.304 93.2598 478.31 93.2632 478.319C93.2701 478.337 93.2803 478.363 93.2936 478.398C93.3202 478.466 93.3593 478.567 93.4096 478.696C93.5102 478.953 93.6554 479.321 93.8341 479.768C94.1913 480.661 94.6827 481.867 95.2192 483.119C95.7552 484.369 96.3385 485.671 96.8792 486.753C97.1494 487.293 97.4118 487.784 97.6547 488.189C97.8922 488.585 98.1296 488.93 98.3533 489.154L99.0604 488.446C98.928 488.314 98.7422 488.058 98.5122 487.674C98.2875 487.3 98.0378 486.834 97.7736 486.305C97.2456 485.249 96.6711 483.968 96.1383 482.725C95.6061 481.483 95.1178 480.285 94.7625 479.396C94.5849 478.952 94.4407 478.586 94.3409 478.331C94.291 478.204 94.2522 478.104 94.2259 478.036C94.2128 478.002 94.2028 477.976 94.1961 477.959C94.1927 477.95 94.1902 477.944 94.1885 477.939C94.1877 477.937 94.1871 477.936 94.1867 477.935C94.1864 477.934 94.1863 477.934 94.1862 477.933C94.1861 477.933 94.1861 477.933 94.1861 477.933C94.1861 477.933 94.1861 477.933 93.7194 478.113ZM98.3533 489.154C98.5237 489.324 98.7812 489.458 99.0882 489.386C99.3482 489.324 99.5264 489.138 99.6385 488.989C99.8695 488.681 100.062 488.196 100.231 487.658C100.576 486.554 100.892 484.966 101.159 483.36C101.428 481.748 101.652 480.093 101.808 478.843C101.886 478.217 101.948 477.692 101.99 477.323C102.011 477.138 102.027 476.993 102.038 476.894C102.043 476.844 102.047 476.806 102.05 476.78C102.051 476.767 102.052 476.757 102.053 476.75C102.053 476.747 102.054 476.744 102.054 476.743C102.054 476.742 102.054 476.741 102.054 476.741C102.054 476.74 102.054 476.74 102.054 476.74C102.054 476.74 102.054 476.74 101.557 476.688C101.06 476.635 101.06 476.635 101.06 476.635C101.06 476.635 101.06 476.636 101.06 476.636C101.06 476.636 101.059 476.637 101.059 476.637C101.059 476.639 101.059 476.641 101.059 476.645C101.058 476.651 101.057 476.66 101.056 476.673C101.053 476.698 101.049 476.736 101.043 476.785C101.033 476.883 101.017 477.027 100.996 477.21C100.955 477.576 100.893 478.097 100.816 478.719C100.66 479.962 100.439 481.602 100.173 483.196C99.9063 484.796 99.5991 486.326 99.2761 487.36C99.1104 487.89 98.9582 488.229 98.8385 488.389C98.7752 488.473 98.7766 488.432 98.8592 488.412C98.9888 488.382 99.0682 488.454 99.0604 488.446L98.3533 489.154ZM101.557 476.688C101.083 476.846 101.083 476.846 101.083 476.846C101.083 476.846 101.083 476.846 101.083 476.846C101.083 476.846 101.083 476.847 101.083 476.847C101.084 476.849 101.084 476.85 101.085 476.852C101.086 476.857 101.088 476.863 101.091 476.871C101.097 476.888 101.105 476.912 101.115 476.943C101.137 477.006 101.168 477.098 101.208 477.215C101.288 477.447 101.403 477.778 101.542 478.169C101.822 478.952 102.203 479.984 102.608 480.974C103.01 481.955 103.446 482.923 103.836 483.561C104.019 483.862 104.238 484.167 104.484 484.332C104.615 484.418 104.832 484.518 105.088 484.451C105.346 484.384 105.49 484.189 105.567 484.036L104.672 483.589C104.659 483.615 104.698 483.519 104.836 483.484C104.972 483.448 105.055 483.51 105.039 483.5C104.993 483.469 104.872 483.34 104.689 483.04C104.344 482.476 103.934 481.573 103.534 480.595C103.137 479.625 102.761 478.609 102.484 477.833C102.346 477.446 102.232 477.119 102.154 476.89C102.114 476.775 102.084 476.685 102.063 476.623C102.052 476.592 102.044 476.569 102.039 476.553C102.036 476.545 102.034 476.539 102.033 476.535C102.032 476.533 102.032 476.532 102.032 476.531C102.032 476.53 102.031 476.53 102.031 476.53C102.031 476.53 102.031 476.53 102.031 476.529C102.031 476.529 102.031 476.529 101.557 476.688ZM105.567 484.036C105.942 483.286 106.846 480.75 107.64 478.454C108.042 477.295 108.421 476.18 108.699 475.356C108.838 474.943 108.953 474.604 109.032 474.367C109.072 474.248 109.103 474.156 109.124 474.092C109.134 474.061 109.143 474.037 109.148 474.02C109.151 474.012 109.153 474.006 109.154 474.002C109.155 474 109.155 473.998 109.156 473.997C109.156 473.997 109.156 473.996 109.156 473.996C109.156 473.996 109.156 473.996 109.156 473.996C109.156 473.996 109.156 473.996 108.682 473.838C108.208 473.679 108.208 473.679 108.208 473.68C108.208 473.68 108.207 473.68 108.207 473.68C108.207 473.68 108.207 473.68 108.207 473.681C108.207 473.682 108.206 473.684 108.206 473.686C108.204 473.69 108.202 473.696 108.199 473.704C108.194 473.72 108.186 473.744 108.176 473.775C108.154 473.838 108.124 473.931 108.084 474.049C108.005 474.285 107.891 474.624 107.752 475.036C107.474 475.859 107.096 476.971 106.695 478.127C105.887 480.463 105.01 482.914 104.672 483.589L105.567 484.036ZM271.497 606.65C273.978 610.186 279.025 612.383 285.301 613.687C291.606 614.997 299.278 615.431 307.165 615.337C322.94 615.148 339.667 612.843 348.242 611.128L348.046 610.147C339.521 611.852 322.857 614.149 307.153 614.337C299.299 614.431 291.709 613.997 285.505 612.708C279.272 611.413 274.563 609.279 272.316 606.075L271.497 606.65ZM348.242 611.128C359.038 608.969 368.196 603.216 374.642 598.024C377.868 595.425 380.421 592.961 382.17 591.146C383.044 590.238 383.717 589.492 384.173 588.971C384.401 588.711 384.574 588.508 384.691 588.368C384.749 588.299 384.794 588.245 384.824 588.209C384.839 588.191 384.85 588.177 384.858 588.167C384.862 588.162 384.865 588.159 384.867 588.156C384.868 588.155 384.869 588.154 384.869 588.153C384.87 588.153 384.87 588.152 384.87 588.152C384.87 588.152 384.87 588.152 384.481 587.838C384.092 587.523 384.092 587.523 384.092 587.523C384.092 587.524 384.092 587.524 384.092 587.524C384.092 587.524 384.091 587.525 384.09 587.526C384.089 587.528 384.086 587.531 384.083 587.535C384.076 587.543 384.066 587.556 384.052 587.573C384.024 587.607 383.981 587.658 383.925 587.725C383.812 587.859 383.644 588.058 383.42 588.313C382.974 588.822 382.312 589.557 381.449 590.452C379.724 592.244 377.201 594.678 374.015 597.245C367.635 602.384 358.624 608.032 348.046 610.147L348.242 611.128ZM384.961 587.98C385.914 584.763 387.167 579.931 387.825 575.895C388.153 573.883 388.339 572.034 388.253 570.673C388.211 569.999 388.1 569.391 387.869 568.937C387.626 568.458 387.215 568.1 386.619 568.1V569.1C386.735 569.1 386.852 569.143 386.977 569.39C387.116 569.662 387.216 570.107 387.255 570.736C387.333 571.98 387.163 573.738 386.838 575.734C386.189 579.713 384.949 584.5 384.002 587.696L384.961 587.98ZM386.619 568.1C386.043 568.1 385.471 568.328 384.931 568.668C384.388 569.011 383.842 569.49 383.308 570.047C382.24 571.161 381.173 572.639 380.23 574.121C379.285 575.606 378.453 577.112 377.856 578.294C377.558 578.885 377.317 579.398 377.149 579.791C377.065 579.986 376.997 580.157 376.949 580.295C376.925 580.364 376.904 580.43 376.888 580.491C376.875 580.542 376.856 580.625 376.856 580.713H377.856C377.856 580.756 377.848 580.773 377.857 580.739C377.863 580.715 377.875 580.677 377.894 580.623C377.931 580.516 377.989 580.369 378.068 580.185C378.225 579.817 378.457 579.323 378.749 578.745C379.333 577.589 380.148 576.111 381.073 574.658C382.001 573.2 383.027 571.784 384.03 570.739C384.531 570.216 385.014 569.798 385.465 569.514C385.919 569.228 386.304 569.1 386.619 569.1V568.1ZM376.856 580.713C376.856 580.657 376.868 580.571 376.922 580.481C376.98 580.386 377.061 580.327 377.137 580.295C377.206 580.267 377.264 580.263 377.292 580.263C377.322 580.262 377.342 580.266 377.346 580.267C377.348 580.267 377.298 580.254 377.169 580.19C376.931 580.073 376.569 579.86 376.096 579.565C375.149 578.974 373.854 578.118 372.37 577.174C369.446 575.313 365.82 573.131 363.244 572.394L362.969 573.356C365.38 574.045 368.879 576.137 371.833 578.017C373.288 578.943 374.621 579.824 375.567 580.413C376.039 580.708 376.44 580.946 376.728 581.088C376.862 581.154 377.016 581.221 377.156 581.249C377.214 581.26 377.363 581.285 377.522 581.218C377.616 581.179 377.711 581.109 377.777 581C377.84 580.895 377.856 580.79 377.856 580.713H376.856ZM363.244 572.394C360.712 571.671 355.693 570.777 350.609 570.152C345.537 569.529 340.314 569.164 337.394 569.529L337.518 570.521C340.299 570.174 345.407 570.521 350.488 571.145C355.557 571.767 360.513 572.654 362.969 573.356L363.244 572.394ZM337.394 569.529C335.882 569.718 333.541 570.644 330.852 571.839C328.163 573.034 324.97 574.572 321.843 575.982C318.685 577.405 315.525 578.73 312.764 579.566C311.383 579.984 310.115 580.276 309.005 580.399C307.89 580.523 306.97 580.473 306.264 580.238L305.948 581.187C306.846 581.486 307.929 581.525 309.116 581.393C310.308 581.261 311.639 580.951 313.053 580.523C315.88 579.667 319.089 578.32 322.254 576.893C325.45 575.453 328.537 573.963 331.258 572.753C333.979 571.544 336.18 570.689 337.518 570.521L337.394 569.529ZM306.264 580.238C303.062 579.171 300.472 578.119 298.588 576.743C296.728 575.383 295.566 573.713 295.2 571.373L294.212 571.527C294.624 574.165 295.956 576.057 297.998 577.55C300.017 579.026 302.738 580.117 305.948 581.187L306.264 580.238ZM295.2 571.373C293.421 559.984 293.073 553.446 293.6 548.525C294.127 543.611 295.525 540.293 297.315 535.281L296.373 534.945C294.6 539.907 293.148 543.358 292.606 548.419C292.064 553.473 292.429 560.117 294.212 571.527L295.2 571.373ZM250.69 513.219C252.049 513.7 253.324 515.202 254.502 517.7C255.667 520.172 256.683 523.505 257.59 527.457C259.402 535.358 260.754 545.632 262.015 556.218C263.275 566.792 264.443 577.674 265.888 586.75C266.61 591.289 267.404 595.389 268.316 598.782C269.224 602.163 270.263 604.89 271.497 606.65L272.316 606.075C271.186 604.465 270.183 601.879 269.281 598.522C268.382 595.178 267.595 591.117 266.875 586.593C265.435 577.543 264.27 566.693 263.008 556.1C261.748 545.52 260.39 535.194 258.564 527.233C257.652 523.255 256.617 519.841 255.406 517.274C254.208 514.732 252.783 512.9 251.024 512.276L250.69 513.219ZM297.315 535.281C298.026 533.29 298.561 531.133 299.075 529.006C299.591 526.869 300.085 524.766 300.718 522.84C301.987 518.976 303.76 516 307.168 514.979L306.881 514.021C302.975 515.191 301.059 518.597 299.768 522.528C299.12 524.501 298.616 526.649 298.103 528.771C297.588 530.902 297.064 533.01 296.373 534.945L297.315 535.281ZM250.812 513.246C272.795 515.238 283.599 516.517 307.057 514.999L306.992 514.001C283.62 515.514 272.886 514.242 250.902 512.25L250.812 513.246ZM372.67 599.562C376.496 596.673 379.542 593.824 381.633 591.697C382.679 590.634 383.486 589.75 384.033 589.131C384.306 588.821 384.515 588.578 384.655 588.411C384.725 588.328 384.779 588.264 384.815 588.22C384.833 588.198 384.846 588.181 384.856 588.17C384.86 588.164 384.864 588.16 384.866 588.157C384.867 588.155 384.868 588.154 384.869 588.153C384.869 588.153 384.87 588.153 384.87 588.152C384.87 588.152 384.87 588.152 384.87 588.152C384.87 588.152 384.87 588.152 384.481 587.838C384.092 587.523 384.092 587.523 384.092 587.523C384.092 587.523 384.092 587.523 384.092 587.523C384.092 587.524 384.092 587.524 384.092 587.524C384.092 587.525 384.091 587.525 384.09 587.527C384.088 587.529 384.085 587.533 384.081 587.538C384.073 587.548 384.06 587.563 384.043 587.584C384.009 587.625 383.958 587.686 383.89 587.766C383.755 587.928 383.551 588.165 383.283 588.469C382.747 589.076 381.952 589.946 380.92 590.996C378.855 593.096 375.846 595.911 372.067 598.764L372.67 599.562ZM362.612 572.801C362.129 576.036 362.021 581.234 363.262 586.363C364.502 591.491 367.109 596.619 372.113 599.593L372.624 598.734C367.939 595.949 365.439 591.114 364.234 586.128C363.028 581.144 363.134 576.078 363.601 572.949L362.612 572.801ZM266.661 592.221C267.759 597.163 269.016 601.442 270.517 604.692C272.008 607.92 273.789 610.244 276 611.104L276.363 610.172C274.532 609.46 272.892 607.45 271.425 604.273C269.968 601.118 268.729 596.92 267.638 592.004L266.661 592.221ZM276 611.104C281.126 613.097 291.439 614.711 303.043 615.733L303.131 614.736C291.516 613.714 281.338 612.107 276.363 610.172L276 611.104ZM267.166 592.612C277.475 592.268 284.612 593.167 290.023 596.506C295.422 599.838 299.194 605.659 302.615 615.4L303.559 615.069C300.111 605.252 296.239 599.167 290.549 595.655C284.87 592.151 277.474 591.267 267.133 591.613L267.166 592.612ZM362.969 573.356C364.437 573.775 366.326 574.723 368.267 575.84C370.199 576.953 372.144 578.211 373.722 579.232L374.265 578.392C372.69 577.374 370.724 576.101 368.766 574.974C366.816 573.851 364.838 572.85 363.244 572.394L362.969 573.356ZM373.722 579.232C374.709 579.87 375.56 580.421 376.164 580.777C376.462 580.952 376.724 581.095 376.922 581.175C377.007 581.21 377.144 581.26 377.286 581.263C377.358 581.264 377.508 581.254 377.648 581.145C377.81 581.018 377.856 580.841 377.856 580.713H376.856C376.856 580.619 376.891 580.467 377.033 580.356C377.151 580.264 377.27 580.262 377.3 580.263C377.359 580.263 377.372 580.279 377.298 580.249C377.174 580.199 376.967 580.09 376.672 579.916C376.09 579.573 375.26 579.036 374.265 578.392L373.722 579.232ZM248.603 511.75C248.669 512.044 248.901 512.231 249.072 512.342C249.264 512.465 249.511 512.574 249.789 512.674C250.348 512.873 251.124 513.064 252.07 513.247C253.966 513.613 256.617 513.961 259.745 514.272C266.003 514.894 274.215 515.373 282.216 515.558C290.213 515.743 298.02 515.634 303.463 515.074C306.171 514.796 308.349 514.401 309.673 513.85C310.315 513.582 310.878 513.229 311.123 512.725C311.256 512.453 311.285 512.156 311.204 511.857C311.126 511.571 310.956 511.311 310.735 511.074L310.004 511.756C310.156 511.92 310.218 512.041 310.239 512.119C310.256 512.184 310.251 512.233 310.224 512.288C310.15 512.44 309.895 512.674 309.288 512.926C308.112 513.416 306.065 513.801 303.361 514.079C297.981 514.632 290.224 514.743 282.239 514.558C274.259 514.374 266.072 513.896 259.843 513.277C256.727 512.967 254.111 512.623 252.26 512.265C251.331 512.085 250.613 511.906 250.125 511.732C249.879 511.644 249.714 511.565 249.614 511.501C249.493 511.423 249.554 511.422 249.578 511.528L248.603 511.75ZM249.578 511.528C249.446 510.95 249.597 510.365 250.032 509.781C250.473 509.187 251.195 508.615 252.146 508.116C254.045 507.12 256.741 506.476 259.52 506.5L259.529 505.5C256.608 505.475 253.745 506.147 251.681 507.231C250.65 507.772 249.79 508.43 249.229 509.184C248.663 509.946 248.392 510.824 248.603 511.75L249.578 511.528ZM310.735 511.074C308.953 509.163 307.458 507.892 305.676 507.039C303.898 506.187 301.875 505.772 299.072 505.502L298.976 506.498C301.738 506.763 303.623 507.164 305.244 507.941C306.863 508.716 308.258 509.884 310.004 511.756L310.735 511.074ZM259.524 506.5L299.024 506.5L299.024 505.5L259.524 505.5L259.524 506.5ZM264.896 452.949L304.084 443.687L303.854 442.714L264.666 451.976L264.896 452.949ZM303.471 443.151L296.527 512.951L297.522 513.05L304.466 443.25L303.471 443.151ZM297.017 512.5C282.921 512.704 274.927 512.472 260.558 511.501L260.491 512.499C274.885 513.471 282.907 513.704 297.032 513.5L297.017 512.5ZM261.023 512.036L265.28 452.498L264.283 452.427L260.026 511.964L261.023 512.036ZM273.331 476.688C272.867 476.873 272.867 476.873 272.867 476.873C272.867 476.873 272.867 476.874 272.867 476.874C272.867 476.874 272.867 476.874 272.868 476.875C272.868 476.876 272.869 476.877 272.869 476.879C272.871 476.882 272.873 476.887 272.875 476.894C272.881 476.908 272.889 476.928 272.9 476.954C272.921 477.007 272.952 477.084 272.992 477.182C273.071 477.379 273.186 477.661 273.325 478.002C273.604 478.682 273.984 479.598 274.386 480.536C274.788 481.473 275.214 482.438 275.586 483.216C275.771 483.604 275.946 483.951 276.099 484.227C276.242 484.483 276.395 484.733 276.54 484.879L277.247 484.172C277.215 484.139 277.123 484.01 276.973 483.741C276.834 483.491 276.669 483.164 276.488 482.784C276.125 482.025 275.705 481.075 275.305 480.142C274.906 479.21 274.528 478.3 274.25 477.622C274.112 477.284 273.998 477.003 273.919 476.808C273.879 476.71 273.848 476.633 273.827 476.581C273.817 476.555 273.809 476.535 273.804 476.522C273.801 476.515 273.799 476.51 273.798 476.507C273.797 476.505 273.796 476.504 273.796 476.503C273.796 476.503 273.796 476.502 273.796 476.502C273.796 476.502 273.796 476.502 273.796 476.502C273.796 476.502 273.796 476.502 273.331 476.688ZM276.54 484.879C276.7 485.039 276.926 485.112 277.159 485.057C277.347 485.012 277.486 484.896 277.574 484.808C277.757 484.625 277.928 484.348 278.082 484.058C278.399 483.459 278.742 482.608 279.055 481.759C279.37 480.904 279.662 480.028 279.875 479.368C279.981 479.037 280.068 478.76 280.128 478.565C280.158 478.468 280.182 478.391 280.198 478.338C280.206 478.312 280.212 478.291 280.216 478.278C280.218 478.271 280.22 478.265 280.221 478.262C280.222 478.26 280.222 478.259 280.222 478.258C280.222 478.257 280.223 478.257 280.223 478.257C280.223 478.257 280.223 478.256 280.223 478.256C280.223 478.256 280.223 478.256 279.744 478.113C279.265 477.969 279.265 477.969 279.265 477.969C279.265 477.969 279.265 477.969 279.265 477.969C279.265 477.969 279.265 477.97 279.265 477.97C279.264 477.971 279.264 477.972 279.263 477.974C279.262 477.977 279.261 477.982 279.259 477.988C279.255 478.002 279.249 478.021 279.241 478.047C279.226 478.098 279.203 478.174 279.173 478.27C279.114 478.461 279.028 478.735 278.923 479.061C278.712 479.715 278.425 480.576 278.117 481.413C277.806 482.256 277.482 483.053 277.198 483.59C277.051 483.867 276.938 484.03 276.867 484.101C276.829 484.139 276.849 484.103 276.927 484.084C277.051 484.055 277.176 484.1 277.247 484.172L276.54 484.879ZM279.744 478.113C279.277 478.292 279.277 478.292 279.277 478.292C279.277 478.292 279.277 478.292 279.277 478.293C279.277 478.293 279.278 478.293 279.278 478.294C279.278 478.295 279.279 478.297 279.28 478.299C279.282 478.304 279.284 478.31 279.288 478.319C279.294 478.337 279.305 478.363 279.318 478.398C279.345 478.466 279.384 478.567 279.434 478.696C279.535 478.953 279.68 479.321 279.858 479.768C280.216 480.661 280.707 481.867 281.244 483.119C281.78 484.369 282.363 485.671 282.904 486.753C283.174 487.293 283.436 487.784 283.679 488.189C283.917 488.585 284.154 488.93 284.378 489.154L285.085 488.446C284.952 488.314 284.767 488.058 284.537 487.674C284.312 487.3 284.062 486.834 283.798 486.305C283.27 485.249 282.696 483.968 282.163 482.725C281.63 481.483 281.142 480.285 280.787 479.396C280.609 478.952 280.465 478.586 280.365 478.331C280.315 478.204 280.277 478.104 280.25 478.036C280.237 478.002 280.227 477.976 280.221 477.959C280.217 477.95 280.215 477.944 280.213 477.939C280.212 477.937 280.211 477.936 280.211 477.935C280.211 477.934 280.211 477.934 280.211 477.933C280.211 477.933 280.211 477.933 280.211 477.933C280.21 477.933 280.21 477.933 279.744 478.113ZM284.378 489.154C284.548 489.324 284.806 489.458 285.113 489.386C285.373 489.324 285.551 489.138 285.663 488.989C285.894 488.681 286.087 488.196 286.255 487.658C286.6 486.554 286.916 484.966 287.184 483.36C287.453 481.748 287.676 480.093 287.833 478.843C287.911 478.217 287.972 477.692 288.014 477.323C288.035 477.138 288.051 476.993 288.062 476.894C288.067 476.844 288.072 476.806 288.074 476.78C288.076 476.767 288.077 476.757 288.077 476.75C288.078 476.747 288.078 476.744 288.078 476.743C288.078 476.742 288.078 476.741 288.078 476.741C288.078 476.74 288.079 476.74 288.079 476.74C288.079 476.74 288.079 476.74 287.581 476.688C287.084 476.635 287.084 476.635 287.084 476.635C287.084 476.635 287.084 476.636 287.084 476.636C287.084 476.636 287.084 476.637 287.084 476.637C287.084 476.639 287.083 476.641 287.083 476.645C287.082 476.651 287.081 476.66 287.08 476.673C287.077 476.698 287.073 476.736 287.068 476.785C287.057 476.883 287.041 477.027 287.02 477.21C286.979 477.576 286.918 478.097 286.84 478.719C286.685 479.962 286.463 481.602 286.197 483.196C285.931 484.796 285.624 486.326 285.301 487.36C285.135 487.89 284.983 488.229 284.863 488.389C284.8 488.473 284.801 488.432 284.884 488.412C285.013 488.382 285.093 488.454 285.085 488.446L284.378 489.154ZM287.581 476.688C287.107 476.846 287.107 476.846 287.107 476.846C287.107 476.846 287.107 476.846 287.107 476.846C287.107 476.846 287.107 476.847 287.108 476.847C287.108 476.849 287.108 476.85 287.109 476.852C287.111 476.857 287.113 476.863 287.115 476.871C287.121 476.888 287.129 476.912 287.14 476.943C287.161 477.006 287.192 477.098 287.232 477.215C287.312 477.447 287.427 477.778 287.567 478.169C287.846 478.952 288.228 479.984 288.633 480.974C289.034 481.955 289.47 482.923 289.86 483.561C290.044 483.862 290.262 484.167 290.509 484.332C290.639 484.418 290.856 484.518 291.113 484.451C291.37 484.384 291.515 484.189 291.591 484.036L290.697 483.589C290.684 483.615 290.723 483.519 290.86 483.484C290.996 483.448 291.079 483.51 291.064 483.5C291.018 483.469 290.897 483.34 290.713 483.04C290.368 482.476 289.958 481.573 289.558 480.595C289.161 479.625 288.786 478.609 288.509 477.833C288.37 477.446 288.257 477.119 288.178 476.89C288.139 476.775 288.108 476.685 288.087 476.623C288.077 476.592 288.069 476.569 288.064 476.553C288.061 476.545 288.059 476.539 288.058 476.535C288.057 476.533 288.056 476.532 288.056 476.531C288.056 476.53 288.056 476.53 288.056 476.53C288.056 476.53 288.056 476.53 288.056 476.529C288.056 476.529 288.056 476.529 287.581 476.688ZM291.591 484.036C291.966 483.286 292.87 480.75 293.665 478.454C294.066 477.295 294.445 476.18 294.724 475.356C294.863 474.943 294.977 474.604 295.057 474.367C295.096 474.248 295.127 474.156 295.148 474.092C295.159 474.061 295.167 474.037 295.172 474.02C295.175 474.012 295.177 474.006 295.179 474.002C295.179 474 295.18 473.998 295.18 473.997C295.18 473.997 295.18 473.996 295.181 473.996C295.181 473.996 295.181 473.996 295.181 473.996C295.181 473.996 295.181 473.996 294.706 473.838C294.232 473.679 294.232 473.679 294.232 473.68C294.232 473.68 294.232 473.68 294.232 473.68C294.232 473.68 294.232 473.68 294.231 473.681C294.231 473.682 294.231 473.684 294.23 473.686C294.229 473.69 294.227 473.696 294.224 473.704C294.218 473.72 294.21 473.744 294.2 473.775C294.179 473.838 294.148 473.931 294.108 474.049C294.029 474.285 293.915 474.624 293.776 475.036C293.498 475.859 293.12 476.971 292.72 478.127C291.911 480.463 291.034 482.914 290.697 483.589L291.591 484.036ZM15.6012 461.121C15.3306 463.605 15.5968 465.373 16.4619 466.423C17.3696 467.524 18.7829 467.673 20.3461 467.303C21.9136 466.932 23.7773 466.013 25.8024 464.756C27.8354 463.495 30.0652 461.871 32.3705 460.062C36.98 456.443 41.9257 452.051 46.2457 448.262C50.5903 444.451 54.2615 441.288 56.3709 440.059L55.8675 439.195C53.6527 440.485 49.8913 443.734 45.5863 447.51C41.2566 451.308 36.3357 455.677 31.753 459.275C29.4622 461.074 27.2645 462.672 25.2751 463.907C23.2779 465.146 21.5242 465.997 20.1158 466.33C18.7033 466.665 17.7823 466.452 17.2336 465.787C16.6422 465.069 16.33 463.664 16.5953 461.229L15.6012 461.121ZM56.3709 440.059C57.131 439.616 57.4478 439.701 57.5956 439.809C57.6955 439.882 57.8078 440.022 57.9142 440.277C58.0199 440.531 58.1063 440.866 58.1741 441.286C58.31 442.129 58.3589 443.23 58.3875 444.532C58.4159 445.821 58.4242 447.303 58.4844 448.856C58.7238 455.029 59.7857 462.825 66.612 466.305L67.0662 465.414C60.8062 462.223 59.7245 455.029 59.4837 448.817C59.4238 447.274 59.4161 445.822 59.3873 444.51C59.3588 443.212 59.3096 442.047 59.1613 441.127C59.087 440.667 58.9848 440.247 58.8373 439.893C58.6905 439.54 58.485 439.22 58.1843 439.001C57.5309 438.525 56.7155 438.701 55.8675 439.195L56.3709 440.059ZM66.612 466.305C73.0926 469.609 79.7968 471.52 86.1725 471.042C92.5671 470.563 98.5871 467.684 103.673 461.493L102.9 460.858C97.9811 466.846 92.2096 469.587 86.0978 470.045C79.9672 470.505 73.4501 468.668 67.0662 465.414L66.612 466.305ZM103.673 461.493C106.199 458.418 108.18 455.229 109.869 452.399C111.569 449.55 112.95 447.108 114.305 445.447C115.666 443.779 116.855 443.077 118.159 443.351C118.841 443.495 119.621 443.916 120.532 444.73C121.441 445.543 122.455 446.725 123.605 448.348L124.421 447.77C123.248 446.114 122.184 444.866 121.198 443.984C120.213 443.104 119.279 442.566 118.365 442.373C116.474 441.974 114.939 443.088 113.53 444.815C112.115 446.55 110.682 449.086 109.01 451.887C107.327 454.708 105.377 457.843 102.9 460.858L103.673 461.493ZM123.605 448.348C132.712 461.205 135.613 467.728 140.457 478.617L141.371 478.21C136.515 467.295 133.583 460.705 124.421 447.77L123.605 448.348ZM140.457 478.617L140.708 479.179L141.621 478.772L141.371 478.21L140.457 478.617ZM140.708 479.179C141.971 482.018 143.175 483.96 144.35 485.161C145.535 486.372 146.738 486.872 147.957 486.697C149.14 486.528 150.208 485.737 151.18 484.675C152.159 483.604 153.101 482.192 154.02 480.66C155.883 477.556 157.647 473.992 159.561 471.374C160.512 470.073 161.46 469.066 162.419 468.494C163.355 467.936 164.285 467.797 165.276 468.197L165.65 467.27C164.318 466.732 163.06 466.947 161.906 467.636C160.775 468.311 159.732 469.446 158.754 470.784C156.808 473.445 154.959 477.153 153.163 480.145C152.252 481.663 151.352 483.005 150.442 484C149.525 485.002 148.655 485.587 147.815 485.707C147.012 485.823 146.108 485.528 145.065 484.461C144.012 483.386 142.866 481.569 141.621 478.772L140.708 479.179ZM217.212 466.131C225.123 478.387 236.617 487.801 243.801 492.51L244.349 491.674C237.24 487.014 225.864 477.691 218.052 465.588L217.212 466.131ZM243.801 492.51C244.979 493.282 246.343 493.204 247.751 492.599C249.149 491.999 250.662 490.854 252.243 489.361C255.41 486.371 258.983 481.856 262.626 477.055C266.279 472.239 270.007 467.129 273.511 462.893C275.262 460.777 276.949 458.891 278.532 457.377C280.121 455.859 281.581 454.74 282.878 454.133L282.454 453.227C281.012 453.902 279.459 455.108 277.841 456.654C276.218 458.206 274.504 460.125 272.741 462.256C269.218 466.513 265.465 471.657 261.829 476.451C258.181 481.259 254.655 485.709 251.557 488.634C250.005 490.099 248.594 491.149 247.357 491.68C246.13 492.207 245.148 492.197 244.349 491.674L243.801 492.51ZM282.878 454.133C285.198 453.047 287.476 453.376 289.709 454.672C291.963 455.981 294.142 458.262 296.176 461.013C300.244 466.514 303.617 473.726 305.799 478.256L306.7 477.822C304.531 473.32 301.116 466.011 296.981 460.419C294.914 457.624 292.638 455.216 290.211 453.808C287.765 452.387 285.137 451.971 282.454 453.227L282.878 454.133ZM305.799 478.256C307.943 482.704 309.739 486.297 311.396 489.001C313.045 491.692 314.597 493.574 316.279 494.519C318.014 495.494 319.823 495.438 321.85 494.428C323.842 493.435 326.08 491.507 328.766 488.689L328.042 487.999C325.369 490.803 323.23 492.622 321.404 493.533C319.611 494.426 318.16 494.428 316.769 493.647C315.324 492.835 313.883 491.145 312.249 488.478C310.622 485.824 308.846 482.274 306.7 477.822L305.799 478.256ZM328.766 488.689C330.461 486.912 331.926 484.368 333.195 481.456C334.467 478.537 335.554 475.217 336.479 471.863C338.329 465.154 339.539 458.269 340.271 454.112L339.286 453.939C338.554 458.099 337.35 464.94 335.515 471.597C334.597 474.925 333.524 478.196 332.278 481.056C331.03 483.922 329.62 486.345 328.042 487.999L328.766 488.689ZM340.271 454.112L340.331 453.767L339.346 453.594L339.286 453.939L340.271 454.112ZM340.335 453.743C346.303 406.644 334.605 332.394 317.486 262.409C300.364 192.414 277.79 126.572 261.943 96.2684L261.057 96.7318C276.847 126.928 299.398 192.676 316.514 262.647C333.633 332.627 345.286 406.717 339.343 453.617L340.335 453.743ZM165.276 468.197C165.699 468.368 166.185 468.819 166.752 469.597C167.308 470.362 167.895 471.374 168.547 472.571C169.84 474.948 171.369 478.026 173.335 481.095C177.272 487.242 183.053 493.503 192.57 494.463L192.67 493.468C183.606 492.554 178.051 486.604 174.177 480.556C172.237 477.527 170.741 474.512 169.425 472.093C168.772 470.892 168.158 469.831 167.56 469.009C166.972 468.201 166.348 467.551 165.65 467.27L165.276 468.197ZM192.767 494.443C195.971 493.455 198.79 490.577 201.286 487.083C203.792 483.574 206.038 479.347 208.058 475.541C210.093 471.704 211.879 468.337 213.489 466.447C214.304 465.49 214.983 465.025 215.533 464.959C216.009 464.903 216.569 465.135 217.212 466.131L218.052 465.588C217.318 464.451 216.443 463.843 215.415 463.966C214.461 464.08 213.566 464.814 212.728 465.799C211.029 467.793 209.184 471.284 207.174 475.072C205.148 478.891 202.933 483.057 200.472 486.502C197.999 489.963 195.343 492.602 192.472 493.488L192.767 494.443ZM261.943 96.2684C246.023 65.8235 213.955 50.6235 182.443 50.9375C150.929 51.2516 119.886 67.0848 106.042 98.8L106.958 99.2C120.614 67.9152 151.252 52.2484 182.453 51.9375C213.658 51.6265 245.34 66.6766 261.057 96.7318L261.943 96.2684ZM106.042 98.8C81.5236 154.968 20.5994 255.744 15.5984 461.163L16.5981 461.187C21.5935 255.997 82.4255 155.402 106.958 99.2L106.042 98.8ZM250.953 82.7116C254.207 75.7429 256.865 70.2709 259.379 65.9965C261.892 61.7225 264.244 58.6773 266.874 56.5421C272.106 52.295 278.555 51.5523 289.995 52.237L290.055 51.2388C278.604 50.5534 271.798 51.2568 266.244 55.7657C263.481 58.0085 261.058 61.1688 258.517 65.4896C255.976 69.81 253.3 75.3221 250.047 82.2885L250.953 82.7116ZM290.025 51.7379C289.945 52.2314 289.945 52.2314 289.945 52.2314C289.945 52.2315 289.946 52.2315 289.946 52.2316C289.947 52.2318 289.949 52.232 289.951 52.2324C289.955 52.233 289.961 52.234 289.969 52.2353C289.985 52.238 290.009 52.242 290.041 52.2472C290.105 52.2578 290.2 52.2736 290.325 52.2944C290.574 52.3361 290.941 52.3978 291.41 52.4783C292.35 52.6393 293.702 52.8752 295.351 53.1744C298.65 53.7729 303.134 54.6248 307.879 55.6381C312.625 56.6518 317.627 57.8258 321.962 59.0684C326.313 60.3157 329.939 61.6176 331.971 62.8731L332.497 62.0224C330.334 60.6864 326.586 59.3537 322.237 58.1071C317.871 56.8556 312.845 55.6761 308.088 54.6602C303.33 53.644 298.835 52.7902 295.53 52.1905C293.877 51.8906 292.522 51.6542 291.579 51.4927C291.108 51.412 290.74 51.3499 290.49 51.3081C290.364 51.2872 290.269 51.2713 290.204 51.2606C290.172 51.2553 290.147 51.2513 290.131 51.2486C290.123 51.2472 290.116 51.2462 290.112 51.2455C290.11 51.2452 290.109 51.2449 290.108 51.2447C290.107 51.2447 290.107 51.2446 290.106 51.2445C290.106 51.2445 290.106 51.2445 290.025 51.7379ZM331.971 62.8731C333.403 63.7577 334.969 63.8403 336.566 63.3372C338.146 62.8396 339.766 61.7685 341.372 60.3304C344.586 57.4528 347.866 52.9958 350.809 48.2567C353.757 43.5101 356.387 38.4476 358.294 34.3325C359.247 32.2749 360.022 30.4495 360.566 29.0151C360.838 28.2983 361.054 27.6745 361.207 27.1655C361.355 26.6685 361.455 26.2443 361.471 25.9433L360.473 25.8875C360.463 26.0618 360.395 26.3886 360.248 26.8789C360.105 27.3571 359.898 27.9569 359.631 28.6604C359.098 30.0668 358.333 31.8696 357.386 33.9121C355.494 37.9972 352.883 43.0228 349.96 47.7291C347.032 52.443 343.811 56.8037 340.705 59.5854C339.15 60.977 337.655 61.9459 336.266 62.3834C334.895 62.8154 333.639 62.728 332.497 62.0224L331.971 62.8731ZM361.471 25.9433C361.493 25.5554 361.324 25.1389 361.1 24.7466C360.865 24.337 360.525 23.8761 360.103 23.3777C359.258 22.3793 358.044 21.1816 356.581 19.8715C353.652 17.2486 349.682 14.1371 345.548 11.2072C341.414 8.27785 337.104 5.52012 333.495 3.60989C331.691 2.65557 330.049 1.90509 328.683 1.4522C328 1.22577 327.373 1.06933 326.822 1.00212C326.277 0.935691 325.766 0.95124 325.338 1.10679L325.68 2.04656C325.898 1.96713 326.231 1.93751 326.701 1.99477C327.164 2.05124 327.723 2.18735 328.368 2.40139C329.659 2.82941 331.246 3.55148 333.027 4.49374C336.584 6.37665 340.856 9.10813 344.969 12.0231C349.082 14.9376 353.021 18.0255 355.914 20.6164C357.362 21.9132 358.537 23.0759 359.34 24.0239C359.742 24.4986 360.04 24.9073 360.232 25.243C360.433 25.5959 360.478 25.8001 360.473 25.8875L361.471 25.9433ZM325.338 1.10679C324.579 1.38289 323.79 2.02447 323.005 2.86459C322.21 3.71529 321.377 4.81585 320.538 6.07447C318.858 8.59276 317.124 11.7862 315.584 14.9837C314.044 18.1825 312.691 21.3993 311.775 23.9696C311.317 25.2536 310.965 26.3858 310.755 27.2784C310.649 27.7241 310.577 28.121 310.545 28.4532C310.516 28.767 310.515 29.0904 310.609 29.3477L311.548 29.0057C311.535 28.9693 311.514 28.8349 311.541 28.5472C311.566 28.2781 311.628 27.9302 311.728 27.5083C311.927 26.6659 312.265 25.5721 312.717 24.3053C313.619 21.7741 314.957 18.5902 316.485 15.4176C318.014 12.2438 319.725 9.09518 321.369 6.6293C322.192 5.39583 322.991 4.34377 323.735 3.54738C324.489 2.74041 325.147 2.24042 325.68 2.04656L325.338 1.10679ZM310.609 29.3477C310.762 29.7678 311.156 30.2084 311.631 30.6317C312.125 31.0723 312.777 31.5546 313.536 32.0513C315.057 33.0456 317.048 34.1215 319.17 35.0619C321.292 36.0019 323.561 36.8138 325.637 37.2717C327.692 37.7251 329.642 37.8509 331.073 37.3299L330.731 36.3902C329.578 36.8098 327.864 36.7391 325.852 36.2952C323.86 35.8559 321.657 35.0699 319.575 34.1476C317.495 33.2257 315.552 32.1748 314.084 31.2143C313.348 30.7336 312.741 30.2815 312.297 29.8853C311.833 29.4717 311.609 29.1728 311.548 29.0057L310.609 29.3477ZM331.073 37.3299C333.808 36.3343 336.264 33.6273 338.004 31.2591C338.884 30.062 339.599 28.9259 340.094 28.0893C340.342 27.6706 340.535 27.3262 340.666 27.0857C340.732 26.9655 340.783 26.8711 340.817 26.8064C340.834 26.774 340.847 26.7491 340.856 26.732C340.86 26.7234 340.864 26.7168 340.866 26.7123C340.867 26.71 340.868 26.7082 340.869 26.707C340.869 26.7063 340.869 26.7058 340.87 26.7055C340.87 26.7053 340.87 26.7051 340.87 26.705C340.87 26.7048 340.87 26.7047 340.425 26.4768C339.98 26.2489 339.98 26.2488 339.98 26.2488C339.98 26.2488 339.98 26.2488 339.98 26.2489C339.98 26.249 339.98 26.2493 339.979 26.2497C339.979 26.2505 339.978 26.2518 339.977 26.2536C339.976 26.2573 339.973 26.2629 339.969 26.2705C339.961 26.2857 339.949 26.3087 339.933 26.3391C339.901 26.3998 339.852 26.49 339.789 26.6059C339.662 26.8377 339.475 27.1722 339.233 27.58C338.75 28.3963 338.054 29.5033 337.199 30.6669C335.469 33.0201 333.164 35.5046 330.731 36.3902L331.073 37.3299ZM340.425 26.4768C340.254 26.0069 340.254 26.0069 340.254 26.0069C340.254 26.007 340.254 26.007 340.254 26.007C340.254 26.0071 340.253 26.0072 340.253 26.0075C340.251 26.0079 340.249 26.0086 340.247 26.0095C340.242 26.0113 340.234 26.0142 340.223 26.018C340.202 26.0255 340.17 26.0369 340.128 26.0516C340.044 26.081 339.919 26.1238 339.759 26.1768C339.44 26.2828 338.981 26.4295 338.424 26.5912C337.308 26.9151 335.809 27.2965 334.263 27.5329C332.708 27.7704 331.146 27.8548 329.888 27.611C328.632 27.3678 327.781 26.8237 327.439 25.8826L326.499 26.2246C327.011 27.6327 328.27 28.3161 329.698 28.5928C331.123 28.8688 332.818 28.7653 334.414 28.5214C336.018 28.2762 337.562 27.8825 338.702 27.5516C339.273 27.3859 339.745 27.2353 340.074 27.1259C340.239 27.0711 340.369 27.0267 340.457 26.9957C340.502 26.9803 340.536 26.9682 340.559 26.9599C340.571 26.9557 340.58 26.9525 340.586 26.9503C340.589 26.9492 340.591 26.9483 340.593 26.9477C340.594 26.9474 340.595 26.9471 340.595 26.947C340.595 26.9469 340.596 26.9468 340.596 26.9468C340.596 26.9467 340.596 26.9466 340.425 26.4768ZM327.439 25.8826C326.606 23.5939 326.335 20.9561 327.425 18.8475C328.497 16.7753 330.973 15.0509 336.008 14.76L335.95 13.7616C330.715 14.0641 327.831 15.8869 326.537 18.3881C325.263 20.8529 325.622 23.8149 326.499 26.2246L327.439 25.8826ZM343.107 38.6403C344.224 36.1283 345.297 33.8434 346.034 31.7261C346.774 29.6031 347.197 27.5948 346.985 25.6184C346.557 21.6229 343.572 17.9963 336.226 13.826L335.732 14.6956C343.017 18.8312 345.617 22.2367 345.991 25.7249C346.18 27.4904 345.808 29.3368 345.09 31.3971C344.37 33.463 343.324 35.69 342.193 38.234L343.107 38.6403ZM342.393 38.0081C332.103 44.1675 323.309 47.4455 311.985 46.2233C300.622 44.9968 286.655 39.2333 266.05 27.1356L265.544 27.9979C286.168 40.1075 300.29 45.9669 311.877 47.2175C323.504 48.4725 332.522 45.082 342.907 38.8662L342.393 38.0081ZM265.521 27.1497L217.224 59.083L217.776 59.9171L266.073 27.9838L265.521 27.1497ZM217.069 59.753C221.498 67.3032 224.906 71.4469 229.705 74.5358C234.47 77.6036 240.586 79.6131 250.337 82.9728L250.663 82.0273C240.854 78.6475 234.884 76.6806 230.246 73.695C225.641 70.7306 222.329 66.744 217.931 59.247L217.069 59.753ZM115.877 85.0495C109.371 71.118 104.198 62.7809 97.7184 58.1283C91.2097 53.4547 83.4633 52.5523 71.9925 53.2388L72.0522 54.237C83.4731 53.5535 90.9198 54.4776 97.1352 58.9406C103.38 63.4245 108.462 71.534 114.971 85.4726L115.877 85.0495ZM72.0224 53.7379C71.9417 53.2445 71.9416 53.2445 71.9413 53.2445C71.941 53.2446 71.9406 53.2447 71.9401 53.2447C71.939 53.2449 71.9374 53.2452 71.9353 53.2455C71.9312 53.2462 71.925 53.2472 71.9167 53.2486C71.9003 53.2513 71.8758 53.2553 71.8436 53.2606C71.779 53.2713 71.6833 53.2872 71.5581 53.3081C71.3077 53.3499 70.9396 53.412 70.4684 53.4927C69.5259 53.6542 68.1704 53.8906 66.5178 54.1905C63.2129 54.7902 58.718 55.644 53.9598 56.6602C49.2027 57.6761 44.1764 58.8556 39.8106 60.1071C35.4615 61.3537 31.7136 62.6864 29.5511 64.0224L30.0767 64.8731C32.109 63.6176 35.7345 62.3157 40.0861 61.0684C44.4208 59.8258 49.4223 58.6518 54.1687 57.6381C58.9138 56.6248 63.3981 55.7729 66.6963 55.1744C68.3453 54.8752 69.6975 54.6393 70.6373 54.4783C71.1071 54.3978 71.4738 54.3361 71.7229 54.2944C71.8475 54.2736 71.9426 54.2578 72.0066 54.2472C72.0386 54.242 72.0627 54.238 72.0789 54.2353C72.087 54.234 72.093 54.233 72.097 54.2324C72.0991 54.232 72.1006 54.2318 72.1016 54.2316C72.1021 54.2315 72.1024 54.2315 72.1027 54.2314C72.1029 54.2314 72.103 54.2314 72.0224 53.7379ZM29.5511 64.0224C28.4089 64.728 27.1531 64.8154 25.7817 64.3834C24.3929 63.9459 22.8972 62.977 21.343 61.5854C18.2363 58.8037 15.0155 54.443 12.0879 49.7291C9.1649 45.0228 6.55397 39.9972 4.66119 35.9121C3.71483 33.8696 2.95011 32.0668 2.41653 30.6604C2.1496 29.9569 1.94228 29.3571 1.79919 28.8789C1.65251 28.3886 1.58452 28.0618 1.57479 27.8875L0.576343 27.9433C0.593151 28.2443 0.692449 28.6685 0.841152 29.1655C0.993443 29.6745 1.2096 30.2983 1.48156 31.0151C2.02575 32.4495 2.80048 34.2749 3.75386 36.3325C5.66057 40.4476 8.29035 45.5101 11.2384 50.2567C14.1816 54.9958 17.4621 59.4528 20.676 62.3304C22.2821 63.7685 23.9015 64.8396 25.4813 65.3372C27.0785 65.8403 28.6448 65.7577 30.0767 64.8731L29.5511 64.0224ZM1.57479 27.8875C1.56991 27.8001 1.61434 27.5959 1.81612 27.243C2.00802 26.9073 2.30607 26.4986 2.70802 26.0239C3.51058 25.0759 4.68583 23.9132 6.13381 22.6164C9.02687 20.0255 12.966 16.9376 17.0783 14.0231C21.1912 11.1081 25.4632 8.37665 29.0209 6.49374C30.8013 5.55148 32.3885 4.82941 33.6794 4.40139C34.325 4.18735 34.8834 4.05124 35.3467 3.99477C35.8164 3.93751 36.1493 3.96713 36.3677 4.04656L36.7095 3.10679C36.2818 2.95124 35.7706 2.93569 35.2257 3.00212C34.6743 3.06933 34.0476 3.22577 33.3647 3.4522C31.9988 3.90509 30.3563 4.65557 28.5532 5.60989C24.9438 7.52012 20.6333 10.2778 16.5001 13.2072C12.3662 16.1371 8.39542 19.2486 5.46668 21.8715C4.00377 23.1816 2.79014 24.3793 1.94482 25.3777C1.52282 25.8761 1.18218 26.337 0.948004 26.7466C0.723715 27.1389 0.554687 27.5554 0.576343 27.9433L1.57479 27.8875ZM36.3677 4.04656C36.9007 4.24042 37.5583 4.74041 38.3124 5.54738C39.0567 6.34377 39.8556 7.39583 40.6782 8.6293C42.3227 11.0952 44.0338 14.2438 45.5623 17.4176C47.0902 20.5902 48.4289 23.7741 49.3309 26.3053C49.7824 27.5721 50.121 28.6659 50.3199 29.5083C50.4196 29.9302 50.4815 30.2781 50.5069 30.5472C50.5341 30.8349 50.5125 30.9693 50.4992 31.0057L51.4389 31.3477C51.5326 31.0904 51.5321 30.767 51.5025 30.4532C51.4711 30.121 51.3984 29.7241 51.2931 29.2784C51.0823 28.3858 50.7304 27.2536 50.2729 25.9696C49.357 23.3993 48.0037 20.1825 46.4632 16.9837C44.9233 13.7862 43.1896 10.5928 41.5101 8.07447C40.6708 6.81585 39.838 5.71529 39.043 4.86459C38.2579 4.02447 37.4686 3.38289 36.7095 3.10679L36.3677 4.04656ZM50.4992 31.0057C50.4384 31.1728 50.2149 31.4717 49.751 31.8853C49.3067 32.2815 48.6993 32.7336 47.9641 33.2143C46.4953 34.1748 44.553 35.2257 42.4723 36.1476C40.3908 37.0699 38.1873 37.8559 36.1956 38.2952C34.1832 38.7391 32.4695 38.8098 31.3167 38.3902L30.9747 39.3299C32.4061 39.8509 34.3555 39.7251 36.411 39.2717C38.4871 38.8138 40.756 38.0019 42.8774 37.0619C44.9997 36.1215 46.9907 35.0456 48.5114 34.0513C49.271 33.5546 49.9224 33.0723 50.4166 32.6317C50.8913 32.2084 51.286 31.7678 51.4389 31.3477L50.4992 31.0057ZM31.3167 38.3902C28.8837 37.5046 26.5782 35.0201 24.849 32.6669C23.9939 31.5033 23.2972 30.3963 22.8142 29.58C22.5729 29.1722 22.3854 28.8377 22.2586 28.6059C22.1952 28.49 22.147 28.3998 22.1149 28.3391C22.0989 28.3087 22.0868 28.2857 22.0789 28.2705C22.075 28.2629 22.0721 28.2573 22.0702 28.2536C22.0693 28.2518 22.0686 28.2505 22.0682 28.2497C22.068 28.2493 22.0678 28.249 22.0678 28.2489C22.0677 28.2488 22.0677 28.2488 22.0677 28.2488C22.0677 28.2488 22.0677 28.2489 21.6227 28.4768C21.1777 28.7047 21.1777 28.7048 21.1778 28.705C21.1779 28.7051 21.178 28.7053 21.1781 28.7055C21.1782 28.7058 21.1785 28.7063 21.1788 28.707C21.1795 28.7082 21.1804 28.71 21.1816 28.7123C21.1839 28.7168 21.1873 28.7234 21.1918 28.732C21.2007 28.7491 21.2137 28.774 21.2308 28.8064C21.265 28.8711 21.3155 28.9655 21.3812 29.0857C21.5128 29.3262 21.7059 29.6706 21.9536 30.0893C22.4486 30.9259 23.1635 32.062 24.0432 33.2591C25.7835 35.6273 28.2395 38.3343 30.9747 39.3299L31.3167 38.3902ZM21.6227 28.4768C21.4517 28.9466 21.4518 28.9467 21.452 28.9468C21.4521 28.9468 21.4524 28.9469 21.4526 28.947C21.4531 28.9471 21.4537 28.9474 21.4546 28.9477C21.4562 28.9483 21.4586 28.9492 21.4617 28.9503C21.4679 28.9525 21.4768 28.9557 21.4885 28.9599C21.5118 28.9682 21.546 28.9803 21.5903 28.9957C21.679 29.0267 21.8084 29.0711 21.9732 29.1259C22.3028 29.2353 22.7744 29.3859 23.3454 29.5516C24.4854 29.8825 26.0298 30.2762 27.634 30.5214C29.23 30.7653 30.9251 30.8688 32.3501 30.5928C33.778 30.3161 35.0363 29.6327 35.5488 28.2246L34.6091 27.8826C34.2666 28.8237 33.4153 29.3678 32.1599 29.611C30.9015 29.8548 29.3394 29.7704 27.7851 29.5329C26.239 29.2965 24.7399 28.9151 23.6241 28.5912C23.0672 28.4295 22.6077 28.2828 22.2883 28.1768C22.1286 28.1238 22.004 28.081 21.9198 28.0516C21.8777 28.0369 21.8457 28.0255 21.8244 28.018C21.8138 28.0142 21.8059 28.0113 21.8007 28.0095C21.7982 28.0086 21.7963 28.0079 21.7951 28.0075C21.7945 28.0072 21.7941 28.0071 21.7939 28.007C21.7938 28.007 21.7937 28.007 21.7937 28.0069C21.7937 28.0069 21.7937 28.0069 21.6227 28.4768ZM35.5488 28.2246C36.4259 25.8149 36.7851 22.8529 35.5105 20.3881C34.217 17.8869 31.3327 16.0641 26.0978 15.7616L26.0401 16.76C31.0749 17.0509 33.5506 18.7753 34.6222 20.8475C35.7127 22.9561 35.4421 25.5939 34.6091 27.8826L35.5488 28.2246ZM19.8547 40.234C18.7234 37.69 17.6772 35.463 16.9577 33.3971C16.24 31.3368 15.868 29.4904 16.0571 27.7249C16.4308 24.2367 19.0303 20.8312 26.3158 16.6956L25.8221 15.826C18.4753 19.9963 15.4908 23.6229 15.0628 27.6184C14.8511 29.5948 15.2739 31.6031 16.0133 33.7261C16.7508 35.8434 17.8239 38.1283 18.941 40.6403L19.8547 40.234ZM19.1411 40.8662C29.5257 47.082 38.5434 50.4725 50.1702 49.2175C61.7573 47.9669 75.8792 42.1075 96.5037 29.9979L95.9974 29.1356C75.3931 41.2333 61.4262 46.9968 50.0629 48.2233C38.7391 49.4455 29.9448 46.1675 19.6546 40.0081L19.1411 40.8662ZM95.9685 29.9796L142.718 61.9129L143.282 61.0872L96.5325 29.1539L95.9685 29.9796ZM142.561 61.261C139.338 67.1825 136.185 71.3745 132.014 74.9275C127.836 78.4864 122.614 81.425 115.216 84.8063L115.632 85.7158C123.057 82.3217 128.379 79.3375 132.663 75.6887C136.953 72.0339 140.176 67.7331 143.439 61.7391L142.561 61.261ZM304.765 288.044C280.968 298.71 255.263 293.519 232.69 284.039C210.103 274.553 190.809 260.851 179.747 254.565L179.253 255.435C190.191 261.649 209.647 275.447 232.302 284.961C254.972 294.481 281.001 299.79 305.174 288.956L304.765 288.044ZM179.747 254.565C172.149 250.248 165.199 249.08 158.953 250.483C152.713 251.885 147.247 255.837 142.578 261.621C133.252 273.174 127.012 292.153 124.052 313.337C121.089 334.537 121.4 358.021 125.237 378.641C129.069 399.241 136.438 417.076 147.671 426.877L148.329 426.124C137.353 416.547 130.039 398.986 126.22 378.458C122.404 357.951 122.093 334.576 125.042 313.476C127.993 292.359 134.199 273.594 143.356 262.249C147.929 256.584 153.214 252.798 159.172 251.459C165.124 250.122 171.82 251.211 179.253 255.435L179.747 254.565ZM147.671 426.877C156.654 434.714 168.791 439.043 182.451 441.041C196.113 443.04 211.339 442.712 226.541 441.201C256.932 438.182 287.347 430.419 305.064 426.991L304.874 426.01C287.075 429.453 256.773 437.193 226.442 440.206C211.283 441.712 196.146 442.034 182.595 440.052C169.041 438.069 157.113 433.789 148.329 426.124L147.671 426.877ZM305.469 426.5V288.5H304.469V426.5H305.469ZM217.338 208.002C230.453 204.306 240.792 201.277 251.47 200.624C262.126 199.971 273.141 201.686 287.566 207.532L287.942 206.605C273.403 200.713 262.239 198.962 251.409 199.625C240.601 200.287 230.147 203.353 217.067 207.04L217.338 208.002ZM216.452 206.399C221.729 187.034 226.615 171.712 231.548 161.022C234.015 155.677 236.482 151.515 238.999 148.589C241.516 145.662 244.047 144.014 246.638 143.606C249.219 143.201 251.963 144.011 254.948 146.223C257.939 148.439 261.137 152.037 264.591 157.129C271.497 167.311 279.354 183.351 288.599 205.892L289.524 205.512C280.274 182.96 272.386 166.84 265.418 156.568C261.935 151.433 258.663 147.731 255.543 145.419C252.417 143.103 249.408 142.159 246.483 142.619C243.569 143.077 240.842 144.913 238.241 147.937C235.638 150.963 233.125 155.218 230.64 160.603C225.669 171.374 220.766 186.765 215.488 206.136L216.452 206.399ZM133.382 206.949C144.522 203.563 153.926 201.106 164.64 200.709C175.353 200.311 187.406 201.972 203.826 206.865L204.112 205.907C187.622 200.993 175.456 199.307 164.603 199.709C153.753 200.112 144.246 202.601 133.091 205.992L133.382 206.949ZM132.466 205.35C137.746 185.975 142.636 170.651 147.574 159.967C150.043 154.626 152.513 150.469 155.032 147.552C157.552 144.634 160.085 142.996 162.679 142.601C165.263 142.208 168.012 143.033 171.003 145.264C173.999 147.499 177.203 151.12 180.663 156.237C187.583 166.469 195.455 182.572 204.72 205.189L205.646 204.81C196.376 182.18 188.472 165.998 181.492 155.677C178.002 150.517 174.725 146.793 171.601 144.463C168.47 142.128 165.457 141.167 162.529 141.612C159.61 142.056 156.88 143.882 154.275 146.898C151.669 149.916 149.154 154.166 146.666 159.548C141.691 170.312 136.783 185.706 131.501 205.087L132.466 205.35ZM203.826 206.865C205.068 207.235 206.112 205.948 205.646 204.81L204.72 205.189C204.893 205.61 204.486 206.018 204.112 205.907L203.826 206.865ZM133.091 205.992C132.738 206.099 132.356 205.754 132.466 205.35L131.501 205.087C131.197 206.202 132.229 207.299 133.382 206.949L133.091 205.992ZM287.566 207.532C288.842 208.048 290.015 206.708 289.524 205.512L288.599 205.892C288.785 206.346 288.32 206.758 287.942 206.605L287.566 207.532ZM217.067 207.04C216.715 207.139 216.345 206.794 216.452 206.399L215.488 206.136C215.187 207.239 216.196 208.324 217.338 208.002L217.067 207.04ZM201.105 202.011C194.188 200.529 190.08 198.505 178.543 197.502L178.457 198.498C189.92 199.495 193.812 201.471 200.895 202.989L201.105 202.011ZM178.979 198.143C181.162 190.851 182.898 185.682 184.459 182.475C185.241 180.866 185.956 179.802 186.622 179.207C187.263 178.635 187.809 178.532 188.354 178.726C188.964 178.944 189.673 179.566 190.502 180.718C191.321 181.855 192.209 183.439 193.199 185.471C195.18 189.535 197.534 195.307 200.537 202.688L201.463 202.312C198.466 194.943 196.098 189.134 194.098 185.033C193.099 182.983 192.182 181.339 191.314 180.133C190.456 178.943 189.597 178.108 188.69 177.784C187.717 177.438 186.797 177.71 185.956 178.461C185.141 179.19 184.357 180.397 183.559 182.037C181.958 185.328 180.201 190.573 178.021 197.857L178.979 198.143ZM284.605 202.011C281.132 201.267 278.69 200.285 275.584 199.334C272.49 198.387 268.831 197.505 263.043 197.002L262.957 197.998C268.669 198.495 272.259 199.363 275.291 200.291C278.31 201.215 280.868 202.233 284.395 202.989L284.605 202.011ZM263.479 197.643C265.662 190.348 267.337 185.209 268.806 182.045C269.544 180.456 270.205 179.422 270.813 178.859C271.111 178.583 271.375 178.44 271.607 178.385C271.832 178.332 272.064 178.352 272.323 178.464C272.876 178.704 273.529 179.353 274.306 180.541C275.07 181.71 275.906 183.325 276.851 185.383C278.741 189.498 281.033 195.303 284.037 202.688L284.963 202.312C281.967 194.947 279.662 189.108 277.759 184.965C276.808 182.894 275.948 181.226 275.143 179.994C274.35 178.78 273.56 177.91 272.721 177.547C272.284 177.357 271.832 177.304 271.377 177.412C270.93 177.518 270.517 177.77 270.133 178.126C269.376 178.827 268.648 180.01 267.899 181.624C266.394 184.864 264.7 190.075 262.521 197.357L263.479 197.643ZM128.258 122.428C137.807 116.683 145.591 113.677 154.132 113.531C162.684 113.385 172.06 116.106 184.791 121.954L185.209 121.046C172.433 115.177 162.893 112.382 154.114 112.532C145.324 112.682 137.362 115.784 127.742 121.572L128.258 122.428ZM128.156 122.475C139.642 118.691 148.452 116.887 157.059 116.863C165.665 116.839 174.104 118.594 184.85 121.977L185.15 121.023C174.358 117.626 165.808 115.839 157.056 115.863C148.303 115.888 139.382 117.724 127.843 121.525L128.156 122.475ZM210.258 121.403C219.807 115.658 227.591 112.652 236.132 112.506C244.684 112.36 254.06 115.08 266.791 120.929L267.209 120.02C254.433 114.151 244.893 111.356 236.114 111.506C227.324 111.656 219.362 114.758 209.742 120.546L210.258 121.403ZM210.156 121.449C221.642 117.665 230.452 115.861 239.059 115.837C247.665 115.813 256.104 117.569 266.85 120.951L267.15 119.997C256.358 116.6 247.808 114.813 239.056 114.837C230.303 114.862 221.382 116.698 209.843 120.499L210.156 121.449ZM51.2497 336.822C52.0744 338.653 60.9579 354.572 77.0884 374.734C93.2253 394.904 116.639 419.352 146.538 438.213C176.44 457.076 212.839 470.358 254.93 468.167C297.022 465.976 344.752 448.315 397.316 405.387L396.684 404.613C344.247 447.436 296.715 464.991 254.878 467.169C213.039 469.346 176.842 456.148 147.071 437.367C117.297 418.585 93.9629 394.225 77.8692 374.109C61.7692 353.985 52.9397 338.139 52.1615 336.412L51.2497 336.822ZM62.5984 328.298C102.027 381.48 149.359 423.038 201.652 439.781C253.978 456.535 311.199 448.419 370.307 402.395L369.693 401.605C310.818 447.449 253.936 455.472 201.956 438.828C149.943 422.174 102.767 380.798 63.4017 327.702L62.5984 328.298ZM370 402C370.486 402.115 370.486 402.115 370.486 402.115C370.486 402.115 370.487 402.115 370.487 402.114C370.487 402.114 370.487 402.113 370.487 402.112C370.488 402.11 370.489 402.106 370.49 402.102C370.492 402.093 370.495 402.079 370.499 402.061C370.508 402.026 370.52 401.972 370.537 401.903C370.57 401.764 370.62 401.559 370.683 401.299C370.81 400.777 370.993 400.031 371.219 399.13C371.672 397.327 372.296 394.91 372.982 392.447C373.668 389.982 374.415 387.479 375.112 385.502C375.461 384.513 375.794 383.666 376.098 383.026C376.25 382.705 376.391 382.445 376.518 382.248C376.65 382.043 376.746 381.94 376.8 381.9L376.2 381.1C376.004 381.247 375.831 381.468 375.677 381.707C375.518 381.953 375.357 382.255 375.195 382.597C374.87 383.283 374.523 384.167 374.169 385.17C373.46 387.178 372.707 389.706 372.018 392.178C371.329 394.653 370.703 397.079 370.249 398.886C370.022 399.79 369.839 400.539 369.711 401.063C369.648 401.324 369.598 401.53 369.565 401.67C369.548 401.74 369.535 401.793 369.526 401.83C369.522 401.848 369.519 401.861 369.517 401.871C369.516 401.875 369.515 401.879 369.514 401.881C369.514 401.882 369.514 401.883 369.514 401.884C369.513 401.884 369.513 401.884 369.513 401.885C369.513 401.885 369.513 401.885 370 402ZM376.8 381.9C377.579 381.316 379.008 381.367 379.84 382.5C380.672 383.634 381.014 386.031 379.046 390.29L379.954 390.71C381.969 386.348 381.81 383.495 380.647 381.909C379.483 380.323 377.42 380.185 376.2 381.1L376.8 381.9ZM379.914 390.781C384.871 383.469 390.523 378.848 395.662 376.486C400.82 374.115 405.386 374.047 408.252 375.684C409.675 376.498 410.7 377.74 411.199 379.377C411.701 381.021 411.68 383.097 410.943 385.576C409.465 390.543 405.135 397.031 396.666 404.628L397.334 405.372C405.865 397.719 410.348 391.082 411.901 385.861C412.679 383.247 412.729 380.964 412.156 379.085C411.581 377.198 410.387 375.753 408.748 374.816C405.489 372.954 400.555 373.136 395.244 375.577C389.914 378.027 384.129 382.782 379.086 390.219L379.914 390.781ZM63.4017 327.702C62.3896 326.337 61.3515 324.886 60.3306 323.582C59.3101 322.279 58.2809 321.089 57.27 320.242C56.273 319.406 55.204 318.828 54.1185 318.924C52.9975 319.023 52.0535 319.818 51.2667 321.261L52.1446 321.739C52.8579 320.432 53.566 319.977 54.2069 319.92C54.8832 319.86 55.6858 320.219 56.6276 321.008C57.5555 321.786 58.5326 322.908 59.5433 324.199C60.5536 325.489 61.5717 326.913 62.5984 328.298L63.4017 327.702ZM51.2538 321.286C50.1301 323.658 49.3563 325.368 48.885 326.703C48.4122 328.041 48.2276 329.046 48.3183 329.999C48.4084 330.948 48.7673 331.795 49.2727 332.811C49.7847 333.84 50.4532 335.054 51.2497 336.822L52.1615 336.412C51.3551 334.622 50.6597 333.354 50.168 332.366C49.6698 331.364 49.3853 330.658 49.3138 329.905C49.2427 329.157 49.3779 328.31 49.8279 327.036C50.2795 325.757 51.0313 324.092 52.1575 321.714L51.2538 321.286ZM165.447 280.697C163.701 280.198 162.582 278.637 161.965 276.265C161.35 273.898 161.272 270.844 161.519 267.603C162.014 261.128 163.796 254.07 164.973 250.663L164.027 250.337C162.828 253.811 161.024 260.953 160.522 267.527C160.271 270.81 160.342 273.993 160.998 276.517C161.652 279.035 162.928 281.018 165.172 281.658L165.447 280.697ZM164.436 250.996C172.107 251.986 177.667 254.458 181.714 256.862C183.74 258.066 185.388 259.253 186.743 260.238C188.075 261.207 189.176 262.022 190.05 262.414L190.459 261.501C189.705 261.164 188.711 260.433 187.331 259.429C185.973 258.442 184.293 257.231 182.224 256.002C178.083 253.542 172.393 251.014 164.564 250.004L164.436 250.996ZM190.009 262.393C198.232 267.036 202.216 268.535 205.547 269.819C208.838 271.088 211.475 272.139 217.058 275.898L217.616 275.068C211.957 271.259 209.249 270.175 205.907 268.886C202.605 267.613 198.669 266.134 190.5 261.522L190.009 262.393ZM217.12 275.933L236.364 285.187L236.797 284.286L217.554 275.032L217.12 275.933ZM236.408 285.206L257.789 293.037L258.133 292.098L236.752 284.267L236.408 285.206ZM257.738 293.015C260.691 294.489 265.417 295.143 270.052 295.38C274.71 295.619 279.365 295.44 282.235 295.201L282.152 294.205C279.32 294.44 274.71 294.617 270.103 294.381C265.473 294.144 260.934 293.493 258.185 292.12L257.738 293.015ZM282.123 295.198C283.222 295.355 284.857 295.122 286.72 294.685C288.603 294.243 290.79 293.574 293.028 292.809C297.505 291.279 302.222 289.351 305.201 288.042L304.799 287.127C301.838 288.428 297.148 290.344 292.704 291.863C290.482 292.622 288.33 293.28 286.491 293.711C284.631 294.148 283.16 294.336 282.264 294.208L282.123 295.198ZM304.5 287.584V301.821H305.5V287.584H304.5ZM304.553 301.597C304.088 302.526 303.247 303.996 302.244 305.371C301.228 306.764 300.099 307.981 299.075 308.493L299.522 309.387C300.778 308.76 302.025 307.367 303.052 305.96C304.092 304.534 304.961 303.015 305.447 302.045L304.553 301.597ZM299.075 308.493C296.365 309.846 293.643 309.863 290.131 309.161L289.935 310.142C293.551 310.864 296.53 310.881 299.522 309.387L299.075 308.493ZM290.131 309.161C289.893 309.114 289.604 308.961 289.266 308.665C288.931 308.371 288.578 307.962 288.212 307.452C287.481 306.431 286.739 305.057 286.032 303.533C284.62 300.488 283.381 296.917 282.672 294.559L281.714 294.847C282.432 297.234 283.687 300.853 285.125 303.954C285.844 305.502 286.616 306.94 287.399 308.034C287.791 308.581 288.195 309.055 288.607 309.416C289.015 309.774 289.46 310.047 289.935 310.142L290.131 309.161ZM281.71 294.574C281.241 296.333 280.322 299.192 279.097 302.033C277.866 304.887 276.353 307.66 274.713 309.298L275.42 310.005C277.201 308.226 278.776 305.304 280.015 302.429C281.262 299.539 282.196 296.632 282.676 294.832L281.71 294.574ZM274.713 309.298C272.755 311.253 269.591 311.467 266.313 311.025C264.694 310.806 263.09 310.434 261.66 310.068C260.247 309.707 258.967 309.343 258.059 309.161L257.863 310.142C258.737 310.317 259.952 310.664 261.412 311.037C262.855 311.406 264.503 311.789 266.18 312.016C269.495 312.463 273.101 312.321 275.42 310.005L274.713 309.298ZM258.059 309.161C257.82 309.113 257.563 308.906 257.342 308.353C257.123 307.807 256.984 307.027 256.923 306.061C256.802 304.138 256.997 301.626 257.325 299.132L256.334 299.002C256.003 301.515 255.798 304.103 255.925 306.124C255.989 307.13 256.136 308.034 256.413 308.725C256.688 309.411 257.138 309.997 257.863 310.142L258.059 309.161ZM256.346 298.94C255.722 301.32 254.843 303.639 253.674 305.306C252.506 306.971 251.118 307.896 249.459 307.73L249.359 308.726C251.531 308.942 253.223 307.69 254.493 305.88C255.761 304.072 256.677 301.62 257.313 299.194L256.346 298.94ZM249.459 307.73C247.666 307.551 246.142 307.462 244.84 307.384C243.531 307.306 242.462 307.24 241.551 307.11C240.643 306.981 239.923 306.791 239.312 306.481C238.708 306.174 238.186 305.737 237.693 305.08L236.893 305.681C237.469 306.448 238.105 306.99 238.86 307.372C239.607 307.752 240.446 307.963 241.409 308.1C242.369 308.237 243.483 308.305 244.78 308.382C246.083 308.46 247.589 308.549 249.359 308.726L249.459 307.73ZM237.693 305.08C237.32 304.584 236.947 303.717 236.594 302.581C236.246 301.459 235.933 300.126 235.66 298.735C235.113 295.955 234.733 292.982 234.551 291.095L233.555 291.192C233.74 293.102 234.125 296.108 234.679 298.928C234.956 300.337 235.277 301.709 235.639 302.877C235.997 304.031 236.411 305.039 236.893 305.681L237.693 305.08ZM233.6 290.931C232.22 293.874 230.526 296.741 228.697 298.561C227.784 299.47 226.867 300.087 225.969 300.345C225.092 300.596 224.206 300.514 223.296 299.969L222.782 300.826C223.932 301.516 225.105 301.633 226.245 301.306C227.366 300.984 228.424 300.243 229.403 299.27C231.357 297.325 233.11 294.331 234.506 291.356L233.6 290.931ZM223.296 299.969C219.755 297.847 216.936 295.733 214.921 293.807C212.889 291.866 211.729 290.168 211.408 288.887L210.438 289.129C210.83 290.695 212.164 292.556 214.23 294.53C216.313 296.52 219.195 298.677 222.782 300.826L223.296 299.969ZM211.408 288.887C211.125 287.755 210.949 286.935 210.844 286.372C210.737 285.794 210.71 285.515 210.71 285.449H209.71C209.71 285.619 209.755 285.982 209.861 286.554C209.97 287.142 210.151 287.983 210.438 289.129L211.408 288.887ZM209.933 285.033C203.725 289.166 197.533 287.796 193.382 285.033L192.828 285.865C197.23 288.796 203.867 290.273 210.487 285.865L209.933 285.033ZM193.382 285.033C190.127 282.865 188.842 278.916 188.698 274.542C188.555 270.182 189.553 265.521 190.727 262.121L189.782 261.794C188.58 265.275 187.55 270.06 187.699 274.575C187.847 279.077 189.176 283.433 192.828 285.865L193.382 285.033ZM189.816 261.716C187.195 266.477 181.698 276.367 180.573 278.053L181.405 278.608C182.561 276.876 188.088 266.929 190.692 262.199L189.816 261.716ZM180.573 278.053C179.917 279.035 178.581 280.383 176.204 281.146C173.825 281.91 170.365 282.1 165.447 280.697L165.172 281.658C170.232 283.102 173.899 282.937 176.509 282.099C179.121 281.26 180.636 279.761 181.405 278.608L180.573 278.053Z" fill="white"/>
</svg>
